<?xml version="1.0" encoding="iso-8859-1"?>
<!-- Generator: Adobe Illustrator 18.0.0, SVG Export Plug-In . SVG Version: 6.00 Build 0)  -->
<!DOCTYPE svg PUBLIC "-//W3C//DTD SVG 1.1//EN" "http://www.w3.org/Graphics/SVG/1.1/DTD/svg11.dtd">
<svg version="1.1" id="Capa_1" xmlns="http://www.w3.org/2000/svg" xmlns:xlink="http://www.w3.org/1999/xlink" x="0px" y="0px"
	 viewBox="0 0 353.997 353.997" style="enable-background:new 0 0 353.997 353.997;" xml:space="preserve">
<g>
	<path style="fill:none;stroke:#000000;stroke-width:8;stroke-linecap:round;stroke-linejoin:round;stroke-miterlimit:10;" d="
		M50.497,315.419c7.222,9.717,20.964,12.397,32.903,10.387c19.912-3.352,37.429-18.317,43.849-37.461
		c2.848-8.494,3.619-17.521,4.37-26.448c0.465-5.536,0.931-11.072,1.396-16.608c0.33-3.92,0.578-8.178-1.593-11.459
		c-2.826-4.269-8.659-5.262-13.775-5.057c-11.123,0.446-22.051,4.803-30.43,12.133c-2.246,1.965-4.345,4.157-6.953,5.605
		c-2.322,1.289-4.937,1.928-7.441,2.812c-19.912,7.029-31.162,30.408-27.954,51.279C45.68,305.876,47.314,311.136,50.497,315.419z"
		/>
	
		<line style="fill:none;stroke:#000000;stroke-width:8;stroke-linecap:round;stroke-linejoin:round;stroke-miterlimit:10;" x1="236.307" y1="211.716" x2="301.873" y2="146.15"/>
	
		<line style="fill:none;stroke:#000000;stroke-width:8;stroke-linecap:round;stroke-linejoin:round;stroke-miterlimit:10;" x1="200.321" y1="247.66" x2="208.241" y2="239.782"/>
	<path style="fill:none;stroke:#000000;stroke-width:8;stroke-linecap:round;stroke-linejoin:round;stroke-miterlimit:10;" d="
		M67.365,349.002c8.861,1.903,18.223,1.03,26.666-2.215c9.36-3.597,16.511-10.364,23.869-16.945
		c15.625-13.975,30.463-28.793,45.078-43.812c8.159-8.385,16.257-16.83,24.415-25.216"/>
	<path style="fill:none;stroke:#000000;stroke-width:8;stroke-linecap:round;stroke-linejoin:round;stroke-miterlimit:10;" d="
		M45.661,339.766c2.134,1.6,4.402,3.023,6.77,4.252"/>
	<path style="fill:none;stroke:#000000;stroke-width:8;stroke-linecap:round;stroke-linejoin:round;stroke-miterlimit:10;" d="
		M30.253,264.385c-12.953,19.605-10.385,44.511,3.189,62.943"/>
	
		<line style="fill:none;stroke:#000000;stroke-width:8;stroke-linecap:round;stroke-linejoin:round;stroke-miterlimit:10;" x1="96.289" y1="195.499" x2="41.757" y2="250.785"/>
	<path style="fill:none;stroke:#000000;stroke-width:8;stroke-linecap:round;stroke-linejoin:round;stroke-miterlimit:10;" d="
		M112.406,179.339c-1.472,1.452-2.945,2.904-4.418,4.355"/>
	
		<line style="fill:none;stroke:#000000;stroke-width:8;stroke-linecap:round;stroke-linejoin:round;stroke-miterlimit:10;" x1="288.716" y1="4" x2="138.916" y2="153.039"/>
	
		<line style="fill:none;stroke:#000000;stroke-width:8;stroke-linecap:round;stroke-linejoin:round;stroke-miterlimit:10;" x1="109.269" y1="212.665" x2="210.13" y2="111.804"/>
	
		<line style="fill:none;stroke:#000000;stroke-width:8;stroke-linecap:round;stroke-linejoin:round;stroke-miterlimit:10;" x1="182.011" y1="171.847" x2="282.429" y2="71.429"/>
	
		<line style="fill:none;stroke:#000000;stroke-width:8;stroke-linecap:round;stroke-linejoin:round;stroke-miterlimit:10;" x1="150.014" y1="203.844" x2="168.349" y2="185.509"/>
	
		<line style="fill:none;stroke:#000000;stroke-width:8;stroke-linecap:round;stroke-linejoin:round;stroke-miterlimit:10;" x1="245.522" y1="140.259" x2="253.655" y2="132.126"/>
	
		<line style="fill:none;stroke:#000000;stroke-width:8;stroke-linecap:round;stroke-linejoin:round;stroke-miterlimit:10;" x1="148.99" y1="236.79" x2="216.418" y2="169.363"/>
	
		<line style="fill:none;stroke:#000000;stroke-width:8;stroke-linecap:round;stroke-linejoin:round;stroke-miterlimit:10;" x1="263.108" y1="122.673" x2="332.213" y2="53.568"/>
	
		<line style="fill:none;stroke:#000000;stroke-width:8;stroke-linecap:round;stroke-linejoin:round;stroke-miterlimit:10;" x1="149.585" y1="268.119" x2="195.704" y2="222.001"/>
	
		<line style="fill:none;stroke:#000000;stroke-width:8;stroke-linecap:round;stroke-linejoin:round;stroke-miterlimit:10;" x1="292.973" y1="124.731" x2="316.35" y2="101.354"/>
	
		<circle style="fill:none;stroke:#000000;stroke-width:8;stroke-linecap:round;stroke-linejoin:round;stroke-miterlimit:10;" cx="77.095" cy="274.206" r="10.528"/>
	<path style="fill:none;stroke:#000000;stroke-width:8;stroke-linecap:round;stroke-linejoin:round;stroke-miterlimit:10;" d="
		M125.057,293.817c-0.239,0.011-0.489,0.023-0.728,0.023c-7.546,0-13.658-6.112-13.658-13.658c0-7.546,6.112-13.658,13.658-13.658
		c2.447,0,4.735,0.637,6.727,1.764"/>
	<path style="fill:none;stroke:#000000;stroke-width:8;stroke-linecap:round;stroke-linejoin:round;stroke-miterlimit:10;" d="
		M67.841,325.652c-0.091-0.626-0.137-1.275-0.137-1.935c0-8.013,6.499-14.512,14.512-14.512c7.353,0,13.43,5.475,14.375,12.565"/>
</g>
<g>
</g>
<g>
</g>
<g>
</g>
<g>
</g>
<g>
</g>
<g>
</g>
<g>
</g>
<g>
</g>
<g>
</g>
<g>
</g>
<g>
</g>
<g>
</g>
<g>
</g>
<g>
</g>
<g>
</g>
</svg>
