<?xml version="1.0" encoding="iso-8859-1"?>
<!-- Generator: Adobe Illustrator 18.0.0, SVG Export Plug-In . SVG Version: 6.00 Build 0)  -->
<!DOCTYPE svg PUBLIC "-//W3C//DTD SVG 1.1//EN" "http://www.w3.org/Graphics/SVG/1.1/DTD/svg11.dtd">
<svg version="1.1" id="Capa_1" xmlns="http://www.w3.org/2000/svg" xmlns:xlink="http://www.w3.org/1999/xlink" x="0px" y="0px"
	 viewBox="0 0 361.768 361.768" style="enable-background:new 0 0 361.768 361.768;" xml:space="preserve">
<g>
	<path d="M356.927,174.836c-0.066,0-0.131-0.001-0.197-0.004c-2.646-0.107-4.705-2.339-4.598-4.985
		c0.029-0.731,0.044-1.465,0.044-2.202c0-2.648,2.147-4.795,4.795-4.795c2.648,0,4.795,2.147,4.795,4.795
		c0,0.866-0.018,1.729-0.053,2.589C361.611,172.815,359.486,174.836,356.927,174.836z"/>
	<path d="M227.493,258.429c-0.026,0-0.051,0-0.076-0.001c-1.669-0.026-3.328-0.078-4.977-0.156
		c-2.645-0.125-4.688-2.371-4.564-5.017c0.125-2.645,2.362-4.692,5.017-4.564c1.548,0.073,3.105,0.122,4.672,0.146
		c2.648,0.041,4.761,2.221,4.72,4.869C232.245,256.331,230.106,258.429,227.493,258.429z M244.368,257.891
		c-2.483,0-4.584-1.914-4.776-4.431c-0.201-2.641,1.776-4.945,4.417-5.146c1.569-0.12,3.129-0.26,4.68-0.421
		c2.624-0.268,4.99,1.643,5.263,4.277c0.272,2.635-1.643,4.991-4.277,5.263c-1.636,0.169-3.281,0.317-4.936,0.443
		C244.614,257.887,244.49,257.891,244.368,257.891z M205.878,256.522c-0.258,0-0.518-0.02-0.78-0.064
		c-1.646-0.269-3.299-0.568-4.911-0.89c-2.597-0.517-4.284-3.042-3.767-5.639c0.516-2.598,3.047-4.284,5.639-3.767
		c1.506,0.3,3.05,0.579,4.588,0.831c2.614,0.427,4.386,2.893,3.958,5.507C210.219,254.852,208.185,256.522,205.878,256.522z
		 M265.877,254.945c-2.24,0-4.243-1.579-4.698-3.86c-0.517-2.597,1.169-5.122,3.766-5.64c1.542-0.307,3.071-0.635,4.587-0.982
		c2.581-0.594,5.154,1.023,5.744,3.604c0.591,2.582-1.023,5.154-3.604,5.744c-1.604,0.368-3.222,0.714-4.854,1.039
		C266.502,254.915,266.187,254.945,265.877,254.945z M184.799,251.342c-0.505,0-1.019-0.08-1.524-0.249
		c-1.585-0.532-3.174-1.098-4.722-1.684c-2.477-0.938-3.724-3.707-2.786-6.183c0.938-2.477,3.71-3.725,6.183-2.786
		c1.432,0.543,2.903,1.067,4.371,1.559c2.511,0.841,3.865,3.559,3.024,6.07C188.674,250.074,186.804,251.342,184.799,251.342z
		 M286.854,249.339c-1.997,0-3.861-1.257-4.54-3.252c-0.852-2.508,0.489-5.232,2.996-6.084c1.487-0.505,2.956-1.03,4.406-1.574
		c2.48-0.93,5.244,0.327,6.174,2.806c0.93,2.48-0.326,5.244-2.806,6.174c-1.543,0.579-3.105,1.137-4.686,1.675
		C287.887,249.256,287.366,249.339,286.854,249.339z M164.939,242.607c-0.796,0-1.602-0.198-2.344-0.615
		c-1.478-0.83-2.942-1.698-4.349-2.58c-2.244-1.407-2.923-4.366-1.517-6.61c1.406-2.244,4.366-2.923,6.61-1.517
		c1.278,0.801,2.608,1.59,3.952,2.345c2.309,1.297,3.13,4.22,1.833,6.529C168.245,241.726,166.616,242.607,164.939,242.607z
		 M306.848,240.886c-1.738,0-3.415-0.948-4.266-2.598c-1.215-2.354-0.29-5.246,2.063-6.46c1.386-0.715,2.764-1.458,4.096-2.207
		c2.307-1.299,5.232-0.482,6.531,1.827c1.299,2.308,0.481,5.232-1.827,6.531c-1.433,0.807-2.915,1.605-4.403,2.373
		C308.339,240.714,307.588,240.886,306.848,240.886z M147.386,229.905c-1.174,0-2.351-0.429-3.276-1.295
		c-1.261-1.181-2.484-2.401-3.635-3.625c-1.813-1.93-1.719-4.965,0.212-6.779c1.931-1.813,4.966-1.717,6.779,0.212
		c1.01,1.076,2.087,2.15,3.199,3.191c1.934,1.811,2.033,4.845,0.223,6.778C149.943,229.395,148.666,229.905,147.386,229.905z
		 M325.204,229.325c-1.44,0-2.864-0.646-3.808-1.876c-1.612-2.102-1.216-5.112,0.885-6.724c1.232-0.945,2.442-1.917,3.595-2.888
		c2.027-1.703,5.052-1.444,6.757,0.582c1.705,2.027,1.444,5.052-0.582,6.757c-1.264,1.063-2.586,2.125-3.931,3.157
		C327.249,229.002,326.222,229.325,325.204,229.325z M340.876,214.359c-1.075,0-2.157-0.36-3.052-1.099
		c-2.042-1.686-2.329-4.709-0.642-6.751c0.973-1.178,1.912-2.384,2.79-3.584c1.565-2.137,4.564-2.601,6.702-1.038
		c2.137,1.564,2.602,4.565,1.038,6.702c-0.989,1.35-2.044,2.706-3.137,4.029C343.627,213.766,342.257,214.359,340.876,214.359z
		 M134.104,212.857c-1.719,0-3.381-0.927-4.242-2.551c-0.823-1.554-1.581-3.15-2.25-4.744c-1.026-2.442,0.122-5.253,2.564-6.279
		c2.442-1.026,5.253,0.122,6.279,2.564c0.559,1.331,1.192,2.666,1.883,3.968c1.24,2.34,0.348,5.243-1.992,6.483
		C135.63,212.677,134.861,212.857,134.104,212.857z M352.179,195.914c-0.617,0-1.245-0.12-1.849-0.373
		c-2.443-1.022-3.595-3.831-2.573-6.275c0.575-1.373,1.102-2.779,1.567-4.177c0.835-2.512,3.549-3.873,6.063-3.037
		c2.513,0.835,3.873,3.55,3.037,6.063c-0.54,1.626-1.153,3.258-1.82,4.853C355.836,194.806,354.054,195.914,352.179,195.914z"/>
	<path d="M163.718,66.552c-0.02,0-0.04,0-0.061-0.001c-0.777-0.009-1.557-0.014-2.339-0.014c-2.648,0-4.795-2.147-4.795-4.795
		s2.147-4.795,4.795-4.795c0.822,0,1.641,0.005,2.459,0.015c2.648,0.033,4.768,2.206,4.735,4.855
		C168.479,64.444,166.338,66.552,163.718,66.552z"/>
	<path d="M206.086,220.104c-2.373,0-4.435-1.761-4.749-4.177c-0.342-2.626,1.51-5.032,4.136-5.374
		c1.541-0.201,3.094-0.43,4.615-0.68c2.617-0.428,5.081,1.339,5.511,3.952c0.431,2.613-1.339,5.081-3.952,5.511
		c-1.628,0.268-3.289,0.513-4.936,0.728C206.501,220.091,206.292,220.104,206.086,220.104z M227.329,215.649
		c-2.071,0-3.982-1.352-4.598-3.44c-0.749-2.54,0.702-5.207,3.242-5.956c1.488-0.439,2.98-0.91,4.434-1.398
		c2.51-0.844,5.229,0.508,6.073,3.018c0.844,2.51-0.508,5.229-3.018,6.073c-1.566,0.526-3.172,1.033-4.774,1.506
		C228.235,215.586,227.778,215.649,227.329,215.649z M247.524,207.711c-1.753,0-3.441-0.964-4.285-2.636
		c-1.193-2.364-0.244-5.248,2.121-6.442c1.374-0.693,2.741-1.422,4.064-2.168c2.309-1.302,5.232-0.484,6.532,1.823
		c1.301,2.307,0.485,5.232-1.823,6.532c-1.451,0.818-2.949,1.617-4.452,2.377C248.988,207.545,248.25,207.711,247.524,207.711z
		 M265.702,195.906c-1.374,0-2.74-0.588-3.688-1.727c-1.695-2.035-1.418-5.059,0.618-6.753c1.173-0.976,2.316-1.987,3.399-3.005
		c1.931-1.814,4.965-1.719,6.779,0.21c1.814,1.93,1.72,4.965-0.21,6.779c-1.223,1.15-2.513,2.29-3.832,3.388
		C267.871,195.542,266.784,195.906,265.702,195.906z M280.136,179.8c-0.883,0-1.777-0.244-2.576-0.755
		c-2.232-1.425-2.886-4.39-1.461-6.622c0.799-1.251,1.547-2.537,2.223-3.821c1.233-2.343,4.132-3.243,6.477-2.01
		c2.343,1.233,3.243,4.133,2.01,6.477c-0.8,1.52-1.684,3.039-2.627,4.516C283.267,179.018,281.718,179.8,280.136,179.8z
		 M287.895,159.697c-0.241,0-0.484-0.018-0.729-0.056c-2.618-0.399-4.417-2.846-4.017-5.464c0.218-1.428,0.364-2.879,0.436-4.315
		c0.132-2.646,2.388-4.677,5.027-4.552c2.645,0.131,4.683,2.382,4.552,5.027c-0.087,1.76-0.267,3.538-0.534,5.287
		C292.268,157.997,290.225,159.697,287.895,159.697z M286.659,138.162c-2.151,0-4.106-1.457-4.65-3.638
		c-0.356-1.429-0.774-2.867-1.243-4.274c-0.838-2.512,0.52-5.228,3.032-6.066c2.509-0.839,5.228,0.519,6.066,3.032
		c0.547,1.641,1.036,3.32,1.452,4.99c0.64,2.57-0.924,5.172-3.494,5.812C287.432,138.116,287.043,138.162,286.659,138.162z
		 M278.001,118.361c-1.581,0-3.128-0.78-4.043-2.21c-0.8-1.25-1.661-2.504-2.559-3.729c-1.566-2.135-1.103-5.137,1.033-6.703
		c2.135-1.566,5.137-1.104,6.703,1.033c1.016,1.386,1.992,2.808,2.901,4.226c1.428,2.23,0.778,5.196-1.452,6.625
		C279.782,118.116,278.886,118.361,278.001,118.361z M263.998,101.834c-1.165,0-2.333-0.422-3.256-1.276
		c-1.11-1.027-2.27-2.05-3.448-3.039c-2.028-1.704-2.29-4.729-0.587-6.756c1.703-2.027,4.728-2.29,6.756-0.587
		c1.294,1.088,2.57,2.213,3.792,3.344c1.944,1.799,2.061,4.833,0.262,6.776C266.574,101.317,265.288,101.834,263.998,101.834z
		 M246.659,88.804c-0.855,0-1.721-0.228-2.503-0.709c-1.296-0.795-2.644-1.586-4.005-2.352c-2.309-1.298-3.128-4.222-1.829-6.53
		c1.297-2.308,4.222-3.127,6.53-1.83c1.467,0.825,2.92,1.679,4.32,2.538c2.258,1.385,2.965,4.338,1.579,6.595
		C249.846,87.991,248.271,88.804,246.659,88.804z M227.296,79.015c-0.607,0-1.225-0.116-1.821-0.361
		c-1.432-0.588-2.884-1.159-4.353-1.71c-2.48-0.93-3.737-3.693-2.807-6.173c0.93-2.48,3.693-3.738,6.173-2.807
		c1.564,0.586,3.108,1.194,4.633,1.82c2.449,1.006,3.619,3.808,2.613,6.258C230.972,77.895,229.183,79.015,227.296,79.015z
		 M206.699,72.179c-0.397,0-0.801-0.05-1.204-0.154c-1.506-0.389-3.026-0.759-4.559-1.109c-2.582-0.59-4.197-3.162-3.607-5.743
		s3.16-4.194,5.743-3.607c1.622,0.371,3.229,0.762,4.822,1.174c2.564,0.662,4.105,3.278,3.443,5.843
		C210.78,70.745,208.833,72.179,206.699,72.179z M185.382,68.076c-0.205,0-0.413-0.013-0.623-0.04
		c-1.546-0.201-3.102-0.382-4.669-0.543c-2.635-0.272-4.55-2.627-4.279-5.261c0.271-2.635,2.628-4.55,5.261-4.279
		c1.651,0.17,3.292,0.361,4.921,0.572c2.627,0.341,4.479,2.747,4.139,5.373C189.818,66.314,187.756,68.076,185.382,68.076z"/>
	<path d="M4.795,198.918c-2.648,0-4.795-2.147-4.795-4.795c0-0.868,0.018-1.732,0.053-2.593c0.109-2.646,2.342-4.691,4.989-4.594
		c2.646,0.109,4.703,2.343,4.594,4.989c-0.03,0.731-0.045,1.463-0.045,2.199C9.591,196.77,7.444,198.918,4.795,198.918z"/>
	<path d="M7.894,179.962c-0.502,0-1.012-0.079-1.514-0.246c-2.513-0.835-3.873-3.55-3.037-6.063c0.54-1.626,1.153-3.258,1.82-4.853
		c1.023-2.443,3.832-3.596,6.275-2.573c2.443,1.022,3.595,3.831,2.573,6.275c-0.575,1.373-1.102,2.779-1.567,4.177
		C11.775,178.689,9.903,179.962,7.894,179.962z M229.737,162.86c-1.873,0-3.653-1.104-4.424-2.939
		c-0.559-1.331-1.192-2.666-1.883-3.968c-1.24-2.34-0.348-5.243,1.992-6.483c2.342-1.237,5.243-0.348,6.483,1.992
		c0.823,1.554,1.581,3.151,2.25,4.744c1.026,2.442-0.122,5.253-2.564,6.279C230.985,162.739,230.355,162.86,229.737,162.86z
		 M17.921,160.807c-0.983,0-1.974-0.301-2.828-0.926c-2.137-1.564-2.602-4.565-1.038-6.702c0.993-1.356,2.048-2.712,3.138-4.03
		c1.687-2.041,4.71-2.329,6.751-0.641c2.042,1.687,2.329,4.71,0.641,6.751c-0.97,1.173-1.908,2.379-2.79,3.584
		C20.855,160.126,19.398,160.807,17.921,160.807z M32.805,145.056c-1.366,0-2.723-0.581-3.672-1.708
		c-1.705-2.027-1.444-5.052,0.582-6.757c1.264-1.063,2.586-2.125,3.931-3.157c2.101-1.613,5.112-1.216,6.724,0.885
		c1.612,2.102,1.216,5.112-0.885,6.724c-1.232,0.945-2.442,1.917-3.595,2.888C34.991,144.686,33.895,145.056,32.805,145.056z
		 M217.798,144.861c-1.278,0-2.552-0.508-3.496-1.512c-1.011-1.076-2.087-2.15-3.199-3.191c-1.934-1.811-2.033-4.845-0.223-6.778
		c1.811-1.933,4.845-2.033,6.778-0.223c1.261,1.181,2.484,2.401,3.635,3.625c1.813,1.93,1.718,4.965-0.212,6.779
		C220.155,144.43,218.975,144.861,217.798,144.861z M50.679,132.764c-1.676,0-3.303-0.879-4.184-2.444
		c-1.299-2.308-0.481-5.232,1.827-6.531c1.433-0.807,2.915-1.605,4.403-2.373c2.357-1.215,5.247-0.29,6.46,2.063
		c1.215,2.354,0.29,5.246-2.063,6.46c-1.386,0.715-2.764,1.458-4.096,2.207C52.283,132.566,51.475,132.764,50.679,132.764z
		 M200.97,131.215c-0.87,0-1.75-0.236-2.542-0.732c-1.278-0.801-2.608-1.59-3.952-2.345c-2.309-1.297-3.13-4.22-1.833-6.529
		c1.297-2.31,4.221-3.129,6.529-1.833c1.478,0.83,2.942,1.698,4.349,2.58c2.244,1.407,2.923,4.366,1.517,6.61
		C204.129,130.417,202.567,131.215,200.97,131.215z M70.369,123.646c-1.941,0-3.769-1.188-4.49-3.112
		c-0.93-2.48,0.326-5.244,2.806-6.174c1.543-0.579,3.105-1.137,4.686-1.675c2.506-0.852,5.231,0.488,6.084,2.996
		c0.852,2.508-0.489,5.232-2.996,6.084c-1.487,0.505-2.956,1.03-4.406,1.574C71.497,123.548,70.928,123.646,70.369,123.646z
		 M181.515,121.64c-0.565,0-1.139-0.1-1.698-0.312c-1.432-0.543-2.903-1.067-4.371-1.559c-2.511-0.841-3.865-3.559-3.024-6.07
		c0.841-2.512,3.56-3.865,6.07-3.024c1.585,0.532,3.174,1.098,4.722,1.684c2.477,0.938,3.724,3.707,2.786,6.183
		C185.274,120.46,183.45,121.64,181.515,121.64z M91.161,117.425c-2.186,0-4.162-1.505-4.67-3.727
		c-0.591-2.582,1.023-5.154,3.604-5.744c1.604-0.368,3.222-0.714,4.854-1.039c2.594-0.518,5.122,1.168,5.64,3.766
		c0.517,2.597-1.169,5.122-3.766,5.64c-1.542,0.307-3.071,0.635-4.587,0.982C91.875,117.386,91.515,117.425,91.161,117.425z
		 M160.65,115.698c-0.311,0-0.625-0.03-0.941-0.094c-1.506-0.3-3.05-0.579-4.588-0.831c-2.614-0.427-4.386-2.893-3.958-5.507
		c0.428-2.614,2.894-4.392,5.507-3.958c1.646,0.269,3.299,0.568,4.911,0.89c2.597,0.517,4.284,3.042,3.767,5.639
		C164.894,114.119,162.891,115.698,160.65,115.698z M112.58,113.899c-2.427,0-4.509-1.836-4.764-4.303
		c-0.272-2.635,1.643-4.991,4.278-5.263c1.635-0.169,3.28-0.317,4.935-0.443c2.641-0.191,4.945,1.776,5.146,4.417
		c0.201,2.641-1.776,4.945-4.417,5.146c-1.569,0.12-3.129,0.26-4.68,0.421C112.912,113.89,112.745,113.899,112.58,113.899z
		 M139.104,113.08c-0.076,0-0.153-0.002-0.23-0.005c-1.548-0.073-3.105-0.122-4.672-0.146c-2.648-0.041-4.761-2.222-4.72-4.869
		c0.042-2.649,2.281-4.751,4.869-4.72c1.669,0.026,3.328,0.078,4.977,0.156c2.645,0.125,4.688,2.371,4.564,5.017
		C143.769,111.079,141.648,113.08,139.104,113.08z"/>
	<path d="M200.45,304.822c-0.823,0-1.644-0.005-2.462-0.016c-2.648-0.035-4.767-2.21-4.732-4.858
		c0.035-2.627,2.175-4.732,4.794-4.732c0.022,0,0.043,0,0.064,0.001c0.776,0.01,1.555,0.015,2.336,0.015
		c2.648,0,4.795,2.147,4.795,4.795S203.098,304.822,200.45,304.822z"/>
	<path d="M181.192,303.841c-0.164,0-0.33-0.009-0.497-0.026c-1.651-0.17-3.292-0.361-4.921-0.572
		c-2.627-0.341-4.479-2.747-4.139-5.373c0.341-2.626,2.744-4.476,5.373-4.139c1.546,0.201,3.103,0.382,4.669,0.543
		c2.635,0.272,4.55,2.627,4.279,5.261C185.702,302.004,183.619,303.841,181.192,303.841z M159.767,300.323
		c-0.354,0-0.713-0.04-1.072-0.122c-1.622-0.371-3.229-0.762-4.822-1.174c-2.564-0.662-4.105-3.278-3.443-5.843
		c0.663-2.565,3.277-4.108,5.843-3.443c1.506,0.389,3.026,0.759,4.559,1.109c2.582,0.59,4.197,3.162,3.607,5.743
		C163.93,298.817,161.954,300.323,159.767,300.323z M138.963,294.11c-0.559,0-1.128-0.098-1.682-0.306
		c-1.564-0.586-3.108-1.193-4.633-1.82c-2.449-1.006-3.619-3.808-2.613-6.258c1.006-2.45,3.807-3.619,6.258-2.613
		c1.432,0.589,2.884,1.159,4.353,1.71c2.48,0.93,3.737,3.693,2.807,6.173C142.732,292.922,140.904,294.11,138.963,294.11z
		 M119.261,284.999c-0.796,0-1.603-0.198-2.346-0.616c-1.467-0.825-2.92-1.679-4.32-2.538c-2.258-1.385-2.965-4.338-1.579-6.595
		c1.386-2.258,4.339-2.964,6.595-1.579c1.296,0.795,2.644,1.586,4.005,2.352c2.309,1.298,3.128,4.222,1.829,6.53
		C122.566,284.119,120.938,284.999,119.261,284.999z M101.386,272.715c-1.089,0-2.183-0.369-3.083-1.124
		c-1.294-1.088-2.57-2.213-3.792-3.344c-1.944-1.799-2.061-4.833-0.262-6.776c1.799-1.945,4.833-2.061,6.776-0.262
		c1.11,1.027,2.27,2.05,3.448,3.039c2.028,1.704,2.29,4.729,0.587,6.756C104.112,272.134,102.754,272.715,101.386,272.715z
		 M86.505,256.976c-1.476,0-2.932-0.679-3.872-1.961c-1.016-1.386-1.992-2.808-2.901-4.226c-1.428-2.23-0.778-5.196,1.452-6.625
		c2.231-1.429,5.196-0.778,6.625,1.452c0.8,1.25,1.661,2.504,2.559,3.729c1.566,2.135,1.103,5.137-1.033,6.703
		C88.481,256.674,87.489,256.976,86.505,256.976z M76.451,237.83c-2.008,0-3.879-1.27-4.548-3.28
		c-0.547-1.641-1.036-3.32-1.452-4.99c-0.64-2.57,0.924-5.172,3.494-5.812c2.57-0.642,5.172,0.925,5.812,3.494
		c0.356,1.429,0.774,2.867,1.243,4.274c0.838,2.512-0.52,5.228-3.032,6.066C77.466,237.75,76.954,237.83,76.451,237.83z
		 M73.398,216.462c-0.08,0-0.161-0.002-0.242-0.006c-2.645-0.131-4.683-2.382-4.552-5.027c0.087-1.76,0.267-3.538,0.534-5.287
		c0.399-2.618,2.847-4.418,5.464-4.017c2.618,0.399,4.417,2.846,4.017,5.464c-0.218,1.428-0.364,2.879-0.436,4.315
		C78.055,214.469,75.936,216.462,73.398,216.462z M79.199,195.728c-0.753,0-1.517-0.178-2.23-0.553
		c-2.343-1.233-3.243-4.133-2.01-6.477c0.8-1.52,1.684-3.039,2.627-4.516c1.425-2.231,4.392-2.886,6.622-1.461
		c2.232,1.425,2.886,4.39,1.461,6.622c-0.799,1.251-1.547,2.537-2.223,3.821C82.588,194.796,80.922,195.728,79.199,195.728z
		 M92.453,178.649c-1.277,0-2.552-0.507-3.495-1.511c-1.814-1.93-1.72-4.965,0.21-6.779c1.223-1.15,2.513-2.29,3.832-3.388
		c2.034-1.694,5.059-1.418,6.753,0.618c1.695,2.035,1.418,5.059-0.618,6.753c-1.173,0.976-2.316,1.987-3.399,3.005
		C94.811,178.218,93.63,178.649,92.453,178.649z M109.994,165.921c-1.675,0-3.301-0.879-4.182-2.441
		c-1.301-2.308-0.485-5.232,1.823-6.532c1.451-0.818,2.949-1.617,4.452-2.377c2.366-1.195,5.248-0.244,6.442,2.121
		c1.193,2.364,0.244,5.248-2.121,6.442c-1.374,0.693-2.741,1.422-4.064,2.168C111.599,165.722,110.791,165.921,109.994,165.921z
		 M129.833,157.164c-2.003,0-3.872-1.265-4.545-3.269c-0.844-2.51,0.508-5.229,3.018-6.073c1.566-0.526,3.172-1.033,4.774-1.506
		c2.538-0.75,5.206,0.702,5.956,3.242c0.749,2.54-0.702,5.207-3.242,5.956c-1.488,0.439-2.98,0.91-4.434,1.398
		C130.854,157.083,130.339,157.164,129.833,157.164z M150.894,151.959c-2.306,0-4.339-1.667-4.726-4.016
		c-0.431-2.613,1.339-5.081,3.952-5.511c1.628-0.268,3.289-0.513,4.936-0.728c2.622-0.334,5.032,1.511,5.374,4.137
		c0.342,2.626-1.51,5.032-4.136,5.374c-1.541,0.201-3.094,0.43-4.615,0.68C151.416,151.938,151.153,151.959,150.894,151.959z"/>
	<path d="M293.533,93.438c-0.957,0-1.922-0.286-2.762-0.879c-0.623-0.44-1.253-0.876-1.893-1.308
		c-2.195-1.483-2.772-4.464-1.29-6.658c1.483-2.196,4.465-2.771,6.658-1.29c0.695,0.47,1.381,0.944,2.058,1.422
		c2.164,1.528,2.678,4.52,1.15,6.683C296.52,92.731,295.038,93.438,293.533,93.438z"/>
	<path d="M227.29,233.663c-2.536,0-4.655-1.99-4.785-4.552c-0.135-2.645,1.9-4.898,4.545-5.032c1.536-0.078,3.07-0.18,4.6-0.307
		c2.634-0.221,4.956,1.745,5.174,4.384c0.218,2.639-1.745,4.956-4.384,5.174c-1.63,0.135-3.265,0.244-4.903,0.327
		C227.455,233.661,227.372,233.663,227.29,233.663z M210.642,233.586c-0.097,0-0.194-0.003-0.291-0.009
		c-1.637-0.098-3.272-0.222-4.903-0.372c-2.637-0.243-4.578-2.579-4.334-5.216c0.243-2.638,2.59-4.578,5.216-4.334
		c1.528,0.141,3.06,0.257,4.594,0.349c2.644,0.158,4.658,2.429,4.5,5.073C215.272,231.623,213.159,233.586,210.642,233.586z
		 M248.536,231.036c-2.24,0-4.242-1.578-4.697-3.858c-0.519-2.597,1.167-5.123,3.763-5.641c1.497-0.299,3.008-0.628,4.49-0.978
		c2.573-0.605,5.16,0.988,5.768,3.566c0.608,2.577-0.988,5.16-3.566,5.768c-1.589,0.375-3.209,0.728-4.814,1.048
		C249.164,231.006,248.848,231.036,248.536,231.036z M189.421,230.759c-0.327,0-0.658-0.034-0.99-0.104
		c-1.614-0.339-3.231-0.708-4.807-1.097c-2.571-0.634-4.141-3.233-3.506-5.805c0.634-2.571,3.23-4.142,5.805-3.506
		c1.468,0.362,2.975,0.706,4.48,1.022c2.592,0.544,4.252,3.087,3.707,5.679C193.635,229.207,191.641,230.759,189.421,230.759z
		 M269.127,225.186c-1.938,0-3.763-1.184-4.488-3.105c-0.934-2.478,0.318-5.244,2.796-6.179c1.424-0.536,2.851-1.107,4.242-1.696
		c2.438-1.033,5.253,0.107,6.286,2.546c1.033,2.439-0.108,5.253-2.546,6.286c-1.509,0.639-3.056,1.257-4.599,1.839
		C270.26,225.086,269.688,225.186,269.127,225.186z M168.888,224.689c-0.58,0-1.17-0.106-1.743-0.33
		c-1.537-0.6-3.077-1.237-4.579-1.894c-2.426-1.061-3.533-3.889-2.471-6.315c1.061-2.427,3.888-3.535,6.315-2.471
		c1.385,0.605,2.806,1.194,4.223,1.747c2.467,0.963,3.686,3.743,2.723,6.211C172.617,223.531,170.805,224.689,168.888,224.689z
		 M288.346,215.792c-1.603,0-3.17-0.804-4.078-2.266c-1.397-2.25-0.706-5.206,1.544-6.604c1.037-0.645,2.059-1.307,3.064-1.986
		l0.732-0.501c2.182-1.499,5.169-0.945,6.668,1.238c1.499,2.183,0.945,5.169-1.238,6.668l-0.777,0.531
		c-1.119,0.757-2.246,1.487-3.389,2.197C290.084,215.559,289.209,215.792,288.346,215.792z M305.275,202.731
		c-1.266,0-2.53-0.498-3.472-1.487c-1.827-1.918-1.753-4.953,0.164-6.78c1.1-1.048,2.173-2.123,3.189-3.196
		c1.822-1.923,4.857-2.004,6.779-0.183c1.923,1.822,2.004,4.857,0.183,6.779c-1.129,1.191-2.318,2.383-3.536,3.543
		C307.654,202.292,306.463,202.731,305.275,202.731z M318.818,186.213c-0.861,0-1.731-0.231-2.517-0.717
		c-2.253-1.393-2.95-4.348-1.557-6.601c0.78-1.262,1.524-2.559,2.21-3.852c1.239-2.34,4.143-3.232,6.482-1.991
		c2.34,1.24,3.232,4.142,1.991,6.482c-0.784,1.48-1.634,2.963-2.526,4.405C321.995,185.406,320.425,186.213,318.818,186.213z
		 M327.108,166.556c-0.369,0-0.745-0.043-1.12-0.133c-2.576-0.616-4.164-3.204-3.548-5.779c0.341-1.424,0.629-2.872,0.857-4.305
		c0.416-2.615,2.877-4.398,5.489-3.982c2.615,0.416,4.399,2.874,3.982,5.489c-0.266,1.676-0.604,3.368-1.001,5.03
		C331.241,165.076,329.275,166.556,327.108,166.556z M328.342,145.288c-2.383,0-4.448-1.774-4.752-4.199
		c-0.179-1.429-0.422-2.878-0.722-4.307c-0.544-2.592,1.115-5.134,3.707-5.679c2.594-0.544,5.134,1.116,5.679,3.707
		c0.354,1.685,0.641,3.396,0.852,5.085c0.33,2.628-1.534,5.025-4.161,5.354C328.741,145.275,328.54,145.288,328.342,145.288z
		 M321.983,124.943c-1.747,0-3.431-0.958-4.278-2.622c-0.659-1.294-1.38-2.6-2.146-3.882c-1.357-2.274-0.615-5.218,1.659-6.576
		c2.274-1.356,5.219-0.613,6.576,1.659c0.876,1.467,1.703,2.964,2.459,4.449c1.201,2.361,0.261,5.248-2.099,6.449
		C323.457,124.775,322.714,124.943,321.983,124.943z M309.676,107.486c-1.293,0-2.582-0.52-3.527-1.545
		c-1.008-1.093-2.066-2.183-3.145-3.24c-1.893-1.853-1.925-4.888-0.071-6.781c1.852-1.893,4.888-1.925,6.781-0.071
		c1.196,1.171,2.369,2.379,3.487,3.592c1.795,1.947,1.672,4.981-0.276,6.776C312.003,107.066,310.838,107.486,309.676,107.486z"/>
	<path d="M42.54,110.794c-1.539,0-3.05-0.739-3.976-2.11c-1.484-2.194-0.907-5.175,1.287-6.658c0.686-0.464,1.377-0.922,2.075-1.373
		c2.222-1.441,5.192-0.804,6.631,1.419c1.439,2.223,0.804,5.192-1.419,6.631c-0.644,0.417-1.282,0.84-1.915,1.268
		C44.399,110.527,43.464,110.794,42.54,110.794z"/>
	<path d="M237.136,195.387c-1.15,0-2.302-0.41-3.221-1.243c-1.962-1.78-2.109-4.812-0.33-6.774c1.026-1.13,2.012-2.299,2.931-3.473
		c1.633-2.085,4.647-2.451,6.732-0.819c2.085,1.633,2.452,4.647,0.819,6.732c-1.061,1.355-2.198,2.702-3.378,4.003
		C239.743,194.856,238.442,195.387,237.136,195.387z M248.792,176.858c-0.572,0-1.155-0.103-1.722-0.321
		c-2.472-0.952-3.704-3.727-2.752-6.198c0.533-1.383,1.001-2.798,1.391-4.204c0.71-2.552,3.355-4.043,5.905-3.336
		c2.552,0.709,4.045,3.353,3.336,5.905c-0.473,1.702-1.039,3.412-1.682,5.081C252.535,175.689,250.718,176.858,248.792,176.858z
		 M251.894,155.26c-2.455,0-4.547-1.876-4.771-4.368c-0.131-1.452-0.338-2.917-0.618-4.355c-0.506-2.6,1.191-5.117,3.791-5.623
		c2.597-0.506,5.117,1.191,5.623,3.791c0.342,1.759,0.597,3.553,0.756,5.33c0.237,2.638-1.71,4.968-4.348,5.205
		C252.182,155.253,252.038,155.26,251.894,155.26z M245.185,134.475c-1.662,0-3.278-0.865-4.164-2.409
		c-0.731-1.274-1.538-2.553-2.399-3.8c-1.504-2.18-0.956-5.167,1.224-6.67c2.18-1.504,5.167-0.955,6.67,1.224
		c1.01,1.465,1.96,2.97,2.823,4.472c1.318,2.298,0.525,5.228-1.772,6.546C246.814,134.27,245.994,134.475,245.185,134.475z
		 M231.16,117.626c-1.127,0-2.259-0.395-3.17-1.199c-1.129-0.996-2.322-1.986-3.547-2.945c-2.086-1.633-2.453-4.646-0.821-6.732
		c1.633-2.085,4.646-2.453,6.732-0.821c1.372,1.074,2.711,2.186,3.98,3.306c1.986,1.752,2.176,4.783,0.424,6.768
		C233.81,117.077,232.488,117.626,231.16,117.626z M213.078,105.131c-0.79,0-1.59-0.195-2.328-0.606
		c-1.361-0.757-2.762-1.504-4.166-2.219c-2.36-1.203-3.297-4.091-2.095-6.45c1.203-2.358,4.089-3.296,6.45-2.095
		c1.506,0.768,3.012,1.57,4.475,2.384c2.315,1.288,3.146,4.208,1.858,6.522C216.396,104.243,214.762,105.131,213.078,105.131z
		 M59.491,101.151c-1.794,0-3.513-1.01-4.335-2.738c-1.137-2.392-0.119-5.253,2.272-6.39c1.514-0.719,3.064-1.423,4.608-2.092
		c2.428-1.051,5.253,0.064,6.306,2.494c1.053,2.43-0.064,5.254-2.494,6.306c-1.441,0.624-2.888,1.281-4.302,1.953
		C60.881,101.002,60.18,101.151,59.491,101.151z M193.067,95.998c-0.55,0-1.109-0.095-1.655-0.296
		c-1.48-0.544-2.973-1.066-4.478-1.565c-2.514-0.835-3.874-3.549-3.04-6.063c0.835-2.514,3.549-3.872,6.063-3.04
		c1.601,0.532,3.204,1.093,4.766,1.667c2.486,0.914,3.759,3.67,2.845,6.156C196.855,94.797,195.02,95.998,193.067,95.998z
		 M80.006,93.229c-2.053,0-3.952-1.328-4.584-3.393c-0.775-2.532,0.65-5.214,3.182-5.988c1.601-0.49,3.214-0.957,4.837-1.401
		c2.553-0.7,5.192,0.805,5.891,3.36c0.698,2.555-0.805,5.192-3.36,5.891c-1.531,0.419-3.052,0.859-4.562,1.321
		C80.943,93.162,80.471,93.229,80.006,93.229z M171.941,89.846c-0.343,0-0.69-0.037-1.038-0.114
		c-1.547-0.341-3.101-0.661-4.663-0.96c-2.601-0.498-4.306-3.01-3.808-5.611c0.498-2.601,3.014-4.302,5.611-3.808
		c1.65,0.316,3.293,0.654,4.928,1.015c2.586,0.571,4.219,3.131,3.648,5.716C176.125,88.321,174.141,89.846,171.941,89.846z
		 M101.419,88.186c-2.296,0-4.325-1.654-4.722-3.995c-0.443-2.611,1.315-5.087,3.927-5.529c1.648-0.279,3.304-0.537,4.964-0.772
		c2.622-0.37,5.049,1.453,5.42,4.076c0.371,2.622-1.453,5.049-4.076,5.42c-1.573,0.223-3.142,0.467-4.705,0.732
		C101.955,88.164,101.685,88.186,101.419,88.186z M150.196,86.443c-0.152,0-0.305-0.008-0.459-0.022
		c-1.581-0.15-3.166-0.279-4.753-0.388c-2.642-0.181-4.637-2.47-4.456-5.113c0.181-2.642,2.46-4.64,5.113-4.456
		c1.671,0.115,3.338,0.251,5.003,0.409c2.637,0.25,4.571,2.59,4.321,5.227C154.729,84.582,152.64,86.443,150.196,86.443z
		 M123.3,85.822c-2.542,0-4.661-1.997-4.785-4.563c-0.129-2.645,1.912-4.894,4.557-5.022c1.669-0.081,3.341-0.14,5.014-0.178
		c2.646-0.054,4.843,2.038,4.903,4.686c0.06,2.648-2.038,4.843-4.686,4.903c-1.589,0.036-3.178,0.092-4.766,0.169
		C123.457,85.82,123.378,85.822,123.3,85.822z"/>
	<path d="M70.201,279.287c-0.925,0-1.859-0.267-2.682-0.824c-0.694-0.469-1.379-0.943-2.054-1.42
		c-2.164-1.527-2.679-4.52-1.151-6.683c1.528-2.163,4.519-2.679,6.683-1.151c0.623,0.44,1.254,0.877,1.895,1.31
		c2.194,1.484,2.769,4.465,1.286,6.659C73.251,278.548,71.74,279.287,70.201,279.287z"/>
	<path d="M55.409,267.289c-1.21,0-2.421-0.455-3.354-1.369c-1.198-1.173-2.371-2.383-3.488-3.597
		c-1.793-1.949-1.667-4.983,0.283-6.776c1.95-1.793,4.984-1.665,6.776,0.283c1.005,1.092,2.061,2.181,3.139,3.238
		c1.893,1.853,1.925,4.888,0.071,6.781C57.897,266.808,56.653,267.289,55.409,267.289z M42.127,250.561
		c-1.638,0-3.233-0.839-4.129-2.35c-0.867-1.462-1.69-2.961-2.445-4.456c-1.195-2.364-0.247-5.248,2.117-6.443
		c2.361-1.195,5.248-0.248,6.443,2.117c0.659,1.303,1.377,2.611,2.135,3.889c1.351,2.278,0.599,5.22-1.678,6.571
		C43.801,250.344,42.959,250.561,42.127,250.561z M34.267,230.73c-2.217,0-4.208-1.547-4.687-3.802
		c-0.355-1.678-0.647-3.383-0.866-5.069c-0.341-2.627,1.511-5.032,4.137-5.374c2.642-0.334,5.032,1.512,5.374,4.137
		c0.186,1.435,0.434,2.887,0.738,4.317c0.549,2.591-1.106,5.137-3.697,5.686C34.931,230.696,34.596,230.73,34.267,230.73z
		 M33.674,209.434c-0.244,0-0.491-0.019-0.74-0.057c-2.617-0.405-4.41-2.855-4.005-5.473c0.26-1.678,0.592-3.375,0.988-5.042
		c0.611-2.577,3.198-4.17,5.772-3.56c2.577,0.611,4.171,3.195,3.56,5.772c-0.337,1.422-0.62,2.868-0.842,4.298
		C38.04,207.74,35.998,209.434,33.674,209.434z M40.498,189.239c-0.761,0-1.533-0.182-2.251-0.565
		c-2.337-1.246-3.222-4.15-1.976-6.487c0.787-1.477,1.641-2.957,2.536-4.399c1.398-2.248,4.354-2.938,6.605-1.541
		c2.249,1.398,2.939,4.355,1.541,6.605c-0.784,1.261-1.531,2.556-2.219,3.847C43.87,188.316,42.212,189.239,40.498,189.239z
		 M53.1,171.991c-1.187,0-2.376-0.438-3.304-1.321c-1.919-1.825-1.996-4.86-0.17-6.779c1.139-1.197,2.331-2.388,3.544-3.538
		c1.921-1.822,4.956-1.743,6.779,0.18c1.822,1.922,1.742,4.957-0.18,6.779c-1.094,1.037-2.168,2.11-3.194,3.188
		C55.632,171.491,54.367,171.991,53.1,171.991z M69.432,158.186c-1.524,0-3.023-0.725-3.954-2.076
		c-1.502-2.181-0.951-5.167,1.23-6.669l0.814-0.556c1.099-0.743,2.219-1.469,3.357-2.176c2.25-1.397,5.206-0.706,6.604,1.544
		s0.707,5.206-1.543,6.604c-1.032,0.641-2.048,1.3-3.048,1.976l-0.745,0.508C71.317,157.912,70.37,158.186,69.432,158.186z
		 M197.259,148.484c-0.642,0-1.295-0.13-1.921-0.404c-1.377-0.603-2.798-1.19-4.221-1.744c-2.468-0.962-3.688-3.742-2.727-6.21
		c0.963-2.469,3.745-3.687,6.21-2.727c1.545,0.602,3.087,1.24,4.584,1.895c2.426,1.062,3.532,3.89,2.47,6.316
		C200.866,147.411,199.106,148.484,197.259,148.484z M88.205,147.95c-1.868,0-3.643-1.098-4.418-2.925
		c-1.033-2.439,0.106-5.253,2.544-6.287c1.499-0.635,3.046-1.254,4.598-1.84c2.477-0.937,5.244,0.314,6.18,2.793
		c0.935,2.478-0.315,5.244-2.793,6.18c-1.434,0.541-2.861,1.112-4.242,1.698C89.463,147.828,88.829,147.95,88.205,147.95z
		 M176.978,141.657c-0.379,0-0.766-0.046-1.151-0.14c-1.473-0.363-2.981-0.707-4.482-1.022c-2.592-0.544-4.252-3.087-3.707-5.679
		c0.544-2.592,3.087-4.25,5.679-3.707c1.608,0.338,3.225,0.707,4.805,1.096c2.572,0.633,4.142,3.232,3.509,5.803
		C181.092,140.193,179.134,141.657,176.978,141.657z M108.55,141.342c-2.174,0-4.142-1.488-4.663-3.695
		c-0.608-2.577,0.988-5.16,3.566-5.768c1.583-0.373,3.203-0.726,4.812-1.048c2.598-0.518,5.123,1.164,5.643,3.762
		c0.519,2.597-1.165,5.124-3.762,5.643c-1.503,0.3-3.014,0.63-4.492,0.978C109.285,141.299,108.915,141.342,108.55,141.342z
		 M155.864,138.131c-0.148,0-0.296-0.007-0.445-0.02c-1.528-0.141-3.061-0.257-4.596-0.349c-2.644-0.158-4.658-2.429-4.5-5.073
		c0.158-2.644,2.443-4.65,5.073-4.5c1.637,0.098,3.271,0.221,4.901,0.371c2.637,0.243,4.579,2.577,4.336,5.215
		C160.405,136.262,158.314,138.131,155.864,138.131z M129.696,138.014c-2.47,0-4.567-1.895-4.774-4.401
		c-0.218-2.639,1.745-4.956,4.384-5.174c1.631-0.135,3.266-0.244,4.904-0.327c2.63-0.143,4.897,1.902,5.031,4.548
		c0.133,2.645-1.902,4.897-4.548,5.031c-1.535,0.077-3.069,0.18-4.599,0.306C129.961,138.009,129.828,138.014,129.696,138.014z"/>
	<path d="M317.242,261.886c-1.571,0-3.111-0.772-4.029-2.188c-1.44-2.223-0.806-5.192,1.417-6.632
		c0.643-0.417,1.282-0.839,1.915-1.267c2.193-1.485,5.175-0.91,6.659,1.284c1.485,2.193,0.91,5.175-1.284,6.659
		c-0.685,0.464-1.377,0.922-2.074,1.374C319.04,261.637,318.135,261.886,317.242,261.886z"/>
	<path d="M233.564,285.698c-2.594,0-4.728-2.07-4.792-4.678c-0.064-2.648,2.03-4.846,4.677-4.911
		c1.59-0.039,3.181-0.097,4.769-0.176c2.635-0.136,4.897,1.907,5.027,4.552c0.131,2.645-1.907,4.896-4.552,5.027
		c-1.669,0.083-3.339,0.145-5.01,0.186C233.644,285.697,233.604,285.698,233.564,285.698z M216.453,285.338
		c-0.108,0-0.217-0.004-0.326-0.011c-1.672-0.112-3.342-0.247-5.008-0.404c-2.637-0.249-4.572-2.589-4.323-5.226
		c0.249-2.637,2.603-4.56,5.226-4.323c1.579,0.149,3.163,0.277,4.749,0.383c2.642,0.178,4.641,2.464,4.464,5.106
		C221.063,283.397,218.955,285.338,216.453,285.338z M255.495,283.898c-2.351,0-4.403-1.729-4.742-4.124
		c-0.371-2.622,1.453-5.049,4.076-5.42c1.574-0.223,3.143-0.466,4.707-0.731c2.608-0.44,5.086,1.317,5.528,3.928
		c0.442,2.611-1.317,5.086-3.928,5.528c-1.648,0.279-3.303,0.536-4.962,0.77C255.945,283.882,255.718,283.898,255.495,283.898z
		 M194.623,282.536c-0.3,0-0.604-0.028-0.909-0.087c-1.65-0.316-3.293-0.655-4.927-1.017c-2.586-0.572-4.218-3.132-3.646-5.718
		c0.572-2.586,3.135-4.214,5.719-3.646c1.546,0.342,3.1,0.663,4.661,0.962c2.601,0.499,4.305,3.011,3.806,5.613
		C198.887,280.939,196.878,282.536,194.623,282.536z M277.053,279.478c-2.109,0-4.042-1.402-4.623-3.535
		c-0.697-2.555,0.81-5.191,3.365-5.888c1.531-0.418,3.052-0.857,4.562-1.318c2.535-0.772,5.213,0.654,5.986,3.187
		c0.773,2.534-0.654,5.213-3.187,5.986c-1.602,0.489-3.215,0.955-4.839,1.397C277.895,279.423,277.47,279.478,277.053,279.478z
		 M173.318,277.001c-0.502,0-1.013-0.08-1.517-0.247c-1.601-0.533-3.189-1.09-4.763-1.671c-2.485-0.916-3.756-3.673-2.84-6.158
		c0.916-2.484,3.673-3.756,6.158-2.84c1.48,0.546,2.973,1.068,4.478,1.57c2.512,0.837,3.871,3.553,3.033,6.066
		C177.197,275.73,175.326,277.001,173.318,277.001z M297.828,272.231c-1.854,0-3.62-1.082-4.403-2.892
		c-1.052-2.431,0.066-5.254,2.497-6.306c1.443-0.625,2.891-1.281,4.302-1.952c2.391-1.137,5.253-0.119,6.389,2.274
		c1.137,2.392,0.119,5.253-2.274,6.389c-1.512,0.719-3.063,1.422-4.609,2.091C299.11,272.104,298.463,272.231,297.828,272.231z
		 M153.004,268.538c-0.733,0-1.477-0.169-2.175-0.525c-1.513-0.772-3.019-1.575-4.476-2.388c-2.313-1.29-3.142-4.211-1.852-6.524
		c1.29-2.313,4.213-3.141,6.524-1.852c1.355,0.756,2.755,1.503,4.162,2.221c2.359,1.204,3.296,4.092,2.092,6.451
		C156.431,267.582,154.749,268.538,153.004,268.538z M134.37,256.861c-1.033,0-2.074-0.332-2.951-1.019
		c-1.371-1.072-2.71-2.184-3.981-3.306c-1.986-1.752-2.176-4.783-0.424-6.768c1.752-1.987,4.783-2.176,6.768-0.424
		c1.13,0.997,2.323,1.987,3.546,2.944c2.086,1.631,2.454,4.646,0.822,6.731C137.205,256.229,135.795,256.861,134.37,256.861z
		 M119.206,241.024c-1.523,0-3.021-0.724-3.951-2.073c-1.008-1.462-1.958-2.966-2.822-4.47c-1.319-2.296-0.527-5.227,1.769-6.547
		c2.296-1.319,5.227-0.528,6.547,1.769c0.733,1.277,1.541,2.556,2.401,3.801c1.504,2.18,0.956,5.167-1.224,6.67
		C121.093,240.749,120.145,241.024,119.206,241.024z M110.551,220.948c-2.249,0-4.256-1.59-4.702-3.88
		c-0.342-1.759-0.597-3.553-0.756-5.33c-0.237-2.638,1.71-4.968,4.348-5.205c2.634-0.242,4.968,1.71,5.205,4.348
		c0.131,1.452,0.338,2.917,0.618,4.355c0.506,2.6-1.191,5.117-3.791,5.623C111.164,220.919,110.855,220.948,110.551,220.948z
		 M111.439,199.151c-0.425,0-0.856-0.057-1.285-0.176c-2.552-0.708-4.047-3.351-3.339-5.903c0.472-1.701,1.038-3.412,1.682-5.084
		c0.951-2.471,3.724-3.705,6.198-2.752c2.472,0.952,3.704,3.727,2.752,6.198c-0.533,1.385-1.001,2.799-1.39,4.202
		C115.469,197.759,113.54,199.151,111.439,199.151z M121.469,179.714c-1.034,0-2.076-0.333-2.953-1.02
		c-2.085-1.633-2.452-4.647-0.819-6.732c1.059-1.352,2.195-2.698,3.376-4.002c1.778-1.962,4.811-2.112,6.773-0.333
		c1.962,1.778,2.111,4.811,0.333,6.773c-1.028,1.134-2.014,2.303-2.932,3.475C124.302,179.083,122.893,179.714,121.469,179.714z"/>
	<path d="M183.322,210.879c-2.551,0-4.673-2.01-4.787-4.584c-0.117-2.646,1.933-4.886,4.579-5.003
		c1.462-0.064,2.928-0.194,4.358-0.383c2.626-0.341,5.036,1.497,5.384,4.123c0.348,2.625-1.498,5.036-4.123,5.384
		c-1.707,0.227-3.455,0.38-5.195,0.457C183.465,210.877,183.393,210.879,183.322,210.879z M166.712,209.048
		c-0.424,0-0.854-0.057-1.283-0.175c-1.717-0.475-3.406-1.038-5.021-1.672c-2.465-0.969-3.678-3.752-2.71-6.217
		c0.969-2.465,3.752-3.677,6.217-2.71c1.306,0.513,2.676,0.969,4.073,1.356c2.552,0.707,4.048,3.348,3.342,5.901
		C170.743,207.656,168.814,209.048,166.712,209.048z M204.044,205.488c-1.71,0-3.365-0.917-4.23-2.53
		c-1.252-2.334-0.375-5.241,1.959-6.492c0.982-0.527,1.929-1.098,2.813-1.697c0.244-0.165,0.484-0.332,0.718-0.501
		c2.149-1.547,5.147-1.061,6.694,1.088c1.548,2.148,1.061,5.145-1.088,6.694c-0.31,0.223-0.626,0.444-0.947,0.661
		c-1.157,0.783-2.387,1.525-3.657,2.206C205.586,205.305,204.809,205.488,204.044,205.488z M148.439,198.171
		c-1.366,0-2.722-0.58-3.67-1.706c-1.28-1.52-2.377-3.136-3.259-4.804c-1.239-2.34-0.346-5.243,1.995-6.481
		c2.339-1.24,5.242-0.347,6.481,1.995c0.564,1.065,1.277,2.113,2.119,3.112c1.706,2.026,1.446,5.051-0.579,6.757
		C150.626,197.801,149.529,198.171,148.439,198.171z M217.748,189.656c-0.362,0-0.73-0.042-1.098-0.128
		c-2.579-0.604-4.179-3.184-3.575-5.763c0.223-0.953,0.337-1.923,0.337-2.884c0-0.186-0.004-0.375-0.013-0.564
		c-0.119-2.646,1.929-4.887,4.575-5.006c2.639-0.122,4.887,1.929,5.006,4.575c0.015,0.332,0.022,0.664,0.022,0.997
		c-0.001,1.697-0.199,3.402-0.59,5.07C221.895,188.164,219.924,189.656,217.748,189.656z M145.291,178.055
		c-0.68,0-1.37-0.145-2.027-0.452c-2.399-1.12-3.436-3.974-2.315-6.374c0.805-1.723,1.833-3.399,3.055-4.98
		c1.619-2.095,4.63-2.48,6.727-0.862c2.095,1.62,2.481,4.632,0.862,6.727c-0.79,1.022-1.448,2.09-1.954,3.174
		C148.825,177.031,147.096,178.055,145.291,178.055z M210.628,170.421c-1.134,0-2.274-0.4-3.187-1.214
		c-0.865-0.77-1.824-1.513-2.851-2.207c-1.123-0.76-2.336-1.47-3.607-2.11c-2.366-1.191-3.317-4.074-2.126-6.44
		c1.191-2.366,4.075-3.317,6.44-2.126c1.636,0.824,3.206,1.743,4.667,2.731c1.377,0.931,2.675,1.937,3.855,2.988
		c1.978,1.761,2.154,4.792,0.392,6.77C213.263,169.878,211.949,170.421,210.628,170.421z M161.223,164.209
		c-1.873,0-3.653-1.105-4.423-2.94c-1.026-2.442,0.123-5.253,2.565-6.278c1.599-0.671,3.278-1.273,4.99-1.787
		c2.538-0.763,5.21,0.677,5.973,3.213c0.762,2.536-0.677,5.21-3.213,5.973c-1.391,0.417-2.749,0.904-4.037,1.444
		C162.471,164.089,161.842,164.209,161.223,164.209z M187.102,160.777c-0.18,0-0.363-0.011-0.546-0.031
		c-1.438-0.163-2.908-0.265-4.367-0.303c-2.647-0.068-4.738-2.271-4.669-4.918c0.068-2.647,2.231-4.764,4.918-4.669
		c1.736,0.045,3.485,0.166,5.198,0.361c2.632,0.299,4.523,2.674,4.225,5.305C191.583,158.969,189.508,160.777,187.102,160.777z"/>
</g>
<g>
</g>
<g>
</g>
<g>
</g>
<g>
</g>
<g>
</g>
<g>
</g>
<g>
</g>
<g>
</g>
<g>
</g>
<g>
</g>
<g>
</g>
<g>
</g>
<g>
</g>
<g>
</g>
<g>
</g>
</svg>
