<?xml version="1.0" encoding="iso-8859-1"?>
<!-- Generator: Adobe Illustrator 18.0.0, SVG Export Plug-In . SVG Version: 6.00 Build 0)  -->
<!DOCTYPE svg PUBLIC "-//W3C//DTD SVG 1.1//EN" "http://www.w3.org/Graphics/SVG/1.1/DTD/svg11.dtd">
<svg version="1.1" id="Capa_1" xmlns="http://www.w3.org/2000/svg" xmlns:xlink="http://www.w3.org/1999/xlink" x="0px" y="0px"
	 viewBox="0 0 315.83 315.83" style="enable-background:new 0 0 315.83 315.83;" xml:space="preserve">
<g>
	<path style="fill:none;stroke:#000000;stroke-width:8;stroke-linecap:round;stroke-linejoin:round;stroke-miterlimit:10;" d="
		M136.385,85.332L136.385,85.332c27.062,0,49,21.938,49,49v95.096c0,27.062-21.938,49-49,49h0c-27.062,0-49-21.938-49-49v-95.096
		c0-7.956,1.896-15.469,5.261-22.112"/>
	<path style="fill:none;stroke:#000000;stroke-width:8;stroke-linecap:round;stroke-linejoin:round;stroke-miterlimit:10;" d="
		M136.385,294.819L136.385,294.819c-35.615,0-64.487-28.872-64.487-64.487v-97.513c0-35.615,28.872-64.487,64.487-64.487h0
		c35.615,0,64.487,28.872,64.487,64.487v97.513"/>
	
		<line style="fill:none;stroke:#000000;stroke-width:8;stroke-linecap:round;stroke-linejoin:round;stroke-miterlimit:10;" x1="185.205" y1="130.182" x2="87.565" y2="130.182"/>
	
		<line style="fill:none;stroke:#000000;stroke-width:8;stroke-linecap:round;stroke-linejoin:round;stroke-miterlimit:10;" x1="185.385" y1="156.031" x2="122.366" y2="156.031"/>
	
		<line style="fill:none;stroke:#000000;stroke-width:8;stroke-linecap:round;stroke-linejoin:round;stroke-miterlimit:10;" x1="105.385" y1="156.031" x2="89.366" y2="156.031"/>
	
		<line style="fill:none;stroke:#000000;stroke-width:8;stroke-linecap:round;stroke-linejoin:round;stroke-miterlimit:10;" x1="185.385" y1="181.88" x2="87.385" y2="181.88"/>
	
		<line style="fill:none;stroke:#000000;stroke-width:8;stroke-linecap:round;stroke-linejoin:round;stroke-miterlimit:10;" x1="166.366" y1="233.579" x2="87.565" y2="233.579"/>
	
		<line style="fill:none;stroke:#000000;stroke-width:8;stroke-linecap:round;stroke-linejoin:round;stroke-miterlimit:10;" x1="149.866" y1="207.729" x2="87.565" y2="207.729"/>
	
		<line style="fill:none;stroke:#000000;stroke-width:8;stroke-linecap:round;stroke-linejoin:round;stroke-miterlimit:10;" x1="183.366" y1="207.729" x2="170.866" y2="207.729"/>
	
		<line style="fill:none;stroke:#000000;stroke-width:8;stroke-linecap:round;stroke-linejoin:round;stroke-miterlimit:10;" x1="175.125" y1="259.428" x2="97.645" y2="259.428"/>
	
		<line style="fill:none;stroke:#000000;stroke-width:8;stroke-linecap:round;stroke-linejoin:round;stroke-miterlimit:10;" x1="175.125" y1="104.332" x2="130.366" y2="104.332"/>
	<path style="fill:none;stroke:#000000;stroke-width:8;stroke-linecap:round;stroke-linejoin:round;stroke-miterlimit:10;" d="
		M31.102,215.996c-6.627,0-11.999-5.372-11.999-11.999c0-6.627,5.372-11.999,11.999-11.999s11.999,5.372,11.999,11.999"/>
	<path style="fill:none;stroke:#000000;stroke-width:8;stroke-linecap:round;stroke-linejoin:round;stroke-miterlimit:10;" d="
		M39.248,91.507C19.781,91.507,4,75.726,4,56.259s15.781-35.248,35.248-35.248s35.248,15.781,35.248,35.248"/>
	<path style="fill:none;stroke:#000000;stroke-width:8;stroke-linecap:round;stroke-linejoin:round;stroke-miterlimit:10;" d="
		M39.248,33.391c12.629,0,22.867,10.238,22.867,22.867S51.877,79.126,39.248,79.126S16.381,68.888,16.381,56.259"/>
	<path style="fill:none;stroke:#000000;stroke-width:8;stroke-linecap:round;stroke-linejoin:round;stroke-miterlimit:10;" d="
		M270.248,267.507c-22.965,0-41.582-18.617-41.582-41.582s18.617-41.582,41.582-41.582s41.582,18.617,41.582,41.582"/>
	<path style="fill:none;stroke:#000000;stroke-width:8;stroke-linecap:round;stroke-linejoin:round;stroke-miterlimit:10;" d="
		M270.248,197.164c15.884,0,28.761,12.877,28.761,28.761s-12.877,28.761-28.761,28.761c-15.884,0-28.761-12.877-28.761-28.761"/>
</g>
<g>
</g>
<g>
</g>
<g>
</g>
<g>
</g>
<g>
</g>
<g>
</g>
<g>
</g>
<g>
</g>
<g>
</g>
<g>
</g>
<g>
</g>
<g>
</g>
<g>
</g>
<g>
</g>
<g>
</g>
</svg>
