<?xml version="1.0" encoding="iso-8859-1"?>
<!-- Generator: Adobe Illustrator 18.0.0, SVG Export Plug-In . SVG Version: 6.00 Build 0)  -->
<!DOCTYPE svg PUBLIC "-//W3C//DTD SVG 1.1//EN" "http://www.w3.org/Graphics/SVG/1.1/DTD/svg11.dtd">
<svg version="1.1" id="Capa_1" xmlns="http://www.w3.org/2000/svg" xmlns:xlink="http://www.w3.org/1999/xlink" x="0px" y="0px"
	 viewBox="0 0 446.495 446.495" style="enable-background:new 0 0 446.495 446.495;" xml:space="preserve">
<g>
	
		<line style="fill:none;stroke:#000000;stroke-width:8;stroke-miterlimit:10;" x1="253.624" y1="351.834" x2="192.86" y2="351.834"/>
	<path style="fill:none;stroke:#000000;stroke-width:8;stroke-miterlimit:10;" d="M176.472,275.316V114.373
		c0-39.924,14.814-78.428,41.565-108.056l0,0c2.786-3.089,7.633-3.089,10.42,0v0c26.75,29.629,41.565,68.132,41.565,108.056v160.971
		"/>
	<path style="fill:none;stroke:#000000;stroke-width:8;stroke-miterlimit:10;" d="M192.861,375.225V211.38
		c0-27.215,4.955-54.203,14.622-79.643l0,0c5.508-14.496,26.014-14.496,31.523,0l0,0c9.667,25.44,14.622,52.428,14.622,79.643
		v163.845"/>
	
		<line style="fill:none;stroke:#000000;stroke-width:8;stroke-miterlimit:10;" x1="230.78" y1="391.536" x2="215.706" y2="391.536"/>
	<path style="fill:none;stroke:#000000;stroke-width:8;stroke-miterlimit:10;" d="M253.625,391.536v-4.5v-11.811l64.333-9.892
		v-17.434c0-7.897-2.888-15.534-8.117-21.454L289.049,302.9c-22.826-25.867-35.424-59.171-35.424-93.664"/>
	<path style="fill:none;stroke:#000000;stroke-width:8;stroke-miterlimit:10;" d="M192.861,391.536v-4.5v-11.811l-64.323-9.892
		v-17.434c0-7.897,2.878-15.534,8.117-21.454l20.782-23.546c22.826-25.867,35.424-59.171,35.424-93.664"/>
	
		<line style="fill:none;stroke:#000000;stroke-width:8;stroke-miterlimit:10;" x1="317.958" y1="347.899" x2="253.625" y2="347.899"/>
	
		<line style="fill:none;stroke:#000000;stroke-width:8;stroke-miterlimit:10;" x1="192.861" y1="347.899" x2="128.538" y2="347.899"/>
	
		<line style="fill:none;stroke:#000000;stroke-width:8;stroke-miterlimit:10;" x1="191.902" y1="214.033" x2="250.909" y2="214.033"/>
	<line style="fill:none;stroke:#000000;stroke-width:8;stroke-miterlimit:10;" x1="203.095" y1="146.39" x2="243.393" y2="146.39"/>
	<path style="fill:none;stroke:#000000;stroke-width:8;stroke-miterlimit:10;" d="M206.813,191.725
		c0-7.816,6.336-14.152,14.152-14.152"/>
	<path style="fill:none;stroke:#000000;stroke-width:8;stroke-miterlimit:10;" d="M225.523,177.573
		c7.816,0,14.152,6.336,14.152,14.152"/>
	<path style="fill:none;stroke:#000000;stroke-width:8;stroke-linejoin:round;stroke-miterlimit:10;" d="M215.705,416.483h-22.844
		v-29.448c0-12.616,10.228-22.844,22.844-22.844h0V416.483z"/>
	<path style="fill:none;stroke:#000000;stroke-width:8;stroke-linejoin:round;stroke-miterlimit:10;" d="M253.628,416.483h-22.844
		v-52.292h0c12.616,0,22.844,10.228,22.844,22.844V416.483z"/>
	<line style="fill:none;stroke:#000000;stroke-width:8;stroke-miterlimit:10;" x1="178.661" y1="92.785" x2="265.01" y2="92.785"/>
	<path style="fill:none;stroke:#000000;stroke-width:8;stroke-miterlimit:10;" d="M134.255,329.526V121.042l17.232-38.408
		c1.497-3.349,6.256-3.349,7.753,0l17.232,38.408v154.274"/>
	<polyline style="fill:none;stroke:#000000;stroke-width:8;stroke-miterlimit:10;" points="176.472,372.703 176.472,394.521 
		134.255,394.521 134.255,366.217 	"/>
	<polygon style="fill:none;stroke:#000000;stroke-width:8;stroke-miterlimit:10;" points="180.568,430.024 130.162,430.024 
		134.258,394.493 176.472,394.493 	"/>
	<polyline style="fill:none;stroke:#000000;stroke-width:8;stroke-miterlimit:10;" points="168.106,430.022 168.873,442.495 
		141.854,442.495 142.622,430.022 	"/>
	<polyline style="fill:none;stroke:#000000;stroke-width:8;stroke-miterlimit:10;" points="303.872,430.022 304.639,442.495 
		277.62,442.495 278.388,430.022 	"/>
	<polygon style="fill:none;stroke:#000000;stroke-width:8;stroke-miterlimit:10;" points="316.333,430.024 265.927,430.024 
		270.023,394.493 312.237,394.493 	"/>
	
		<line style="fill:none;stroke:#000000;stroke-width:8;stroke-miterlimit:10;" x1="134.258" y1="121.042" x2="172.711" y2="121.042"/>
	<path style="fill:none;stroke:#000000;stroke-width:8;stroke-miterlimit:10;" d="M270.021,275.316V121.042l17.232-38.408
		c1.497-3.349,6.256-3.349,7.753,0l17.232,38.408v208.485"/>
	<polyline style="fill:none;stroke:#000000;stroke-width:8;stroke-miterlimit:10;" points="312.238,366.217 312.238,394.521 
		270.021,394.521 270.021,372.703 	"/>
	
		<line style="fill:none;stroke:#000000;stroke-width:8;stroke-miterlimit:10;" x1="312.236" y1="121.042" x2="273.783" y2="121.042"/>
</g>
<g>
</g>
<g>
</g>
<g>
</g>
<g>
</g>
<g>
</g>
<g>
</g>
<g>
</g>
<g>
</g>
<g>
</g>
<g>
</g>
<g>
</g>
<g>
</g>
<g>
</g>
<g>
</g>
<g>
</g>
</svg>
