<?xml version="1.0" encoding="iso-8859-1"?>
<!-- Generator: Adobe Illustrator 18.0.0, SVG Export Plug-In . SVG Version: 6.00 Build 0)  -->
<!DOCTYPE svg PUBLIC "-//W3C//DTD SVG 1.1//EN" "http://www.w3.org/Graphics/SVG/1.1/DTD/svg11.dtd">
<svg version="1.1" id="Capa_1" xmlns="http://www.w3.org/2000/svg" xmlns:xlink="http://www.w3.org/1999/xlink" x="0px" y="0px"
	 viewBox="0 0 402.584 402.584" style="enable-background:new 0 0 402.584 402.584;" xml:space="preserve">
<g>
	<circle style="fill:none;stroke:#000000;stroke-width:8;stroke-miterlimit:10;" cx="109.165" cy="294.297" r="42.084"/>
	<circle style="fill:none;stroke:#000000;stroke-width:8;stroke-miterlimit:10;" cx="109.165" cy="294.297" r="11.724"/>
	
		<line style="fill:none;stroke:#000000;stroke-width:8;stroke-linecap:round;stroke-miterlimit:10;" x1="91.562" y1="337.417" x2="94.139" y2="331.105"/>
	
		<line style="fill:none;stroke:#000000;stroke-width:8;stroke-linecap:round;stroke-miterlimit:10;" x1="124.191" y1="257.488" x2="126.768" y2="251.177"/>
	
		<line style="fill:none;stroke:#000000;stroke-width:8;stroke-linecap:round;stroke-miterlimit:10;" x1="72.515" y1="309.698" x2="66.234" y2="312.338"/>
	
		<line style="fill:none;stroke:#000000;stroke-width:8;stroke-linecap:round;stroke-miterlimit:10;" x1="152.096" y1="276.256" x2="145.815" y2="278.895"/>
	
		<line style="fill:none;stroke:#000000;stroke-width:8;stroke-linecap:round;stroke-miterlimit:10;" x1="72.356" y1="279.27" x2="66.045" y2="276.694"/>
	
		<line style="fill:none;stroke:#000000;stroke-width:8;stroke-linecap:round;stroke-miterlimit:10;" x1="152.285" y1="311.9" x2="145.974" y2="309.323"/>
	
		<line style="fill:none;stroke:#000000;stroke-width:8;stroke-linecap:round;stroke-miterlimit:10;" x1="93.764" y1="257.646" x2="91.124" y2="251.365"/>
	
		<line style="fill:none;stroke:#000000;stroke-width:8;stroke-linecap:round;stroke-miterlimit:10;" x1="127.206" y1="337.228" x2="124.566" y2="330.947"/>
	<circle style="fill:none;stroke:#000000;stroke-width:8;stroke-miterlimit:10;" cx="210.008" cy="294.297" r="42.084"/>
	
		<line style="fill:none;stroke:#000000;stroke-width:8;stroke-linecap:round;stroke-miterlimit:10;" x1="192.405" y1="337.417" x2="194.982" y2="331.105"/>
	
		<line style="fill:none;stroke:#000000;stroke-width:8;stroke-linecap:round;stroke-miterlimit:10;" x1="225.034" y1="257.488" x2="227.611" y2="251.177"/>
	
		<line style="fill:none;stroke:#000000;stroke-width:8;stroke-linecap:round;stroke-miterlimit:10;" x1="173.358" y1="309.698" x2="167.076" y2="312.338"/>
	
		<line style="fill:none;stroke:#000000;stroke-width:8;stroke-linecap:round;stroke-miterlimit:10;" x1="252.939" y1="276.256" x2="246.658" y2="278.895"/>
	
		<line style="fill:none;stroke:#000000;stroke-width:8;stroke-linecap:round;stroke-miterlimit:10;" x1="173.199" y1="279.27" x2="166.888" y2="276.694"/>
	
		<line style="fill:none;stroke:#000000;stroke-width:8;stroke-linecap:round;stroke-miterlimit:10;" x1="253.128" y1="311.9" x2="246.816" y2="309.323"/>
	
		<line style="fill:none;stroke:#000000;stroke-width:8;stroke-linecap:round;stroke-miterlimit:10;" x1="194.606" y1="257.646" x2="191.967" y2="251.365"/>
	
		<line style="fill:none;stroke:#000000;stroke-width:8;stroke-linecap:round;stroke-miterlimit:10;" x1="228.049" y1="337.228" x2="225.409" y2="330.947"/>
	<circle style="fill:none;stroke:#000000;stroke-width:8;stroke-miterlimit:10;" cx="310.851" cy="294.297" r="42.084"/>
	
		<line style="fill:none;stroke:#000000;stroke-width:8;stroke-linecap:round;stroke-miterlimit:10;" x1="293.248" y1="337.417" x2="295.824" y2="331.105"/>
	
		<line style="fill:none;stroke:#000000;stroke-width:8;stroke-linecap:round;stroke-miterlimit:10;" x1="325.877" y1="257.488" x2="328.453" y2="251.177"/>
	
		<line style="fill:none;stroke:#000000;stroke-width:8;stroke-linecap:round;stroke-miterlimit:10;" x1="274.2" y1="309.698" x2="267.919" y2="312.338"/>
	
		<line style="fill:none;stroke:#000000;stroke-width:8;stroke-linecap:round;stroke-miterlimit:10;" x1="353.782" y1="276.256" x2="347.501" y2="278.895"/>
	
		<line style="fill:none;stroke:#000000;stroke-width:8;stroke-linecap:round;stroke-miterlimit:10;" x1="274.042" y1="279.27" x2="267.73" y2="276.694"/>
	
		<line style="fill:none;stroke:#000000;stroke-width:8;stroke-linecap:round;stroke-miterlimit:10;" x1="353.971" y1="311.9" x2="347.659" y2="309.323"/>
	
		<line style="fill:none;stroke:#000000;stroke-width:8;stroke-linecap:round;stroke-miterlimit:10;" x1="295.449" y1="257.646" x2="292.81" y2="251.365"/>
	
		<line style="fill:none;stroke:#000000;stroke-width:8;stroke-linecap:round;stroke-miterlimit:10;" x1="328.892" y1="337.228" x2="326.252" y2="330.947"/>
	<circle style="fill:none;stroke:#000000;stroke-width:8;stroke-miterlimit:10;" cx="378.942" cy="258.9" r="15.137"/>
	
		<line style="fill:none;stroke:#000000;stroke-width:8;stroke-linecap:round;stroke-miterlimit:10;" x1="398.584" y1="259.066" x2="395.709" y2="259.042"/>
	
		<line style="fill:none;stroke:#000000;stroke-width:8;stroke-linecap:round;stroke-miterlimit:10;" x1="362.174" y1="258.759" x2="359.299" y2="258.734"/>
	
		<line style="fill:none;stroke:#000000;stroke-width:8;stroke-linecap:round;stroke-miterlimit:10;" x1="390.697" y1="270.856" x2="392.712" y2="272.905"/>
	
		<line style="fill:none;stroke:#000000;stroke-width:8;stroke-linecap:round;stroke-miterlimit:10;" x1="365.172" y1="244.896" x2="367.186" y2="246.945"/>
	
		<line style="fill:none;stroke:#000000;stroke-width:8;stroke-linecap:round;stroke-miterlimit:10;" x1="378.8" y1="275.668" x2="378.776" y2="278.543"/>
	
		<line style="fill:none;stroke:#000000;stroke-width:8;stroke-linecap:round;stroke-miterlimit:10;" x1="379.108" y1="239.258" x2="379.083" y2="242.133"/>
	
		<line style="fill:none;stroke:#000000;stroke-width:8;stroke-linecap:round;stroke-miterlimit:10;" x1="366.986" y1="270.656" x2="364.937" y2="272.67"/>
	
		<line style="fill:none;stroke:#000000;stroke-width:8;stroke-linecap:round;stroke-miterlimit:10;" x1="392.946" y1="245.13" x2="390.897" y2="247.145"/>
	
		<line style="fill:none;stroke:#000000;stroke-width:8;stroke-miterlimit:10;" x1="178.695" y1="266.175" x2="140.48" y2="266.175"/>
	<polyline style="fill:none;stroke:#000000;stroke-width:8;stroke-miterlimit:10;" points="79.822,264.111 65.792,152.853 
		354.219,152.853 340.189,264.121 	"/>
	
		<line style="fill:none;stroke:#000000;stroke-width:8;stroke-miterlimit:10;" x1="279.542" y1="266.175" x2="241.316" y2="266.175"/>
	<circle style="fill:none;stroke:#000000;stroke-width:8;stroke-miterlimit:10;" cx="210.008" cy="294.297" r="11.724"/>
	<circle style="fill:none;stroke:#000000;stroke-width:8;stroke-miterlimit:10;" cx="310.851" cy="294.297" r="11.724"/>
	<path style="fill:none;stroke:#000000;stroke-width:8;stroke-linejoin:round;stroke-miterlimit:10;" d="M51.581,152.853
		c37.073-26.713,94.267-43.841,158.424-43.841s121.352,17.128,158.424,43.841H51.581z"/>
	<line style="fill:none;stroke:#000000;stroke-width:8;stroke-miterlimit:10;" x1="67.515" y1="166.533" x2="67.515" y2="166.523"/>
	<line style="fill:none;stroke:#000000;stroke-width:8;stroke-miterlimit:10;" x1="352.084" y1="169.76" x2="352.084" y2="169.75"/>
	<polyline style="fill:none;stroke:#000000;stroke-width:8;stroke-miterlimit:10;" points="93.448,129.693 93.448,102.941 
		73.212,102.941 73.212,138.911 	"/>
	<polyline style="fill:none;stroke:#000000;stroke-width:8;stroke-miterlimit:10;" points="242.52,80.007 83.33,80.007 
		83.33,102.266 	"/>
	
		<line style="fill:none;stroke:#000000;stroke-width:8;stroke-linecap:round;stroke-miterlimit:10;" x1="242.52" y1="65.167" x2="242.52" y2="93.498"/>
	
		<line style="fill:none;stroke:#000000;stroke-width:8;stroke-linecap:round;stroke-miterlimit:10;" x1="227.68" y1="65.167" x2="227.68" y2="93.498"/>
	
		<line style="fill:none;stroke:#000000;stroke-width:8;stroke-linecap:round;stroke-miterlimit:10;" x1="212.84" y1="65.167" x2="212.84" y2="93.498"/>
	
		<line style="fill:none;stroke:#000000;stroke-width:8;stroke-linecap:round;stroke-miterlimit:10;" x1="198" y1="65.167" x2="198" y2="93.498"/>
	
		<line style="fill:none;stroke:#000000;stroke-width:8;stroke-linecap:round;stroke-miterlimit:10;" x1="183.161" y1="65.167" x2="183.161" y2="93.498"/>
	
		<line style="fill:none;stroke:#000000;stroke-width:8;stroke-linecap:round;stroke-miterlimit:10;" x1="168.321" y1="65.167" x2="168.321" y2="93.498"/>
	
		<line style="fill:none;stroke:#000000;stroke-width:8;stroke-linecap:round;stroke-miterlimit:10;" x1="153.481" y1="65.167" x2="153.481" y2="93.498"/>
	
		<line style="fill:none;stroke:#000000;stroke-width:8;stroke-linecap:round;stroke-miterlimit:10;" x1="138.642" y1="65.167" x2="138.642" y2="93.498"/>
	
		<line style="fill:none;stroke:#000000;stroke-width:8;stroke-linecap:round;stroke-miterlimit:10;" x1="123.802" y1="65.167" x2="123.802" y2="93.498"/>
	
		<line style="fill:none;stroke:#000000;stroke-width:8;stroke-linecap:round;stroke-miterlimit:10;" x1="108.962" y1="65.167" x2="108.962" y2="93.498"/>
	<polyline style="fill:none;stroke:#000000;stroke-width:8;stroke-linecap:round;stroke-miterlimit:10;" points="63.495,236.499 
		356.516,236.499 378.373,258.356 	"/>
	
		<line style="fill:none;stroke:#000000;stroke-width:8;stroke-linecap:round;stroke-miterlimit:10;" x1="352.305" y1="168.043" x2="67.707" y2="168.043"/>
	
		<line style="fill:none;stroke:#000000;stroke-width:8;stroke-linecap:round;stroke-miterlimit:10;" x1="116.931" y1="150.39" x2="116.931" y2="121.989"/>
	
		<line style="fill:none;stroke:#000000;stroke-width:8;stroke-linecap:round;stroke-miterlimit:10;" x1="178.981" y1="150.39" x2="178.981" y2="110.364"/>
	
		<line style="fill:none;stroke:#000000;stroke-width:8;stroke-linecap:round;stroke-miterlimit:10;" x1="241.031" y1="150.39" x2="241.031" y2="110.364"/>
	
		<line style="fill:none;stroke:#000000;stroke-width:8;stroke-linecap:round;stroke-miterlimit:10;" x1="303.069" y1="150.39" x2="303.069" y2="121.989"/>
	
		<line style="fill:none;stroke:#000000;stroke-width:8;stroke-linecap:round;stroke-miterlimit:10;" x1="92.866" y1="187.617" x2="24.559" y2="220.197"/>
	
		<circle style="fill:none;stroke:#000000;stroke-width:8;stroke-linecap:round;stroke-miterlimit:10;" cx="210.006" cy="203.829" r="15.011"/>
	
		<circle style="fill:none;stroke:#000000;stroke-width:8;stroke-linecap:round;stroke-miterlimit:10;" cx="136.751" cy="203.829" r="15.011"/>
	
		<circle style="fill:none;stroke:#000000;stroke-width:8;stroke-linecap:round;stroke-miterlimit:10;" cx="283.26" cy="203.829" r="15.011"/>
	<circle style="fill:none;stroke:#000000;stroke-width:8;stroke-miterlimit:10;" cx="14.808" cy="224.844" r="10.808"/>
</g>
<g>
</g>
<g>
</g>
<g>
</g>
<g>
</g>
<g>
</g>
<g>
</g>
<g>
</g>
<g>
</g>
<g>
</g>
<g>
</g>
<g>
</g>
<g>
</g>
<g>
</g>
<g>
</g>
<g>
</g>
</svg>
