<?xml version="1.0" encoding="iso-8859-1"?>
<!-- Generator: Adobe Illustrator 18.0.0, SVG Export Plug-In . SVG Version: 6.00 Build 0)  -->
<!DOCTYPE svg PUBLIC "-//W3C//DTD SVG 1.1//EN" "http://www.w3.org/Graphics/SVG/1.1/DTD/svg11.dtd">
<svg version="1.1" id="Capa_1" xmlns="http://www.w3.org/2000/svg" xmlns:xlink="http://www.w3.org/1999/xlink" x="0px" y="0px"
	 viewBox="0 0 312.103 312.103" style="enable-background:new 0 0 312.103 312.103;" xml:space="preserve">
<g>
	
		<circle style="fill:none;stroke:#000000;stroke-width:8;stroke-linecap:round;stroke-linejoin:round;stroke-miterlimit:10;" cx="176.017" cy="156.051" r="132.085"/>
	
		<circle style="fill:none;stroke:#000000;stroke-width:8;stroke-linecap:round;stroke-linejoin:round;stroke-miterlimit:10;" cx="23.633" cy="43.618" r="19.633"/>
	<path style="fill:none;stroke:#000000;stroke-width:8;stroke-linecap:round;stroke-linejoin:round;stroke-miterlimit:10;" d="
		M78.438,173.285l22.609-4.76l20.229,11.9l29.749,1.19l1.19,32.129c0,0-26.179,24.989-5.95,58.308
		c-28.559-7.14-30.939-30.939-30.939-30.939l-13.09-32.129L78.438,173.285z"/>
	<path style="fill:none;stroke:#000000;stroke-width:8;stroke-linecap:round;stroke-linejoin:round;stroke-miterlimit:10;" d="
		M304.72,126.222l0.607,3.034l-27.774-1.583l7.51,7.505c4.581,4.578,4.257,12.096-0.7,16.264c-4.332,3.643-8.824,7.171-9.976,7.171
		c-2.05,0-15.679-18.193-19.073-22.766c-0.482-0.649-0.631-1.486-0.403-2.262l2.516-8.57c0.631-2.148-0.344-4.443-2.328-5.48
		l-31.488-16.458l-16.801,5.597c-1.399,0.466-2.938,0.202-4.101-0.703l-7.203-5.6c-2.482-1.93-2.206-5.763,0.528-7.317l24.007-9.826
		l-20.824-10.412l12.358-16.331c4.066-5.373,10.477-8.451,17.212-8.263l17.826,0.498l-10.305,9.52l10.305,11.9l16.243-15.6"/>
	<path style="fill:none;stroke:#000000;stroke-width:8;stroke-linecap:round;stroke-linejoin:round;stroke-miterlimit:10;" d="
		M140.303,28.86c4.343,2.654,5.153,8.853,1.321,12.506l-16.778,31.962l-17.314,0.535c-3.927,3.736-10.353,2.535-12.661-2.368
		l-5.248-11.162c-0.535-1.13-0.773-2.332-0.762-3.522"/>
	<path style="fill:none;stroke:#000000;stroke-width:8;stroke-linecap:round;stroke-linejoin:round;stroke-miterlimit:10;" d="
		M75.284,70.628l-0.981,21.431c-0.184,4.008,2.805,7.458,6.798,7.848l0,0c8.971,0.876,15.581,9.296,13.653,18.101
		c-0.453,2.07-1.278,4.089-2.489,5.957l-11.877,18.334c-5.732,8.848-7.037,19.854-3.533,29.797l0,0l-32.533-11.9l-0.345-0.738"/>
	<path style="fill:none;stroke:#000000;stroke-width:8;stroke-linecap:round;stroke-linejoin:round;stroke-miterlimit:10;" d="
		M267.604,173.972l-6.865-0.687l-9.52-35.699l-39.269-7.14l-33.319,15.469l16.769,38.183l22.499,3.466l10.938,56.875
		c0.558,2.904,3.099,5.003,6.056,5.003h9.432c2.687,0,5.065-1.74,5.878-4.301l20.903-65.844
		C271.897,176.812,270.199,174.231,267.604,173.972z"/>
</g>
<g>
</g>
<g>
</g>
<g>
</g>
<g>
</g>
<g>
</g>
<g>
</g>
<g>
</g>
<g>
</g>
<g>
</g>
<g>
</g>
<g>
</g>
<g>
</g>
<g>
</g>
<g>
</g>
<g>
</g>
</svg>
