<?xml version="1.0" encoding="iso-8859-1"?>
<!-- Generator: Adobe Illustrator 18.0.0, SVG Export Plug-In . SVG Version: 6.00 Build 0)  -->
<!DOCTYPE svg PUBLIC "-//W3C//DTD SVG 1.1//EN" "http://www.w3.org/Graphics/SVG/1.1/DTD/svg11.dtd">
<svg version="1.1" id="Capa_1" xmlns="http://www.w3.org/2000/svg" xmlns:xlink="http://www.w3.org/1999/xlink" x="0px" y="0px"
	 viewBox="0 0 409.268 409.268" style="enable-background:new 0 0 409.268 409.268;" xml:space="preserve">
<g>
	<polygon style="fill:none;stroke:#000000;stroke-width:8;stroke-linejoin:round;stroke-miterlimit:10;" points="217.427,277.311 
		191.851,277.311 191.851,58.861 204.639,23.836 217.427,58.861 	"/>
	
		<line style="fill:none;stroke:#000000;stroke-width:8;stroke-linecap:round;stroke-linejoin:round;stroke-miterlimit:10;" x1="191.851" y1="311.412" x2="191.851" y2="287.894"/>
	
		<line style="fill:none;stroke:#000000;stroke-width:8;stroke-linecap:round;stroke-linejoin:round;stroke-miterlimit:10;" x1="217.427" y1="288.482" x2="217.427" y2="313.176"/>
	<path style="fill:none;stroke:#000000;stroke-width:8;stroke-linecap:round;stroke-linejoin:round;stroke-miterlimit:10;" d="
		M53.094,307.394c-7.583,7.583-7.583,19.856,0,27.439"/>
	<path style="fill:none;stroke:#000000;stroke-width:8;stroke-linecap:round;stroke-linejoin:round;stroke-miterlimit:10;" d="
		M36.925,341.397c-7.245-7.245-18.969-7.245-26.214,0"/>
	<path style="fill:none;stroke:#000000;stroke-width:8;stroke-linecap:round;stroke-linejoin:round;stroke-miterlimit:10;" d="
		M103.364,343.749c-10.724,0-19.402,8.678-19.402,19.402"/>
	<path style="fill:none;stroke:#000000;stroke-width:8;stroke-linecap:round;stroke-linejoin:round;stroke-miterlimit:10;" d="
		M154.516,375.44c0-7.475-6.048-13.523-13.523-13.523"/>
	<path style="fill:none;stroke:#000000;stroke-width:8;stroke-linecap:round;stroke-linejoin:round;stroke-miterlimit:10;" d="
		M360.142,336.244c-7.583-7.583-7.583-19.856,0-27.439"/>
	<path style="fill:none;stroke:#000000;stroke-width:8;stroke-linecap:round;stroke-linejoin:round;stroke-miterlimit:10;" d="
		M219.181,343.455c0.952,0,1.87-0.137,2.747-0.373"/>
	<path style="fill:none;stroke:#000000;stroke-width:8;stroke-linecap:round;stroke-linejoin:round;stroke-miterlimit:10;" d="
		M190.087,322.289c-5.372,0-9.799,4.006-10.481,9.192c-0.878-0.236-1.796-0.373-2.748-0.373c-5.845,0-10.583,4.738-10.583,10.583
		c0,4.491,2.802,8.319,6.748,9.856c-0.181,0.269-0.342,0.552-0.506,0.833c-2.836-2.958-6.818-4.809-11.24-4.809
		c-8.5,0-15.397,6.809-15.565,15.268c-1.925-0.737-4.006-1.157-6.189-1.157c-3.683,0-7.091,1.156-9.899,3.113
		c-1.507-12.03-11.764-21.339-24.202-21.339c-2.473,0-4.859,0.371-7.109,1.055c0.034-0.347,0.053-0.699,0.053-1.055
		c0-5.176-3.719-9.478-8.629-10.395c1.199-2.761,1.868-5.805,1.868-9.007c0-12.502-10.135-22.636-22.636-22.636
		c-7.409,0-13.985,3.56-18.115,9.061c-4.151-4.826-10.298-7.886-17.162-7.886c-12.502,0-22.636,10.135-22.636,22.636
		c0,4.817,1.508,9.28,4.073,12.949C8.535,341.445,4,348.239,4,356.096c0,9.286,6.332,17.092,14.914,19.338
		c-0.519,1.794-0.803,3.688-0.803,5.65c0,1.493,0.166,2.946,0.472,4.348h372.102c0.306-1.401,0.472-2.855,0.472-4.348
		c0-1.962-0.284-3.856-0.803-5.65c8.582-2.247,14.914-10.052,14.914-19.338c0-7.857-4.535-14.652-11.128-17.919
		c2.565-3.669,4.073-8.132,4.073-12.949c0-12.502-10.135-22.636-22.636-22.636c-6.865,0-13.011,3.06-17.162,7.886
		c-4.13-5.502-10.706-9.061-18.115-9.061c-12.502,0-22.636,10.135-22.636,22.636c0,3.202,0.668,6.246,1.868,9.007
		c-4.91,0.918-8.629,5.219-8.629,10.395c0,0.356,0.019,0.708,0.053,1.055c-2.25-0.684-4.635-1.055-7.109-1.055
		c-12.439,0-22.695,9.309-24.202,21.339c-2.808-1.957-6.217-3.113-9.899-3.113c-1.317,0-2.591,0.169-3.822,0.452
		c-0.819,0.144-1.611,0.362-2.372,0.646c-0.199-8.432-7.081-15.209-15.561-15.209c-4.422,0-8.404,1.85-11.24,4.809
		c-0.164-0.281-0.325-0.563-0.506-0.833c3.947-1.537,6.748-5.365,6.748-9.856c0-5.845-4.738-10.583-10.583-10.583
		c-0.952,0-1.87,0.137-2.748,0.373c-0.682-5.186-5.109-9.192-10.481-9.192"/>
	<path style="fill:none;stroke:#000000;stroke-width:8;stroke-linecap:round;stroke-linejoin:round;stroke-miterlimit:10;" d="
		M201.229,357.069c-1.389-6.764-7.163-11.92-14.223-12.385"/>
	<path style="fill:none;stroke:#000000;stroke-width:8;stroke-linecap:round;stroke-linejoin:round;stroke-miterlimit:10;" d="
		M318.501,330.132c1.389,6.764,7.163,11.92,14.223,12.385"/>
	<path style="fill:none;stroke:#000000;stroke-width:8;stroke-linecap:round;stroke-linejoin:round;stroke-miterlimit:10;" d="
		M225.331,367.214c-3.847-6.242-11.174-9.912-18.877-8.731c-8.215,1.26-14.37,7.655-15.698,15.421"/>
	<path style="fill:none;stroke:#000000;stroke-width:8;stroke-linecap:round;stroke-linejoin:round;stroke-miterlimit:10;" d="
		M385.62,304.941c0.362-1.605,0.547-3.281,0.547-4.992c0-12.832-10.398-23.23-23.221-23.23c-12.823,0-23.221,10.398-23.221,23.23
		c0,0.494,0.018,0.988,0.053,1.473"/>
	
		<line style="fill:none;stroke:#000000;stroke-width:8;stroke-linecap:round;stroke-linejoin:round;stroke-miterlimit:10;" x1="191.851" y1="58.861" x2="213.899" y2="58.861"/>
	
		<line style="fill:none;stroke:#000000;stroke-width:8;stroke-linecap:round;stroke-linejoin:round;stroke-miterlimit:10;" x1="191.851" y1="72.09" x2="213.899" y2="72.09"/>
	
		<polyline style="fill:none;stroke:#000000;stroke-width:8;stroke-linecap:round;stroke-linejoin:round;stroke-miterlimit:10;" points="
		191.851,194.718 177.299,218.221 177.299,277.311 191.851,277.311 217.427,277.311 231.979,277.311 231.979,218.221 
		217.427,194.718 	"/>
</g>
<g>
</g>
<g>
</g>
<g>
</g>
<g>
</g>
<g>
</g>
<g>
</g>
<g>
</g>
<g>
</g>
<g>
</g>
<g>
</g>
<g>
</g>
<g>
</g>
<g>
</g>
<g>
</g>
<g>
</g>
</svg>
