<?xml version="1.0" encoding="iso-8859-1"?>
<!-- Generator: Adobe Illustrator 18.0.0, SVG Export Plug-In . SVG Version: 6.00 Build 0)  -->
<!DOCTYPE svg PUBLIC "-//W3C//DTD SVG 1.1//EN" "http://www.w3.org/Graphics/SVG/1.1/DTD/svg11.dtd">
<svg version="1.1" id="Capa_1" xmlns="http://www.w3.org/2000/svg" xmlns:xlink="http://www.w3.org/1999/xlink" x="0px" y="0px"
	 viewBox="0 0 463 463" style="enable-background:new 0 0 463 463;" xml:space="preserve">
<g>
	<path style="fill:none;stroke:#000000;stroke-width:8;stroke-linecap:round;stroke-linejoin:round;stroke-miterlimit:10;" d="
		M308.636,209.495L308.636,209.495c-49.383,20.49-104.889,20.49-154.272,0l0,0c-6.797-2.82-14.148-4.081-21.494-3.639
		C84.281,208.781,38.32,229.588,4,264.5l0,0l0,0c148.692,42.483,306.308,42.483,455,0l0,0l0,0
		c-34.32-34.912-80.281-55.719-128.87-58.643C322.784,205.414,315.433,206.675,308.636,209.495z"/>
	<path style="fill:none;stroke:#000000;stroke-width:8;stroke-linecap:round;stroke-linejoin:round;stroke-miterlimit:10;" d="
		M140.45,206c13.63-37.06,49.25-63.5,91.05-63.5s77.42,26.44,91.05,63.5"/>
	<path style="fill:none;stroke:#000000;stroke-width:8;stroke-linecap:round;stroke-linejoin:round;stroke-miterlimit:10;" d="
		M253.735,162.217c14.863,4.128,29.469,12.871,36.607,27.036"/>
	<path style="fill:none;stroke:#000000;stroke-width:8;stroke-linecap:round;stroke-linejoin:round;stroke-miterlimit:10;" d="
		M231.5,159.247c1.553,0,3.105,0.041,4.656,0.124"/>
	
		<line style="fill:none;stroke:#000000;stroke-width:8;stroke-linecap:round;stroke-linejoin:round;stroke-miterlimit:10;" x1="8" y1="260.5" x2="453" y2="260.5"/>
	<path style="fill:none;stroke:#000000;stroke-width:8;stroke-linecap:round;stroke-linejoin:round;stroke-miterlimit:10;" d="
		M150.65,292.4c9.28,16.16,41.96,28.1,80.85,28.1s71.57-11.94,80.85-28.1"/>
	<path style="fill:none;stroke:#000000;stroke-width:8;stroke-linecap:round;stroke-linejoin:round;stroke-miterlimit:10;" d="
		M59.67,278.34c1.41,11.92,11.54,21.16,23.83,21.16c9.24,0,17.27-5.23,21.28-12.9"/>
	<path style="fill:none;stroke:#000000;stroke-width:8;stroke-linecap:round;stroke-linejoin:round;stroke-miterlimit:10;" d="
		M358.22,286.6c4.01,7.67,12.04,12.9,21.28,12.9c12.29,0,22.42-9.24,23.83-21.16"/>
	<path style="fill:none;stroke:#000000;stroke-width:8;stroke-linejoin:round;stroke-miterlimit:10;" d="M210.43,296.09
		c4.08,7.4,11.97,12.41,21.01,12.41c9.04,0,16.92-5.01,21.01-12.41"/>
	
		<ellipse style="fill:none;stroke:#000000;stroke-width:8;stroke-linecap:round;stroke-linejoin:round;stroke-miterlimit:10;" cx="106" cy="237" rx="16.5" ry="10.5"/>
	
		<ellipse style="fill:none;stroke:#000000;stroke-width:8;stroke-linecap:round;stroke-linejoin:round;stroke-miterlimit:10;" cx="357" cy="237" rx="16.5" ry="10.5"/>
</g>
<g>
</g>
<g>
</g>
<g>
</g>
<g>
</g>
<g>
</g>
<g>
</g>
<g>
</g>
<g>
</g>
<g>
</g>
<g>
</g>
<g>
</g>
<g>
</g>
<g>
</g>
<g>
</g>
<g>
</g>
</svg>
