<?xml version="1.0" encoding="iso-8859-1"?>
<!-- Generator: Adobe Illustrator 18.0.0, SVG Export Plug-In . SVG Version: 6.00 Build 0)  -->
<!DOCTYPE svg PUBLIC "-//W3C//DTD SVG 1.1//EN" "http://www.w3.org/Graphics/SVG/1.1/DTD/svg11.dtd">
<svg version="1.1" id="Capa_1" xmlns="http://www.w3.org/2000/svg" xmlns:xlink="http://www.w3.org/1999/xlink" x="0px" y="0px"
	 viewBox="0 0 396 396" style="enable-background:new 0 0 396 396;" xml:space="preserve">
<g>
	
		<rect x="103.771" y="217.172" style="fill:none;stroke:#000000;stroke-width:8;stroke-linejoin:round;stroke-miterlimit:10;" width="188.457" height="83.836"/>
	
		<line style="fill:none;stroke:#000000;stroke-width:8;stroke-linejoin:round;stroke-miterlimit:10;" x1="198" y1="235.186" x2="198" y2="340.957"/>
	<g>
		<polyline style="fill:none;stroke:#000000;stroke-width:8;stroke-linejoin:round;stroke-miterlimit:10;" points="160.586,300.315 
			198,234.84 164.05,216.826 		"/>
		<polyline style="fill:none;stroke:#000000;stroke-width:8;stroke-linejoin:round;stroke-miterlimit:10;" points="235.414,300.315 
			198,234.84 231.95,216.826 		"/>
	</g>
	<path style="fill:none;stroke:#000000;stroke-width:8;stroke-linejoin:round;stroke-miterlimit:10;" d="M146.493,83.264
		c-5.134,8.806-8.079,19.047-8.079,29.98c0,19.573,9.437,36.943,24.007,47.807"/>
	<path style="fill:none;stroke:#000000;stroke-width:8;stroke-linejoin:round;stroke-miterlimit:10;" d="M249.507,83.264
		c5.134,8.806,8.079,19.047,8.079,29.98c0,19.573-9.437,36.943-24.008,47.807"/>
	<polygon style="fill:none;stroke:#000000;stroke-width:8;stroke-linejoin:round;stroke-miterlimit:10;" points="249.271,161.051 
		146.729,161.051 131.139,200.543 264.861,200.543 	"/>
	<g>
		
			<line style="fill:none;stroke:#000000;stroke-width:8;stroke-linejoin:round;stroke-miterlimit:10;" x1="155.496" y1="161.051" x2="147.768" y2="200.543"/>
		
			<line style="fill:none;stroke:#000000;stroke-width:8;stroke-linejoin:round;stroke-miterlimit:10;" x1="184.2" y1="161.051" x2="180.888" y2="200.543"/>
		
			<line style="fill:none;stroke:#000000;stroke-width:8;stroke-linejoin:round;stroke-miterlimit:10;" x1="211.8" y1="161.051" x2="215.112" y2="200.543"/>
		
			<line style="fill:none;stroke:#000000;stroke-width:8;stroke-linejoin:round;stroke-miterlimit:10;" x1="240.504" y1="161.051" x2="248.232" y2="200.543"/>
	</g>
	<polyline style="fill:none;stroke:#000000;stroke-width:8;stroke-linejoin:round;stroke-miterlimit:10;" points="220.456,301.008 
		223.289,320.408 172.711,320.408 175.544,301.008 	"/>
	
		<line style="fill:none;stroke:#000000;stroke-width:8;stroke-linejoin:round;stroke-miterlimit:10;" x1="137.049" y1="200.543" x2="133.107" y2="217.172"/>
	
		<line style="fill:none;stroke:#000000;stroke-width:8;stroke-linejoin:round;stroke-miterlimit:10;" x1="262.893" y1="217.172" x2="258.951" y2="200.543"/>
	<path style="fill:none;stroke:#000000;stroke-width:8;stroke-linejoin:round;stroke-miterlimit:10;" d="M198,34.951L198,34.951
		c-16.575,0-31.743,9.318-39.236,24.103l-13.768,27.168h106.007l-13.768-27.168C229.743,44.268,214.575,34.951,198,34.951z"/>
	
		<line style="fill:none;stroke:#000000;stroke-width:8;stroke-linejoin:round;stroke-miterlimit:10;" x1="165.436" y1="50.193" x2="230.564" y2="50.193"/>
	<g>
		
			<line style="fill:none;stroke:#000000;stroke-width:8;stroke-linejoin:round;stroke-miterlimit:10;" x1="198" y1="86.222" x2="198" y2="48.808"/>
		
			<line style="fill:none;stroke:#000000;stroke-width:8;stroke-linejoin:round;stroke-miterlimit:10;" x1="179.639" y1="51.579" x2="167.168" y2="86.222"/>
		
			<line style="fill:none;stroke:#000000;stroke-width:8;stroke-linejoin:round;stroke-miterlimit:10;" x1="216.361" y1="51.579" x2="228.832" y2="86.222"/>
	</g>
	<g>
		
			<line style="fill:none;stroke:#000000;stroke-width:8;stroke-linejoin:round;stroke-miterlimit:10;" x1="182.411" y1="161.051" x2="182.411" y2="86.222"/>
		
			<line style="fill:none;stroke:#000000;stroke-width:8;stroke-linejoin:round;stroke-miterlimit:10;" x1="213.589" y1="161.051" x2="213.589" y2="86.222"/>
	</g>
	<polyline style="fill:none;stroke:#000000;stroke-width:8;stroke-linejoin:round;stroke-miterlimit:10;" points="182.411,100.772 
		139.454,119.479 182.411,158.279 	"/>
	<polyline style="fill:none;stroke:#000000;stroke-width:8;stroke-linejoin:round;stroke-miterlimit:10;" points="213.589,100.772 
		256.546,119.479 213.589,158.279 	"/>
	<polyline style="fill:none;stroke:#000000;stroke-width:8;stroke-linejoin:round;stroke-miterlimit:10;" points="141.193,131.258 
		112.779,131.258 112.779,200.543 131.139,200.543 	"/>
	<path style="fill:none;stroke:#000000;stroke-width:8;stroke-linejoin:round;stroke-miterlimit:10;" d="M112.779,190.643
		C105.587,184.802,101,175.885,101,165.901c0-9.984,4.587-18.901,11.779-24.742"/>
	<polyline style="fill:none;stroke:#000000;stroke-width:8;stroke-linejoin:round;stroke-miterlimit:10;" points="26.171,338.878 
		68.436,235.879 103.771,220.636 	"/>
	
		<line style="fill:none;stroke:#000000;stroke-width:8;stroke-linejoin:round;stroke-miterlimit:10;" x1="103.217" y1="279.529" x2="68.436" y2="235.879"/>
	<polyline style="fill:none;stroke:#000000;stroke-width:8;stroke-linejoin:round;stroke-miterlimit:10;" points="103.009,301.008 
		71.9,301.008 36.465,312.093 	"/>
	<path style="fill:none;stroke:#000000;stroke-width:8;stroke-linejoin:round;stroke-miterlimit:10;" d="M26.171,361.049h-2.079
		C12.996,361.049,4,352.054,4,340.957v0h42.264v0C46.264,352.054,37.268,361.049,26.171,361.049z"/>
	<polyline style="fill:none;stroke:#000000;stroke-width:8;stroke-linejoin:round;stroke-miterlimit:10;" points="369.829,338.878 
		327.564,235.879 292.229,220.636 	"/>
	
		<line style="fill:none;stroke:#000000;stroke-width:8;stroke-linejoin:round;stroke-miterlimit:10;" x1="292.783" y1="279.529" x2="327.564" y2="235.879"/>
	<polyline style="fill:none;stroke:#000000;stroke-width:8;stroke-linejoin:round;stroke-miterlimit:10;" points="292.991,301.008 
		324.1,301.008 359.535,312.093 	"/>
	<path style="fill:none;stroke:#000000;stroke-width:8;stroke-linejoin:round;stroke-miterlimit:10;" d="M369.829,361.049h2.079
		c11.097,0,20.093-8.996,20.093-20.093v0h-42.264v0C349.736,352.054,358.732,361.049,369.829,361.049z"/>
	<path style="fill:none;stroke:#000000;stroke-width:8;stroke-linejoin:round;stroke-miterlimit:10;" d="M198.693,361.049h-2.079
		c-11.097,0-20.093-8.996-20.093-20.093v0h42.264v0C218.786,352.054,209.79,361.049,198.693,361.049z"/>
	
		<line style="fill:none;stroke:#000000;stroke-width:8;stroke-linecap:round;stroke-linejoin:round;stroke-miterlimit:10;" x1="122.132" y1="217.865" x2="122.132" y2="300.315"/>
	
		<line style="fill:none;stroke:#000000;stroke-width:8;stroke-linecap:round;stroke-linejoin:round;stroke-miterlimit:10;" x1="273.868" y1="217.865" x2="273.868" y2="300.315"/>
	
		<circle style="fill:none;stroke:#000000;stroke-width:8;stroke-linejoin:round;stroke-miterlimit:10;" cx="149.333" cy="249.716" r="12"/>
	
		<circle style="fill:none;stroke:#000000;stroke-width:8;stroke-linejoin:round;stroke-miterlimit:10;" cx="248" cy="249.716" r="12"/>
</g>
<g>
</g>
<g>
</g>
<g>
</g>
<g>
</g>
<g>
</g>
<g>
</g>
<g>
</g>
<g>
</g>
<g>
</g>
<g>
</g>
<g>
</g>
<g>
</g>
<g>
</g>
<g>
</g>
<g>
</g>
</svg>
