<?xml version="1.0" encoding="iso-8859-1"?>
<!-- Generator: Adobe Illustrator 18.0.0, SVG Export Plug-In . SVG Version: 6.00 Build 0)  -->
<!DOCTYPE svg PUBLIC "-//W3C//DTD SVG 1.1//EN" "http://www.w3.org/Graphics/SVG/1.1/DTD/svg11.dtd">
<svg version="1.1" id="Capa_1" xmlns="http://www.w3.org/2000/svg" xmlns:xlink="http://www.w3.org/1999/xlink" x="0px" y="0px"
	 viewBox="0 0 368.258 368.258" style="enable-background:new 0 0 368.258 368.258;" xml:space="preserve">
<g>
	
		<line style="fill:none;stroke:#000000;stroke-width:8;stroke-linecap:round;stroke-linejoin:round;stroke-miterlimit:10;" x1="269.227" y1="38.252" x2="168.148" y2="105.313"/>
	
		<line style="fill:none;stroke:#000000;stroke-width:8;stroke-linecap:round;stroke-linejoin:round;stroke-miterlimit:10;" x1="291.653" y1="72.053" x2="190.574" y2="139.114"/>
	
		<polyline style="fill:none;stroke:#000000;stroke-width:8;stroke-linecap:round;stroke-linejoin:round;stroke-miterlimit:10;" points="
		175.781,148.929 119.263,186.426 96.838,152.624 153.355,115.128 	"/>
	
		<polyline style="fill:none;stroke:#000000;stroke-width:8;stroke-linecap:round;stroke-linejoin:round;stroke-miterlimit:10;" points="
		99.335,156.388 59.718,182.672 64.118,189.304 72.749,202.314 77.149,208.946 116.766,182.662 	"/>
	
		<line style="fill:none;stroke:#000000;stroke-width:8;stroke-linecap:round;stroke-linejoin:round;stroke-miterlimit:10;" x1="72.78" y1="202.363" x2="59.962" y2="210.874"/>
	
		<line style="fill:none;stroke:#000000;stroke-width:8;stroke-linecap:round;stroke-linejoin:round;stroke-miterlimit:10;" x1="64.156" y1="189.343" x2="51.327" y2="197.855"/>
	
		<polyline style="fill:none;stroke:#000000;stroke-width:8;stroke-linecap:round;stroke-linejoin:round;stroke-miterlimit:10;" points="
		64.156,189.343 29.146,212.578 50.98,216.828 72.78,202.363 	"/>
	
		<rect x="276.02" y="14.286" transform="matrix(0.8333 -0.5528 0.5528 0.8333 28.0478 174.0034)" style="fill:none;stroke:#000000;stroke-width:8;stroke-linecap:round;stroke-linejoin:round;stroke-miterlimit:10;" width="53.021" height="52.421"/>
	
		<rect x="177.315" y="95.06" transform="matrix(0.8333 -0.5528 0.5528 0.8333 -51.0926 127.7018)" style="fill:none;stroke:#000000;stroke-width:8;stroke-linecap:round;stroke-linejoin:round;stroke-miterlimit:10;" width="17.749" height="107.011"/>
	
		<line style="fill:none;stroke:#000000;stroke-width:8;stroke-linecap:round;stroke-linejoin:round;stroke-miterlimit:10;" x1="218.147" y1="152.015" x2="205.998" y2="160.075"/>
	
		<line style="fill:none;stroke:#000000;stroke-width:8;stroke-linecap:round;stroke-linejoin:round;stroke-miterlimit:10;" x1="212.365" y1="143.299" x2="223.93" y2="160.731"/>
	<polyline style="fill:none;stroke:#000000;stroke-width:8;stroke-linejoin:round;stroke-miterlimit:10;" points="184.842,199.979 
		185.165,199.76 202.062,188.549 	"/>
	<polyline style="fill:none;stroke:#000000;stroke-width:8;stroke-linejoin:round;stroke-miterlimit:10;" points="169.153,210.381 
		158.227,217.636 149.812,204.952 166.053,194.178 176.75,187.085 193.656,175.865 	"/>
	
		<line style="fill:none;stroke:#000000;stroke-width:8;stroke-linecap:round;stroke-linejoin:round;stroke-miterlimit:10;" x1="258.91" y1="45.474" x2="280.463" y2="77.96"/>
	<path style="fill:none;stroke:#000000;stroke-width:8;stroke-linecap:round;stroke-linejoin:round;stroke-miterlimit:10;" d="
		M184.844,315.785h-15.688V195.936c0-3.863,3.132-6.995,6.995-6.995h1.698c3.863,0,6.995,3.132,6.995,6.995V315.785z"/>
	<polyline style="fill:none;stroke:#000000;stroke-width:8;stroke-linejoin:round;stroke-miterlimit:10;" points="184.84,274.199 
		191.277,280.636 274.888,364.258 246.337,364.258 184.84,302.749 	"/>
	<polyline style="fill:none;stroke:#000000;stroke-width:8;stroke-linejoin:round;stroke-miterlimit:10;" points="169.152,302.761 
		107.655,364.258 79.115,364.258 162.726,280.636 169.152,274.21 	"/>
</g>
<g>
</g>
<g>
</g>
<g>
</g>
<g>
</g>
<g>
</g>
<g>
</g>
<g>
</g>
<g>
</g>
<g>
</g>
<g>
</g>
<g>
</g>
<g>
</g>
<g>
</g>
<g>
</g>
<g>
</g>
</svg>
