<?xml version="1.0" encoding="iso-8859-1"?>
<!-- Generator: Adobe Illustrator 18.0.0, SVG Export Plug-In . SVG Version: 6.00 Build 0)  -->
<!DOCTYPE svg PUBLIC "-//W3C//DTD SVG 1.1//EN" "http://www.w3.org/Graphics/SVG/1.1/DTD/svg11.dtd">
<svg version="1.1" id="Capa_1" xmlns="http://www.w3.org/2000/svg" xmlns:xlink="http://www.w3.org/1999/xlink" x="0px" y="0px"
	 viewBox="0 0 367.997 367.997" style="enable-background:new 0 0 367.997 367.997;" xml:space="preserve">
<g>
	
		<line style="fill:none;stroke:#000000;stroke-width:8;stroke-linecap:round;stroke-linejoin:round;stroke-miterlimit:10;" x1="75.054" y1="181.025" x2="292.347" y2="181.025"/>
	<path style="fill:none;stroke:#000000;stroke-width:8;stroke-linecap:round;stroke-linejoin:round;stroke-miterlimit:10;" d="
		M220.697,4.874v128.446H147.3V4.874c-50.283,15.635-86.796,62.539-86.796,117.96c0,21.041,5.266,40.846,14.551,58.194v182.97
		h217.886v-182.97c9.285-17.347,14.551-37.153,14.551-58.194C307.493,67.413,270.981,20.509,220.697,4.874z"/>
	
		<line style="fill:none;stroke:#000000;stroke-width:8;stroke-linecap:round;stroke-linejoin:round;stroke-miterlimit:10;" x1="220.115" y1="13.32" x2="203.35" y2="13.32"/>
	
		<line style="fill:none;stroke:#000000;stroke-width:8;stroke-linecap:round;stroke-linejoin:round;stroke-miterlimit:10;" x1="164.647" y1="13.32" x2="149.048" y2="13.32"/>
	
		<ellipse style="fill:none;stroke:#000000;stroke-width:8;stroke-linecap:round;stroke-linejoin:round;stroke-miterlimit:10;" cx="183.999" cy="19.146" rx="20.971" ry="15.146"/>
	<path style="fill:none;stroke:#000000;stroke-width:8;stroke-linecap:round;stroke-linejoin:round;stroke-miterlimit:10;" d="
		M204.969,19.146v64.077c0,8.365-9.389,15.146-20.971,15.146c-11.582,0-20.971-6.781-20.971-15.146V19.146"/>
	
		<line style="fill:none;stroke:#000000;stroke-width:8;stroke-linejoin:round;stroke-miterlimit:10;" x1="170.799" y1="133.319" x2="170.799" y2="94.99"/>
	
		<line style="fill:none;stroke:#000000;stroke-width:8;stroke-linejoin:round;stroke-miterlimit:10;" x1="197.199" y1="133.319" x2="197.199" y2="94.99"/>
	
		<line style="fill:none;stroke:#000000;stroke-width:8;stroke-linejoin:round;stroke-miterlimit:10;" x1="74.485" y1="204.387" x2="290.017" y2="204.387"/>
	
		<line style="fill:none;stroke:#000000;stroke-width:8;stroke-linejoin:round;stroke-miterlimit:10;" x1="74.485" y1="279.532" x2="290.017" y2="279.532"/>
	
		<line style="fill:none;stroke:#000000;stroke-width:8;stroke-linecap:round;stroke-linejoin:round;stroke-miterlimit:10;stroke-dasharray:14,14;" x1="93.941" y1="241.959" x2="279.183" y2="241.959"/>
	
		<polyline style="fill:none;stroke:#000000;stroke-width:8;stroke-linecap:round;stroke-linejoin:round;stroke-miterlimit:10;" points="
		180.503,363.997 180.503,306.91 102.446,306.91 102.446,363.997 	"/>
	<path style="fill:none;stroke:#000000;stroke-width:8;stroke-linecap:round;stroke-linejoin:round;stroke-miterlimit:10;" d="
		M254.22,41.891c-4.812-4.174-9.999-7.926-15.504-11.199"/>
	<path style="fill:none;stroke:#000000;stroke-width:8;stroke-linecap:round;stroke-linejoin:round;stroke-miterlimit:10;" d="
		M291.204,122.89c0-26.428-9.564-50.621-25.421-69.308"/>
</g>
<g>
</g>
<g>
</g>
<g>
</g>
<g>
</g>
<g>
</g>
<g>
</g>
<g>
</g>
<g>
</g>
<g>
</g>
<g>
</g>
<g>
</g>
<g>
</g>
<g>
</g>
<g>
</g>
<g>
</g>
</svg>
