<?xml version="1.0" encoding="iso-8859-1"?>
<!-- Generator: Adobe Illustrator 18.0.0, SVG Export Plug-In . SVG Version: 6.00 Build 0)  -->
<!DOCTYPE svg PUBLIC "-//W3C//DTD SVG 1.1//EN" "http://www.w3.org/Graphics/SVG/1.1/DTD/svg11.dtd">
<svg version="1.1" id="Capa_1" xmlns="http://www.w3.org/2000/svg" xmlns:xlink="http://www.w3.org/1999/xlink" x="0px" y="0px"
	 viewBox="0 0 398.999 398.999" style="enable-background:new 0 0 398.999 398.999;" xml:space="preserve">
<g>
	<polyline style="fill:none;stroke:#000000;stroke-width:8;stroke-linejoin:round;stroke-miterlimit:10;" points="126.625,112.442 
		199.502,39.565 272.38,112.442 	"/>
	<polyline style="fill:none;stroke:#000000;stroke-width:8;stroke-linejoin:round;stroke-miterlimit:10;" points="172.796,112.442 
		199.502,39.565 226.209,112.442 	"/>
	
		<polyline style="fill:none;stroke:#000000;stroke-width:8;stroke-linecap:round;stroke-linejoin:round;stroke-miterlimit:10;" points="
		199.503,25.308 199.503,39.563 199.503,45.476 	"/>
	<path style="fill:none;stroke:#000000;stroke-width:8;stroke-linejoin:round;stroke-miterlimit:10;" d="M177.374,212.966
		c-54.122-8.651-97.803-48.497-112.058-100.53h61.324h46.153h53.419h46.153h61.313c-13.957,51.011-56.221,90.324-108.851,99.998"/>
	<path style="fill:none;stroke:#000000;stroke-width:8;stroke-linejoin:round;stroke-miterlimit:10;" d="M179.197,208.814
		c7.753-17.693,32.852-17.693,40.605,0l13.437,30.664l33.74,76.995h-67.48h-67.48l33.74-76.995L179.197,208.814z"/>
	
		<rect x="112.386" y="316.474" style="fill:none;stroke:#000000;stroke-width:8;stroke-linejoin:round;stroke-miterlimit:10;" width="174.228" height="34.355"/>
	<polyline style="fill:none;stroke:#000000;stroke-width:8;stroke-linejoin:round;stroke-miterlimit:10;" points="266.818,350.828 
		266.818,394.999 132.181,394.999 132.181,350.828 	"/>
	
		<line style="fill:none;stroke:#000000;stroke-width:8;stroke-linejoin:round;stroke-miterlimit:10;" x1="69.77" y1="125.455" x2="328.66" y2="125.455"/>
	
		<circle style="fill:none;stroke:#000000;stroke-width:8;stroke-linejoin:round;stroke-miterlimit:10;" cx="199.499" cy="220.275" r="10.654"/>
	
		<circle style="fill:none;stroke:#000000;stroke-width:8;stroke-linejoin:round;stroke-miterlimit:10;" cx="199.499" cy="14.654" r="10.654"/>
	
		<line style="fill:none;stroke:#000000;stroke-width:8;stroke-linejoin:round;stroke-miterlimit:10;" x1="199.499" y1="230.928" x2="199.499" y2="312.964"/>
	
		<line style="fill:none;stroke:#000000;stroke-width:8;stroke-linecap:round;stroke-linejoin:round;stroke-miterlimit:10;" x1="56.737" y1="394.999" x2="342.262" y2="394.999"/>
	
		<line style="fill:none;stroke:#000000;stroke-width:8;stroke-linejoin:round;stroke-miterlimit:10;" x1="132.628" y1="371.56" x2="264.737" y2="371.56"/>
</g>
<g>
</g>
<g>
</g>
<g>
</g>
<g>
</g>
<g>
</g>
<g>
</g>
<g>
</g>
<g>
</g>
<g>
</g>
<g>
</g>
<g>
</g>
<g>
</g>
<g>
</g>
<g>
</g>
<g>
</g>
</svg>
