<?xml version="1.0" encoding="iso-8859-1"?>
<!-- Generator: Adobe Illustrator 18.0.0, SVG Export Plug-In . SVG Version: 6.00 Build 0)  -->
<!DOCTYPE svg PUBLIC "-//W3C//DTD SVG 1.1//EN" "http://www.w3.org/Graphics/SVG/1.1/DTD/svg11.dtd">
<svg version="1.1" id="Capa_1" xmlns="http://www.w3.org/2000/svg" xmlns:xlink="http://www.w3.org/1999/xlink" x="0px" y="0px"
	 viewBox="0 0 312.466 312.466" style="enable-background:new 0 0 312.466 312.466;" xml:space="preserve">
<g>
	
		<circle style="fill:none;stroke:#000000;stroke-width:8;stroke-linecap:round;stroke-linejoin:round;stroke-miterlimit:10;" cx="148.592" cy="175.854" r="132.085"/>
	<path style="fill:none;stroke:#000000;stroke-width:8;stroke-linecap:round;stroke-linejoin:round;stroke-miterlimit:10;" d="
		M139.745,81.712c-4.688-2.521-8.654-7.407-6.123-12.911c2.32-5.045,8.784-7.14,13.768-8.262c8.441-1.9,19.686-1.86,27.426,2.439
		c5.993,3.328,4.751,9.345-1.255,12.168"/>
	<path style="fill:none;stroke:#000000;stroke-width:8;stroke-linecap:round;stroke-linejoin:round;stroke-miterlimit:10;" d="
		M93.338,81.065c-4.08-12.693,8.14-23.359,18.132-28.589c12.292-6.432,26.447-8.768,40.203-8.934
		c14.077-0.17,28.577,2.226,41.216,8.655c5.163,2.626,10.713,6.502,11.736,12.644c1.031,6.187-3.281,11.378-8.036,14.7
		c-11.491,8.029-26.714,8.978-40.187,7.011"/>
	<path style="fill:none;stroke:#000000;stroke-width:8;stroke-linecap:round;stroke-linejoin:round;stroke-miterlimit:10;" d="
		M112.788,99.334c-3.361-1.621-6.608-3.508-9.584-5.765"/>
	<path style="fill:none;stroke:#000000;stroke-width:8;stroke-linecap:round;stroke-linejoin:round;stroke-miterlimit:10;" d="
		M198.037,105.866c12.806-2.728,29.069-9.306,37.831-25.078"/>
	<path style="fill:none;stroke:#000000;stroke-width:8;stroke-linecap:round;stroke-linejoin:round;stroke-miterlimit:10;" d="
		M179.543,107.76c0,0,2.773,0.109,7.152-0.243"/>
	<path style="fill:none;stroke:#000000;stroke-width:8;stroke-linecap:round;stroke-linejoin:round;stroke-miterlimit:10;" d="
		M202.164,129.618c3.994-1.048,8.089-2.248,12.284-3.612"/>
	<path style="fill:none;stroke:#000000;stroke-width:8;stroke-linecap:round;stroke-linejoin:round;stroke-miterlimit:10;" d="
		M90.884,115.769c17.644,12.212,49.571,25.975,97.767,16.899"/>
	<path style="fill:none;stroke:#000000;stroke-width:8;stroke-linecap:round;stroke-linejoin:round;stroke-miterlimit:10;" d="
		M74.034,100.62c0,0,2.005,2.674,6.136,6.543"/>
	<path style="fill:none;stroke:#000000;stroke-width:8;stroke-linecap:round;stroke-linejoin:round;stroke-miterlimit:10;" d="
		M40.773,175.935c-1.602-0.272-3.208-0.52-4.817-0.744"/>
	<path style="fill:none;stroke:#000000;stroke-width:8;stroke-linecap:round;stroke-linejoin:round;stroke-miterlimit:10;" d="
		M110.85,227.832c-6.274-26.462-31.263-41.932-55.697-48.71"/>
	<path style="fill:none;stroke:#000000;stroke-width:8;stroke-linecap:round;stroke-linejoin:round;stroke-miterlimit:10;" d="
		M104.024,252.789c2.034-2.02,3.699-4.399,4.904-7"/>
	<path style="fill:none;stroke:#000000;stroke-width:8;stroke-linecap:round;stroke-linejoin:round;stroke-miterlimit:10;" d="
		M88.571,225.153c-5.12-12.934-24.278-21.181-34.436-8.755c-8.689,10.63,0.69,26.998,9.137,34.667
		c7.442,6.757,18.088,10.284,28.047,8.329"/>
	<path style="fill:none;stroke:#000000;stroke-width:8;stroke-linecap:round;stroke-linejoin:round;stroke-miterlimit:10;" d="
		M65.068,230.098c1.546,8.299,12.956,15.953,20.528,9.979"/>
	<path style="fill:none;stroke:#000000;stroke-width:8;stroke-linecap:round;stroke-linejoin:round;stroke-miterlimit:10;" d="
		M106.648,175.839c15.653,14.364,30.766,34.261,33.427,55.985c1.582,12.916-2.17,25.765-10.606,35.684
		c-3.347,3.934-7.327,7.423-11.804,10.019"/>
	<path style="fill:none;stroke:#000000;stroke-width:8;stroke-linecap:round;stroke-linejoin:round;stroke-miterlimit:10;" d="
		M90.996,163.639c1.933,1.275,3.831,2.603,5.692,3.982"/>
	<path style="fill:none;stroke:#000000;stroke-width:8;stroke-linecap:round;stroke-linejoin:round;stroke-miterlimit:10;" d="
		M21.422,140.111c12.197,1.156,29.547,4.174,47.623,11.822"/>
	<path style="fill:none;stroke:#000000;stroke-width:8;stroke-linecap:round;stroke-linejoin:round;stroke-miterlimit:10;" d="
		M148.592,175.854c0,0,32.538,46.935,14.292,84.22"/>
	<path style="fill:none;stroke:#000000;stroke-width:8;stroke-linecap:round;stroke-linejoin:round;stroke-miterlimit:10;" d="
		M256.307,193.992c5.462-2.594,9.389,2.737,8.77,11.911"/>
	<path style="fill:none;stroke:#000000;stroke-width:8;stroke-linecap:round;stroke-linejoin:round;stroke-miterlimit:10;" d="
		M226.415,212.879c3.644-12.868,9.587-25.815,18.755-35.712c5.716-6.17,15.824-14.119,24.265-8.057
		c9.113,6.545,9.2,21.762,8.023,31.618c-1.519,12.726-6.835,27.631-17.154,35.919c-3.714,2.983-8.84,5.288-12.991,1.774
		c-4.788-4.053-5.136-12.08-4.751-17.797"/>
	<path style="fill:none;stroke:#000000;stroke-width:8;stroke-linecap:round;stroke-linejoin:round;stroke-miterlimit:10;" d="
		M222.775,233.57c0.124-1.859,0.305-3.714,0.54-5.562"/>
	<path style="fill:none;stroke:#000000;stroke-width:8;stroke-linecap:round;stroke-linejoin:round;stroke-miterlimit:10;" d="
		M233.972,276.634c-5.625-5.136-9.502-14.147-10.882-26.002"/>
	<path style="fill:none;stroke:#000000;stroke-width:8;stroke-linecap:round;stroke-linejoin:round;stroke-miterlimit:10;" d="
		M219.205,172.727c9.261-14.235,21.79-28.408,38.712-33.164"/>
	<path style="fill:none;stroke:#000000;stroke-width:8;stroke-linecap:round;stroke-linejoin:round;stroke-miterlimit:10;" d="
		M208.102,279.907c0,0-11.608-30.98-4.759-67.28"/>
	<path style="fill:none;stroke:#000000;stroke-width:8;stroke-linecap:round;stroke-linejoin:round;stroke-miterlimit:10;" d="
		M158.124,308.466c0,0,18.246-9.52,21.419-38.079"/>
	
		<circle style="fill:none;stroke:#000000;stroke-width:8;stroke-linecap:round;stroke-linejoin:round;stroke-miterlimit:10;" cx="271.418" cy="28.542" r="24.542"/>
</g>
<g>
</g>
<g>
</g>
<g>
</g>
<g>
</g>
<g>
</g>
<g>
</g>
<g>
</g>
<g>
</g>
<g>
</g>
<g>
</g>
<g>
</g>
<g>
</g>
<g>
</g>
<g>
</g>
<g>
</g>
</svg>
