<?xml version="1.0" encoding="iso-8859-1"?>
<!-- Generator: Adobe Illustrator 18.0.0, SVG Export Plug-In . SVG Version: 6.00 Build 0)  -->
<!DOCTYPE svg PUBLIC "-//W3C//DTD SVG 1.1//EN" "http://www.w3.org/Graphics/SVG/1.1/DTD/svg11.dtd">
<svg version="1.1" id="Capa_1" xmlns="http://www.w3.org/2000/svg" xmlns:xlink="http://www.w3.org/1999/xlink" x="0px" y="0px"
	 viewBox="0 0 378.844 378.844" style="enable-background:new 0 0 378.844 378.844;" xml:space="preserve">
<g>
	
		<circle style="fill:none;stroke:#000000;stroke-width:8;stroke-linecap:round;stroke-linejoin:round;stroke-miterlimit:10;" cx="97.921" cy="119.866" r="57.846"/>
	<path style="fill:none;stroke:#000000;stroke-width:8;stroke-linecap:round;stroke-linejoin:round;stroke-miterlimit:10;" d="
		M138.785,107.877c0.517,1.603,0.935,3.237,1.252,4.891"/>
	<path style="fill:none;stroke:#000000;stroke-width:8;stroke-linecap:round;stroke-linejoin:round;stroke-miterlimit:10;" d="
		M98.22,78.245c12.879,0.021,25.354,6.268,33.376,16.291"/>
	<path style="fill:none;stroke:#000000;stroke-width:8;stroke-linecap:round;stroke-linejoin:round;stroke-miterlimit:10;" d="
		M124.769,290.495l4.326,4.326c29.339,29.339,76.886,29.339,106.225,0l10.102-10.102l28.36-28.36"/>
	
		<line style="fill:none;stroke:#000000;stroke-width:8;stroke-linecap:round;stroke-linejoin:round;stroke-miterlimit:10;" x1="232.2" y1="214.481" x2="153.525" y2="135.805"/>
	<path style="fill:none;stroke:#000000;stroke-width:8;stroke-linecap:round;stroke-linejoin:round;stroke-miterlimit:10;" d="
		M131.803,187.163v48.361h25.358c15.179,0,27.484,12.305,27.484,27.484v0c0,15.179-12.305,27.484-27.484,27.484h-25.358h-14.976
		c-22.086,0-39.991-17.904-39.991-39.991v-14.976v-59.455"/>
	<path style="fill:none;stroke:#000000;stroke-width:8;stroke-linecap:round;stroke-linejoin:round;stroke-miterlimit:10;" d="
		M253.205,199.813c1.252,3.458,3.272,6.718,6.061,9.507c10.151,10.151,26.612,10.151,36.764,0c2.814-2.814,4.834-6.098,6.098-9.594"
		/>
	<path style="fill:none;stroke:#000000;stroke-width:8;stroke-linecap:round;stroke-linejoin:round;stroke-miterlimit:10;" d="
		M216.758,179.826c2.967,2.173,6.462,3.753,10.332,4.514c14.087,2.769,27.753-6.407,30.521-20.494
		c0.767-3.904,0.614-7.758-0.285-11.364"/>
	
		<line style="fill:none;stroke:#000000;stroke-width:8;stroke-linecap:round;stroke-linejoin:round;stroke-miterlimit:10;" x1="141.923" y1="160.149" x2="213.194" y2="231.42"/>
	
		<line style="fill:none;stroke:#000000;stroke-width:8;stroke-linecap:round;stroke-linejoin:round;stroke-miterlimit:10;" x1="93.583" y1="217.166" x2="111.555" y2="217.166"/>
	<path style="fill:none;stroke:#000000;stroke-width:8;stroke-linecap:round;stroke-linejoin:round;stroke-miterlimit:10;" d="
		M77.035,254.512c9.457-5.813,21.989-4.636,30.182,3.557c8.652,8.652,9.495,22.187,2.504,31.781"/>
	<path style="fill:none;stroke:#000000;stroke-width:8;stroke-linecap:round;stroke-linejoin:round;stroke-miterlimit:10;" d="
		M74.763,240.076l-63.699-63.699c-9.419-9.419-9.419-24.689,0-34.108l29.434-29.434"/>
	
		<line style="fill:none;stroke:#000000;stroke-width:8;stroke-linecap:round;stroke-linejoin:round;stroke-miterlimit:10;" x1="16.14" y1="141.973" x2="75.959" y2="201.792"/>
	<path style="fill:none;stroke:#000000;stroke-width:8;stroke-linecap:round;stroke-linejoin:round;stroke-miterlimit:10;" d="
		M101.325,142.526c16.941,5.779,38.161,0.529,53.595-14.904c0.126-0.126,0.26-0.26,0.386-0.386l0.009-0.009"/>
	<path style="fill:none;stroke:#000000;stroke-width:8;stroke-linecap:round;stroke-linejoin:round;stroke-miterlimit:10;" d="
		M80.14,124.984c-9.942-17.694-5.536-42.666,11.97-60.172c0.942-0.942,1.911-1.857,2.898-2.719"/>
	
		<circle style="fill:none;stroke:#000000;stroke-width:8;stroke-linecap:round;stroke-linejoin:round;stroke-miterlimit:10;" cx="84.932" cy="140.776" r="16.496"/>
	
		<line style="fill:none;stroke:#000000;stroke-width:8;stroke-linecap:round;stroke-linejoin:round;stroke-miterlimit:10;" x1="131.803" y1="235.524" x2="108.237" y2="259.09"/>
	
		<polyline style="fill:none;stroke:#000000;stroke-width:8;stroke-linecap:round;stroke-linejoin:round;stroke-miterlimit:10;" points="
		214.681,174.761 193.417,153.498 192.917,152.997 	"/>
	
		<line style="fill:none;stroke:#000000;stroke-width:8;stroke-linecap:round;stroke-linejoin:round;stroke-miterlimit:10;" x1="162.098" y1="236.486" x2="162.098" y2="288.529"/>
	<path style="fill:none;stroke:#000000;stroke-width:8;stroke-linecap:round;stroke-linejoin:round;stroke-miterlimit:10;" d="
		M214.069,191.509c-1.256,0.395-2.539,0.727-3.858,0.987"/>
	<path style="fill:none;stroke:#000000;stroke-width:8;stroke-linecap:round;stroke-linejoin:round;stroke-miterlimit:10;" d="
		M172.189,154.47h21.128v-1.079v-24.275c-0.013-15.177,12.296-27.485,27.473-27.485c7.588,0,14.466,3.071,19.428,8.045
		c4.987,4.974,8.058,11.852,8.058,19.44v21.813"/>
	
		<line style="fill:none;stroke:#000000;stroke-width:8;stroke-linecap:round;stroke-linejoin:round;stroke-miterlimit:10;" x1="194.269" y1="124.176" x2="246.311" y2="124.176"/>
	<path style="fill:none;stroke:#000000;stroke-width:8;stroke-linecap:round;stroke-linejoin:round;stroke-miterlimit:10;" d="
		M243.509,286.773l34.196-34.196l19.692,19.692l-0.019,0.019l25.423,25.423l52.042-52.042l-12.267-12.267
		c-7.266-7.266-19.046-7.266-26.312,0l0,0l-19.692-19.692l-10.59-10.59c-15.617-15.617-40.938-15.617-56.555,0l-10.59,10.59
		l-34.196,34.196"/>
	
		<line style="fill:none;stroke:#000000;stroke-width:8;stroke-linecap:round;stroke-linejoin:round;stroke-miterlimit:10;" x1="277.706" y1="252.577" x2="277.706" y2="220.036"/>
	
		<line style="fill:none;stroke:#000000;stroke-width:8;stroke-linecap:round;stroke-linejoin:round;stroke-miterlimit:10;" x1="312.543" y1="287.632" x2="364.286" y2="235.888"/>
	
		<line style="fill:none;stroke:#000000;stroke-width:8;stroke-linecap:round;stroke-linejoin:round;stroke-miterlimit:10;" x1="287.419" y1="262.508" x2="324.806" y2="225.121"/>
	<path style="fill:none;stroke:#000000;stroke-width:8;stroke-linecap:round;stroke-linejoin:round;stroke-miterlimit:10;" d="
		M213.486,195.771l1.427-10.435c2.988-21.885,23.141-37.21,45.026-34.222l14.841,2.028l27.591,3.76
		c1.391-10.184,10.776-17.309,20.952-15.927l17.192,2.351l-9.951,72.922l-13.262-1.813"/>
	
		<line style="fill:none;stroke:#000000;stroke-width:8;stroke-linecap:round;stroke-linejoin:round;stroke-miterlimit:10;" x1="247.663" y1="181.692" x2="258.691" y2="196.201"/>
	
		<line style="fill:none;stroke:#000000;stroke-width:8;stroke-linecap:round;stroke-linejoin:round;stroke-miterlimit:10;" x1="326.193" y1="141.925" x2="316.413" y2="213.546"/>
	
		<line style="fill:none;stroke:#000000;stroke-width:8;stroke-linecap:round;stroke-linejoin:round;stroke-miterlimit:10;" x1="288.229" y1="157.241" x2="283.519" y2="191.832"/>
	
		<line style="fill:none;stroke:#000000;stroke-width:8;stroke-linecap:round;stroke-linejoin:round;stroke-miterlimit:10;" x1="26.731" y1="187.855" x2="43.48" y2="171.106"/>
	
		<line style="fill:none;stroke:#000000;stroke-width:8;stroke-linecap:round;stroke-linejoin:round;stroke-miterlimit:10;" x1="38.695" y1="199.819" x2="55.444" y2="183.069"/>
</g>
<g>
</g>
<g>
</g>
<g>
</g>
<g>
</g>
<g>
</g>
<g>
</g>
<g>
</g>
<g>
</g>
<g>
</g>
<g>
</g>
<g>
</g>
<g>
</g>
<g>
</g>
<g>
</g>
<g>
</g>
</svg>
