<?xml version="1.0" encoding="iso-8859-1"?>
<!-- Generator: Adobe Illustrator 18.0.0, SVG Export Plug-In . SVG Version: 6.00 Build 0)  -->
<!DOCTYPE svg PUBLIC "-//W3C//DTD SVG 1.1//EN" "http://www.w3.org/Graphics/SVG/1.1/DTD/svg11.dtd">
<svg version="1.1" id="Capa_1" xmlns="http://www.w3.org/2000/svg" xmlns:xlink="http://www.w3.org/1999/xlink" x="0px" y="0px"
	 viewBox="0 0 315.019 315.019" style="enable-background:new 0 0 315.019 315.019;" xml:space="preserve">
<g>
	
		<circle style="fill:none;stroke:#000000;stroke-width:8;stroke-linecap:round;stroke-linejoin:round;stroke-miterlimit:10;" cx="150.663" cy="178.934" r="132.085"/>
	
		<circle style="fill:none;stroke:#000000;stroke-width:8;stroke-linecap:round;stroke-linejoin:round;stroke-miterlimit:10;" cx="269.668" cy="30.773" r="26.773"/>
	<path style="fill:none;stroke:#000000;stroke-width:8;stroke-linecap:round;stroke-linejoin:round;stroke-miterlimit:10;" d="
		M28.99,127.433c25.298,11.102,56.13,21.752,81.215,21.752c52.358,0,64.258-32.129,126.135-33.319
		c11.162-0.214,21.205-0.345,30.165-0.428"/>
	<path style="fill:none;stroke:#000000;stroke-width:8;stroke-linecap:round;stroke-linejoin:round;stroke-miterlimit:10;" d="
		M99.436,300.714c9.508-24.323,28.928-58.51,66.697-77.752c45.123-22.99,77.454-3.939,110.94-5.628"/>
	<path style="fill:none;stroke:#000000;stroke-width:8;stroke-linecap:round;stroke-linejoin:round;stroke-miterlimit:10;" d="
		M39.474,250.272c20.372-2.796,53.857-11.626,81.441-39.209c42.838-42.838,54.738-44.028,80.917-44.028
		c21.443,0,53.274,22.359,80.429,23.252"/>
	<path style="fill:none;stroke:#000000;stroke-width:8;stroke-linecap:round;stroke-linejoin:round;stroke-miterlimit:10;" d="
		M97.318,58.07c27.5,4.248,60.712,12.863,81.905,30.427c16.552,13.708,45.111,12.768,73.551,6.652"/>
	<path style="fill:none;stroke:#000000;stroke-width:8;stroke-linecap:round;stroke-linejoin:round;stroke-miterlimit:10;" d="
		M69.937,74.384h0.012c10.127,2.201,19.468,4.581,25.536,6.545c20.003,6.473,37.674,8.829,32.569,23.038
		c-6.485,18.04-36.448,7.854-56.463,1.38c-6.557-2.118-14.767-6.009-22.788-10.495"/>
	<path style="fill:none;stroke:#000000;stroke-width:8;stroke-linecap:round;stroke-linejoin:round;stroke-miterlimit:10;" d="
		M19.447,163.75c26.417,3.772,63.187,12.661,66.959,33.033c2.606,14.089-26.596,22.002-60.212,26.453"/>
	<path style="fill:none;stroke:#000000;stroke-width:8;stroke-linecap:round;stroke-linejoin:round;stroke-miterlimit:10;" d="
		M116.535,306.569c22.954-24.346,79.132-73.587,145.782-57.047h0.012"/>
</g>
<g>
</g>
<g>
</g>
<g>
</g>
<g>
</g>
<g>
</g>
<g>
</g>
<g>
</g>
<g>
</g>
<g>
</g>
<g>
</g>
<g>
</g>
<g>
</g>
<g>
</g>
<g>
</g>
<g>
</g>
</svg>
