<?xml version="1.0" encoding="iso-8859-1"?>
<!-- Generator: Adobe Illustrator 18.0.0, SVG Export Plug-In . SVG Version: 6.00 Build 0)  -->
<!DOCTYPE svg PUBLIC "-//W3C//DTD SVG 1.1//EN" "http://www.w3.org/Graphics/SVG/1.1/DTD/svg11.dtd">
<svg version="1.1" id="Capa_1" xmlns="http://www.w3.org/2000/svg" xmlns:xlink="http://www.w3.org/1999/xlink" x="0px" y="0px"
	 viewBox="0 0 379.512 379.512" style="enable-background:new 0 0 379.512 379.512;" xml:space="preserve">
<g>
	<path style="fill:none;stroke:#000000;stroke-width:8;stroke-linecap:round;stroke-linejoin:round;stroke-miterlimit:10;" d="
		M118.26,305.074c-8.692-5.394-16.887-11.856-24.427-19.395c-7.539-7.539-14.001-15.735-19.395-24.427
		c-5.175-8.322-9.357-17.081-12.554-26.118c-16.913-47.759-6.26-103.092,31.949-141.301s93.541-48.862,141.301-31.949
		c9.037,3.197,17.796,7.379,26.118,12.554c8.692,5.394,16.887,11.856,24.427,19.395c7.539,7.539,14.001,15.735,19.395,24.427"/>
	<path style="fill:none;stroke:#000000;stroke-width:8;stroke-linecap:round;stroke-linejoin:round;stroke-miterlimit:10;" d="
		M144.378,317.628c47.759,16.913,103.092,6.26,141.301-31.949s48.862-93.541,31.949-141.301"/>
	<path style="fill:none;stroke:#000000;stroke-width:8;stroke-linecap:round;stroke-linejoin:round;stroke-miterlimit:10;" d="
		M235.134,61.884c63.46-47.44,116.496-69.544,134.266-51.773s-4.333,70.806-51.773,134.266
		c-21.978,29.399-49.392,61.037-80.802,92.448s-63.048,58.824-92.448,80.802c-63.46,47.44-116.496,69.544-134.266,51.773
		s4.333-70.806,51.773-134.266"/>
	<path style="fill:none;stroke:#000000;stroke-width:8;stroke-linecap:round;stroke-linejoin:round;stroke-miterlimit:10;" d="
		M261.252,74.439c25.697-14.069,45.462-18.486,53.885-10.063c8.423,8.423,4.005,28.188-10.063,53.885
		c-16.24,29.669-45.361,67.238-82.468,104.345s-74.677,66.229-104.345,82.468c-25.697,14.069-45.462,18.486-53.885,10.063
		c-8.423-8.423-4.005-28.188,10.063-53.885"/>
</g>
<g>
</g>
<g>
</g>
<g>
</g>
<g>
</g>
<g>
</g>
<g>
</g>
<g>
</g>
<g>
</g>
<g>
</g>
<g>
</g>
<g>
</g>
<g>
</g>
<g>
</g>
<g>
</g>
<g>
</g>
</svg>
