<?xml version="1.0" encoding="iso-8859-1"?>
<!-- Generator: Adobe Illustrator 18.0.0, SVG Export Plug-In . SVG Version: 6.00 Build 0)  -->
<!DOCTYPE svg PUBLIC "-//W3C//DTD SVG 1.1//EN" "http://www.w3.org/Graphics/SVG/1.1/DTD/svg11.dtd">
<svg version="1.1" id="Capa_1" xmlns="http://www.w3.org/2000/svg" xmlns:xlink="http://www.w3.org/1999/xlink" x="0px" y="0px"
	 viewBox="0 0 272.176 272.176" style="enable-background:new 0 0 272.176 272.176;" xml:space="preserve">
<g>
	<path style="fill:none;stroke:#000000;stroke-width:8;stroke-linecap:round;stroke-linejoin:round;stroke-miterlimit:10;" d="
		M39.425,72.39H20.362c2.963-5.402,6.307-10.567,9.984-15.469h64.678"/>
	<path style="fill:none;stroke:#000000;stroke-width:8;stroke-linecap:round;stroke-linejoin:round;stroke-miterlimit:10;" d="
		M65.604,104.519H7.808c1.285-5.295,2.904-10.448,4.831-15.469h26.786"/>
	<path style="fill:none;stroke:#000000;stroke-width:8;stroke-linecap:round;stroke-linejoin:round;stroke-miterlimit:10;" d="
		M91.783,150.927H4.833C4.286,146.06,4,141.11,4,136.088c0-5.045,0.286-10.02,0.845-14.91H125.17"/>
	<path style="fill:none;stroke:#000000;stroke-width:8;stroke-linecap:round;stroke-linejoin:round;stroke-miterlimit:10;" d="
		M72.018,183.056H12.603c-1.916-5.01-3.522-10.174-4.807-15.469h114.2"/>
	<path style="fill:none;stroke:#000000;stroke-width:8;stroke-linecap:round;stroke-linejoin:round;stroke-miterlimit:10;" d="
		M119.616,215.185h-89.33c-3.665-4.903-7.009-10.067-9.972-15.469h19.111"/>
	<path style="fill:none;stroke:#000000;stroke-width:8;stroke-linecap:round;stroke-linejoin:round;stroke-miterlimit:10;" d="
		M81.074,40.261H45.185c23.68-22.466,55.678-36.258,90.901-36.258c72.956,0,132.085,59.141,132.085,132.085
		c0,72.956-59.129,132.085-132.085,132.085c-35.258,0-67.28-13.804-90.972-36.329h32.486"/>
	
		<ellipse transform="matrix(0.9457 -0.3251 0.3251 0.9457 -16.4622 71.6281)" style="fill:none;stroke:#000000;stroke-width:8;stroke-linecap:round;stroke-linejoin:round;stroke-miterlimit:10;" cx="206.087" cy="85.07" rx="27.772" ry="36.249"/>
	<ellipse transform="matrix(0.9457 -0.3251 0.3251 0.9457 -16.4622 71.6281)" cx="206.087" cy="85.07" rx="6.932" ry="9.047"/>
	
		<line style="fill:none;stroke:#000000;stroke-width:8;stroke-linecap:round;stroke-linejoin:round;stroke-miterlimit:10;" x1="4.006" y1="136.09" x2="268.176" y2="136.09"/>
	
		<line style="fill:none;stroke:#000000;stroke-width:8;stroke-linecap:round;stroke-linejoin:round;stroke-miterlimit:10;" x1="238.81" y1="167.586" x2="262.61" y2="167.586"/>
	
		<line style="fill:none;stroke:#000000;stroke-width:8;stroke-linecap:round;stroke-linejoin:round;stroke-miterlimit:10;" x1="214.416" y1="150.927" x2="262.61" y2="150.927"/>
	
		<line style="fill:none;stroke:#000000;stroke-width:8;stroke-linecap:round;stroke-linejoin:round;stroke-miterlimit:10;" x1="251.852" y1="199.715" x2="185.262" y2="199.715"/>
</g>
<g>
</g>
<g>
</g>
<g>
</g>
<g>
</g>
<g>
</g>
<g>
</g>
<g>
</g>
<g>
</g>
<g>
</g>
<g>
</g>
<g>
</g>
<g>
</g>
<g>
</g>
<g>
</g>
<g>
</g>
</svg>
