<?xml version="1.0" encoding="iso-8859-1"?>
<!-- Generator: Adobe Illustrator 18.0.0, SVG Export Plug-In . SVG Version: 6.00 Build 0)  -->
<!DOCTYPE svg PUBLIC "-//W3C//DTD SVG 1.1//EN" "http://www.w3.org/Graphics/SVG/1.1/DTD/svg11.dtd">
<svg version="1.1" id="Capa_1" xmlns="http://www.w3.org/2000/svg" xmlns:xlink="http://www.w3.org/1999/xlink" x="0px" y="0px"
	 viewBox="0 0 449.509 449.509" style="enable-background:new 0 0 449.509 449.509;" xml:space="preserve">
<g>
	<path style="fill:none;stroke:#000000;stroke-width:8;stroke-linecap:round;stroke-linejoin:round;stroke-miterlimit:10;" d="
		M350.528,212.826c-0.819-5.986-2.074-11.958-3.781-17.87"/>
	<path style="fill:none;stroke:#000000;stroke-width:8;stroke-linecap:round;stroke-linejoin:round;stroke-miterlimit:10;" d="
		M315.576,318.717c24.066-24.638,36.966-58.067,36.071-92.116"/>
	<path style="fill:none;stroke:#000000;stroke-width:8;stroke-linecap:round;stroke-linejoin:round;stroke-miterlimit:10;" d="
		M147.557,330.794c37.704,28.844,90.125,35.255,135.164,12.13c8.647-4.44,16.568-9.735,23.712-15.729"/>
	<path style="fill:none;stroke:#000000;stroke-width:8;stroke-linecap:round;stroke-linejoin:round;stroke-miterlimit:10;" d="
		M126.36,310.222c3.179,3.908,6.563,7.591,10.13,11.042"/>
	<path style="fill:none;stroke:#000000;stroke-width:8;stroke-linecap:round;stroke-linejoin:round;stroke-miterlimit:10;" d="
		M90.195,201.765c-0.383,1.82-0.73,3.648-1.041,5.482"/>
	<path style="fill:none;stroke:#000000;stroke-width:8;stroke-linecap:round;stroke-linejoin:round;stroke-miterlimit:10;" d="
		M130.228,130.168c-13.985,13.249-25.149,29.414-32.511,47.236c-1.625,3.934-3.067,7.942-4.322,12.008"/>
	<path style="fill:none;stroke:#000000;stroke-width:8;stroke-linecap:round;stroke-linejoin:round;stroke-miterlimit:10;" d="
		M300.048,115.019c-11.335-7.408-23.755-13.137-36.79-16.944c-21.065-6.152-43.477-7.215-65.012-2.958
		c-19.416,3.839-37.947,11.878-53.993,23.439"/>
	
		<line style="fill:none;stroke:#000000;stroke-width:8;stroke-linecap:round;stroke-linejoin:round;stroke-miterlimit:10;" x1="297.261" y1="192.797" x2="152.245" y2="267.255"/>
	<path style="fill:none;stroke:#000000;stroke-width:8;stroke-linecap:round;stroke-linejoin:round;stroke-miterlimit:10;" d="
		M123.524,282.004L4,343.373l61.65-42.316c22.994-15.788,36.437-42.028,36.21-69.927c-0.368-44.964,24.044-88.475,66.77-110.412
		s92.311-16.421,128.637,10.081c22.532,16.447,51.689,20.814,77.928,11.323l70.314-25.441l-119.524,61.369
		c28.703,55.902,6.648,124.505-49.254,153.207C220.82,359.965,152.227,337.906,123.524,282.004z"/>
	<path style="fill:none;stroke:#000000;stroke-width:8;stroke-linecap:round;stroke-linejoin:round;stroke-miterlimit:10;" d="
		M261.981,302.532c40.044-20.56,55.839-69.69,35.278-109.734l-145.012,74.456C172.807,307.298,221.937,323.093,261.981,302.532z"/>
	<path style="fill:none;stroke:#000000;stroke-width:8;stroke-linecap:round;stroke-linejoin:round;stroke-miterlimit:10;" d="
		M291.688,241.429c1.578-9.259,1.252-18.895-1.174-28.294"/>
	<path style="fill:none;stroke:#000000;stroke-width:8;stroke-linecap:round;stroke-linejoin:round;stroke-miterlimit:10;" d="
		M274.514,276.301c1.914-2.064,3.688-4.234,5.315-6.496"/>
	<path style="fill:none;stroke:#000000;stroke-width:8;stroke-linecap:round;stroke-linejoin:round;stroke-miterlimit:10;" d="
		M211.717,296.783c14.442,2.816,29.899,0.983,44.004-6.259"/>
	<path style="fill:none;stroke:#000000;stroke-width:8;stroke-linecap:round;stroke-linejoin:round;stroke-miterlimit:10;" d="
		M176.176,277.698c3.029,3.086,6.322,5.847,9.823,8.265"/>
	<path style="fill:none;stroke:#000000;stroke-width:8;stroke-linecap:round;stroke-linejoin:round;stroke-miterlimit:10;" d="
		M277.591,167.987c-24.385-20.757-59.809-26.003-90.066-10.467s-46.637,47.379-43.979,79.292L277.591,167.987z"/>
	<path style="fill:none;stroke:#000000;stroke-width:8;stroke-linecap:round;stroke-linejoin:round;stroke-miterlimit:10;" d="
		M132.351,207.693c-2.363,9.806-3.181,20.008-2.331,30.217"/>
	<path style="fill:none;stroke:#000000;stroke-width:8;stroke-linecap:round;stroke-linejoin:round;stroke-miterlimit:10;" d="
		M256.906,140.432c-23.907-8.573-51.161-7.613-75.541,4.905c-20.85,10.705-36.056,28.044-44.378,48.117"/>
	<path style="fill:none;stroke:#000000;stroke-width:8;stroke-linecap:round;stroke-linejoin:round;stroke-miterlimit:10;" d="
		M286.515,157.558c-5.702-4.854-11.921-8.981-18.505-12.332"/>
	
		<line style="fill:none;stroke:#000000;stroke-width:8;stroke-linecap:round;stroke-linejoin:round;stroke-miterlimit:10;" x1="315.358" y1="168.634" x2="323.137" y2="164.64"/>
	
		<line style="fill:none;stroke:#000000;stroke-width:8;stroke-linecap:round;stroke-linejoin:round;stroke-miterlimit:10;" x1="299.8" y1="176.622" x2="303.39" y2="174.779"/>
	
		<line style="fill:none;stroke:#000000;stroke-width:8;stroke-linecap:round;stroke-linejoin:round;stroke-miterlimit:10;" x1="199.868" y1="227.932" x2="288.43" y2="182.46"/>
	
		<line style="fill:none;stroke:#000000;stroke-width:8;stroke-linecap:round;stroke-linejoin:round;stroke-miterlimit:10;" x1="145.413" y1="255.891" x2="189.097" y2="233.462"/>
	
		<line style="fill:none;stroke:#000000;stroke-width:8;stroke-linecap:round;stroke-linejoin:round;stroke-miterlimit:10;" x1="120.281" y1="268.795" x2="132.847" y2="262.343"/>
	
		<line style="fill:none;stroke:#000000;stroke-width:8;stroke-linecap:round;stroke-linejoin:round;stroke-miterlimit:10;" x1="90.974" y1="313.333" x2="106.532" y2="305.344"/>
	
		<line style="fill:none;stroke:#000000;stroke-width:8;stroke-linecap:round;stroke-linejoin:round;stroke-miterlimit:10;" x1="35.323" y1="341.906" x2="77.809" y2="320.092"/>
	
		<line style="fill:none;stroke:#000000;stroke-width:8;stroke-linecap:round;stroke-linejoin:round;stroke-miterlimit:10;" x1="415.904" y1="146.499" x2="427.273" y2="140.661"/>
	
		<line style="fill:none;stroke:#000000;stroke-width:8;stroke-linecap:round;stroke-linejoin:round;stroke-miterlimit:10;" x1="391.967" y1="158.789" x2="397.353" y2="156.024"/>
	
		<line style="fill:none;stroke:#000000;stroke-width:8;stroke-linecap:round;stroke-linejoin:round;stroke-miterlimit:10;" x1="356.064" y1="177.223" x2="381.197" y2="164.319"/>
	
		<line style="fill:none;stroke:#000000;stroke-width:8;stroke-linecap:round;stroke-linejoin:round;stroke-miterlimit:10;" x1="137.985" y1="274.577" x2="311.52" y2="185.476"/>
	
		<circle style="fill:none;stroke:#000000;stroke-width:8;stroke-linecap:round;stroke-linejoin:round;stroke-miterlimit:10;" cx="35.658" cy="249.566" r="16.174"/>
	
		<circle style="fill:none;stroke:#000000;stroke-width:8;stroke-linecap:round;stroke-linejoin:round;stroke-miterlimit:10;" cx="422.211" cy="296.47" r="21.026"/>
</g>
<g>
</g>
<g>
</g>
<g>
</g>
<g>
</g>
<g>
</g>
<g>
</g>
<g>
</g>
<g>
</g>
<g>
</g>
<g>
</g>
<g>
</g>
<g>
</g>
<g>
</g>
<g>
</g>
<g>
</g>
</svg>
