<?xml version="1.0" encoding="iso-8859-1"?>
<!-- Generator: Adobe Illustrator 18.0.0, SVG Export Plug-In . SVG Version: 6.00 Build 0)  -->
<!DOCTYPE svg PUBLIC "-//W3C//DTD SVG 1.1//EN" "http://www.w3.org/Graphics/SVG/1.1/DTD/svg11.dtd">
<svg version="1.1" id="Capa_1" xmlns="http://www.w3.org/2000/svg" xmlns:xlink="http://www.w3.org/1999/xlink" x="0px" y="0px"
	 viewBox="0 0 400.226 400.226" style="enable-background:new 0 0 400.226 400.226;" xml:space="preserve">
<g>
	
		<polygon style="fill:none;stroke:#000000;stroke-width:8;stroke-linecap:round;stroke-linejoin:round;stroke-miterlimit:10;" points="
		206.552,273.166 127.059,193.673 233.3,87.433 295.216,78.512 321.714,105.009 312.793,166.925 	"/>
	
		<polyline style="fill:none;stroke:#000000;stroke-width:8;stroke-linecap:round;stroke-linejoin:round;stroke-miterlimit:10;" points="
		183.618,250.229 173.442,286.376 113.849,226.784 150.004,216.616 	"/>
	
		<line style="fill:none;stroke:#000000;stroke-width:8;stroke-linejoin:round;stroke-miterlimit:10;" x1="233.3" y1="87.433" x2="310.408" y2="164.54"/>
	
		<line style="fill:none;stroke:#000000;stroke-width:8;stroke-linejoin:round;stroke-miterlimit:10;" x1="221.815" y1="98.918" x2="298.922" y2="176.025"/>
	
		<line style="fill:none;stroke:#000000;stroke-width:8;stroke-linecap:round;stroke-linejoin:round;stroke-miterlimit:10;" x1="139.549" y1="183.569" x2="216.656" y2="260.677"/>
	<path style="fill:none;stroke:#000000;stroke-width:8;stroke-linecap:round;stroke-linejoin:round;stroke-miterlimit:10;" d="
		M244.148,156.077L244.148,156.077c-8.88-8.88-23.278-8.88-32.158,0l-49.769,49.769l32.158,32.158l49.769-49.769
		C253.028,179.355,253.028,164.958,244.148,156.077z"/>
	
		<rect x="85.148" y="110.594" transform="matrix(0.7071 -0.7071 0.7071 0.7071 -54.7801 132.2509)" style="fill:none;stroke:#000000;stroke-width:8;stroke-linejoin:round;stroke-miterlimit:10;" width="94.206" height="43.313"/>
	
		<rect x="45.333" y="70.779" transform="matrix(0.7071 -0.7071 0.7071 0.7071 -38.2881 92.4357)" style="fill:none;stroke:#000000;stroke-width:8;stroke-linejoin:round;stroke-miterlimit:10;" width="94.206" height="43.313"/>
	
		<rect x="5.517" y="30.964" transform="matrix(0.7071 -0.7071 0.7071 0.7071 -21.7961 52.6205)" style="fill:none;stroke:#000000;stroke-width:8;stroke-linejoin:round;stroke-miterlimit:10;" width="94.206" height="43.313"/>
	
		<line style="fill:none;stroke:#000000;stroke-width:8;stroke-linejoin:round;stroke-miterlimit:10;" x1="145.053" y1="175.68" x2="132.251" y2="162.878"/>
	
		<line style="fill:none;stroke:#000000;stroke-width:8;stroke-linejoin:round;stroke-miterlimit:10;" x1="61.809" y1="92.436" x2="52.62" y2="83.248"/>
	
		<line style="fill:none;stroke:#000000;stroke-width:8;stroke-linecap:round;stroke-linejoin:round;stroke-miterlimit:10;" x1="21.993" y1="52.62" x2="12.04" y2="42.667"/>
	
		<line style="fill:none;stroke:#000000;stroke-width:8;stroke-linejoin:round;stroke-miterlimit:10;" x1="101.624" y1="132.251" x2="92.436" y2="123.063"/>
	
		<line style="fill:none;stroke:#000000;stroke-width:8;stroke-linejoin:round;stroke-miterlimit:10;" x1="175.68" y1="145.053" x2="162.878" y2="132.251"/>
	
		<line style="fill:none;stroke:#000000;stroke-width:8;stroke-linejoin:round;stroke-miterlimit:10;" x1="92.436" y1="61.809" x2="83.248" y2="52.62"/>
	
		<line style="fill:none;stroke:#000000;stroke-width:8;stroke-linecap:round;stroke-linejoin:round;stroke-miterlimit:10;" x1="52.62" y1="21.993" x2="42.667" y2="12.04"/>
	
		<line style="fill:none;stroke:#000000;stroke-width:8;stroke-linejoin:round;stroke-miterlimit:10;" x1="132.251" y1="101.624" x2="123.063" y2="92.436"/>
	
		<rect x="220.872" y="246.318" transform="matrix(-0.7071 0.7071 -0.7071 -0.7071 646.9484 267.9748)" style="fill:none;stroke:#000000;stroke-width:8;stroke-linejoin:round;stroke-miterlimit:10;" width="94.206" height="43.313"/>
	
		<rect x="260.687" y="286.133" transform="matrix(-0.7071 0.7071 -0.7071 -0.7071 743.0707 307.79)" style="fill:none;stroke:#000000;stroke-width:8;stroke-linejoin:round;stroke-miterlimit:10;" width="94.206" height="43.313"/>
	
		<rect x="300.502" y="325.949" transform="matrix(-0.7071 0.7071 -0.7071 -0.7071 839.1931 347.6052)" style="fill:none;stroke:#000000;stroke-width:8;stroke-linejoin:round;stroke-miterlimit:10;" width="94.206" height="43.313"/>
	
		<line style="fill:none;stroke:#000000;stroke-width:8;stroke-linejoin:round;stroke-miterlimit:10;" x1="255.173" y1="224.546" x2="267.975" y2="237.348"/>
	
		<line style="fill:none;stroke:#000000;stroke-width:8;stroke-linejoin:round;stroke-miterlimit:10;" x1="338.417" y1="307.79" x2="347.605" y2="316.978"/>
	
		<line style="fill:none;stroke:#000000;stroke-width:8;stroke-linecap:round;stroke-linejoin:round;stroke-miterlimit:10;" x1="378.232" y1="347.605" x2="388.186" y2="357.559"/>
	
		<line style="fill:none;stroke:#000000;stroke-width:8;stroke-linejoin:round;stroke-miterlimit:10;" x1="298.602" y1="267.975" x2="307.79" y2="277.163"/>
	
		<line style="fill:none;stroke:#000000;stroke-width:8;stroke-linejoin:round;stroke-miterlimit:10;" x1="224.546" y1="255.173" x2="237.348" y2="267.975"/>
	
		<line style="fill:none;stroke:#000000;stroke-width:8;stroke-linejoin:round;stroke-miterlimit:10;" x1="307.79" y1="338.417" x2="316.978" y2="347.605"/>
	
		<line style="fill:none;stroke:#000000;stroke-width:8;stroke-linecap:round;stroke-linejoin:round;stroke-miterlimit:10;" x1="347.605" y1="378.232" x2="357.559" y2="388.186"/>
	
		<line style="fill:none;stroke:#000000;stroke-width:8;stroke-linejoin:round;stroke-miterlimit:10;" x1="267.975" y1="298.602" x2="277.163" y2="307.79"/>
</g>
<g>
</g>
<g>
</g>
<g>
</g>
<g>
</g>
<g>
</g>
<g>
</g>
<g>
</g>
<g>
</g>
<g>
</g>
<g>
</g>
<g>
</g>
<g>
</g>
<g>
</g>
<g>
</g>
<g>
</g>
</svg>
