<?xml version="1.0" encoding="iso-8859-1"?>
<!-- Generator: Adobe Illustrator 18.0.0, SVG Export Plug-In . SVG Version: 6.00 Build 0)  -->
<!DOCTYPE svg PUBLIC "-//W3C//DTD SVG 1.1//EN" "http://www.w3.org/Graphics/SVG/1.1/DTD/svg11.dtd">
<svg version="1.1" id="Capa_1" xmlns="http://www.w3.org/2000/svg" xmlns:xlink="http://www.w3.org/1999/xlink" x="0px" y="0px"
	 viewBox="0 0 431.955 431.955" style="enable-background:new 0 0 431.955 431.955;" xml:space="preserve">
<g>
	<circle style="fill:none;stroke:#000000;stroke-width:8;stroke-miterlimit:10;" cx="131.613" cy="309.002" r="35.044"/>
	<circle style="fill:none;stroke:#000000;stroke-width:8;stroke-miterlimit:10;" cx="131.613" cy="309.002" r="9.763"/>
	
		<line style="fill:none;stroke:#000000;stroke-width:8;stroke-linecap:round;stroke-miterlimit:10;" x1="131.801" y1="347.785" x2="131.773" y2="342.109"/>
	
		<line style="fill:none;stroke:#000000;stroke-width:8;stroke-linecap:round;stroke-miterlimit:10;" x1="131.453" y1="275.896" x2="131.425" y2="270.219"/>
	
		<line style="fill:none;stroke:#000000;stroke-width:8;stroke-linecap:round;stroke-miterlimit:10;" x1="108.318" y1="332.524" x2="104.326" y2="336.555"/>
	
		<line style="fill:none;stroke:#000000;stroke-width:8;stroke-linecap:round;stroke-miterlimit:10;" x1="158.9" y1="281.449" x2="154.908" y2="285.481"/>
	
		<line style="fill:none;stroke:#000000;stroke-width:8;stroke-linecap:round;stroke-miterlimit:10;" x1="98.506" y1="309.162" x2="92.83" y2="309.19"/>
	
		<line style="fill:none;stroke:#000000;stroke-width:8;stroke-linecap:round;stroke-miterlimit:10;" x1="170.396" y1="308.814" x2="164.719" y2="308.842"/>
	
		<line style="fill:none;stroke:#000000;stroke-width:8;stroke-linecap:round;stroke-miterlimit:10;" x1="108.091" y1="285.707" x2="104.06" y2="281.715"/>
	
		<line style="fill:none;stroke:#000000;stroke-width:8;stroke-linecap:round;stroke-miterlimit:10;" x1="159.166" y1="336.289" x2="155.134" y2="332.297"/>
	<circle style="fill:none;stroke:#000000;stroke-width:8;stroke-miterlimit:10;" cx="246.649" cy="309.002" r="35.044"/>
	<circle style="fill:none;stroke:#000000;stroke-width:8;stroke-miterlimit:10;" cx="246.649" cy="309.002" r="9.763"/>
	
		<line style="fill:none;stroke:#000000;stroke-width:8;stroke-linecap:round;stroke-miterlimit:10;" x1="246.837" y1="347.785" x2="246.809" y2="342.109"/>
	
		<line style="fill:none;stroke:#000000;stroke-width:8;stroke-linecap:round;stroke-miterlimit:10;" x1="246.489" y1="275.896" x2="246.461" y2="270.219"/>
	
		<line style="fill:none;stroke:#000000;stroke-width:8;stroke-linecap:round;stroke-miterlimit:10;" x1="223.354" y1="332.524" x2="219.362" y2="336.555"/>
	
		<line style="fill:none;stroke:#000000;stroke-width:8;stroke-linecap:round;stroke-miterlimit:10;" x1="273.936" y1="281.449" x2="269.944" y2="285.481"/>
	
		<line style="fill:none;stroke:#000000;stroke-width:8;stroke-linecap:round;stroke-miterlimit:10;" x1="213.543" y1="309.162" x2="207.866" y2="309.19"/>
	
		<line style="fill:none;stroke:#000000;stroke-width:8;stroke-linecap:round;stroke-miterlimit:10;" x1="285.432" y1="308.814" x2="279.756" y2="308.842"/>
	
		<line style="fill:none;stroke:#000000;stroke-width:8;stroke-linecap:round;stroke-miterlimit:10;" x1="223.128" y1="285.707" x2="219.096" y2="281.715"/>
	
		<line style="fill:none;stroke:#000000;stroke-width:8;stroke-linecap:round;stroke-miterlimit:10;" x1="274.202" y1="336.289" x2="270.171" y2="332.297"/>
	<circle style="fill:none;stroke:#000000;stroke-width:8;stroke-miterlimit:10;" cx="361.685" cy="309.002" r="35.044"/>
	<circle style="fill:none;stroke:#000000;stroke-width:8;stroke-miterlimit:10;" cx="361.685" cy="309.002" r="9.763"/>
	
		<line style="fill:none;stroke:#000000;stroke-width:8;stroke-linecap:round;stroke-miterlimit:10;" x1="361.873" y1="347.785" x2="361.846" y2="342.109"/>
	
		<line style="fill:none;stroke:#000000;stroke-width:8;stroke-linecap:round;stroke-miterlimit:10;" x1="361.525" y1="275.896" x2="361.497" y2="270.219"/>
	
		<line style="fill:none;stroke:#000000;stroke-width:8;stroke-linecap:round;stroke-miterlimit:10;" x1="338.391" y1="332.524" x2="334.398" y2="336.555"/>
	
		<line style="fill:none;stroke:#000000;stroke-width:8;stroke-linecap:round;stroke-miterlimit:10;" x1="388.972" y1="281.449" x2="384.98" y2="285.481"/>
	
		<line style="fill:none;stroke:#000000;stroke-width:8;stroke-linecap:round;stroke-miterlimit:10;" x1="328.579" y1="309.162" x2="322.902" y2="309.19"/>
	
		<line style="fill:none;stroke:#000000;stroke-width:8;stroke-linecap:round;stroke-miterlimit:10;" x1="400.469" y1="308.814" x2="394.792" y2="308.842"/>
	
		<line style="fill:none;stroke:#000000;stroke-width:8;stroke-linecap:round;stroke-miterlimit:10;" x1="338.164" y1="285.707" x2="334.133" y2="281.715"/>
	
		<line style="fill:none;stroke:#000000;stroke-width:8;stroke-linecap:round;stroke-miterlimit:10;" x1="389.238" y1="336.289" x2="385.207" y2="332.297"/>
	<line style="fill:none;stroke:#000000;stroke-width:8;stroke-miterlimit:10;" x1="295.885" y1="248.72" x2="255.195" y2="224"/>
	<polyline style="fill:none;stroke:#000000;stroke-width:8;stroke-miterlimit:10;" points="312.462,257.45 313.332,257.98 
		313.352,257.99 345.852,277.73 	"/>
	<line style="fill:none;stroke:#000000;stroke-width:8;stroke-miterlimit:10;" x1="237.695" y1="224" x2="142.935" y2="274.883"/>
	<polyline style="fill:none;stroke:#000000;stroke-width:8;stroke-linejoin:round;stroke-miterlimit:10;" points="148.362,227.333 
		91.808,261.68 40.287,210.159 	"/>
	<polyline style="fill:none;stroke:#000000;stroke-width:8;stroke-miterlimit:10;" points="262.572,277.78 293.952,258.72 
		295.172,257.98 296.042,257.45 	"/>
	<circle style="fill:none;stroke:#000000;stroke-width:8;stroke-miterlimit:10;" cx="303.613" cy="257.335" r="9.763"/>
	<circle style="fill:none;stroke:#000000;stroke-width:8;stroke-miterlimit:10;" cx="246.443" cy="221.669" r="9.763"/>
	<circle style="fill:none;stroke:#000000;stroke-width:8;stroke-miterlimit:10;" cx="157.11" cy="223.002" r="9.763"/>
	<circle style="fill:none;stroke:#000000;stroke-width:8;stroke-miterlimit:10;" cx="171.776" cy="106.826" r="9.763"/>
	<path style="fill:none;stroke:#000000;stroke-width:8;stroke-miterlimit:10;" d="M154.805,198.873
		c0.06-12.94,10.55-23.45,23.52-23.51c13.06-0.06,23.68,10.46,23.76,23.51"/>
	<polyline style="fill:none;stroke:#000000;stroke-width:8;stroke-linejoin:round;stroke-miterlimit:10;" points="295.172,257.98 
		293.872,257.98 131.822,257.98 131.822,198.88 361.482,198.88 361.482,257.98 313.352,257.98 313.332,257.98 	"/>
	<polyline style="fill:none;stroke:#000000;stroke-width:8;stroke-linejoin:round;stroke-miterlimit:10;" points="291.825,198.873 
		291.825,181.843 330.875,181.843 330.875,198.873 	"/>
	<polyline style="fill:none;stroke:#000000;stroke-width:8;stroke-linejoin:round;stroke-miterlimit:10;" points="361.465,258.133 
		361.475,258.124 427.955,198.336 394.945,168.653 361.475,198.759 	"/>
	<polyline style="fill:none;stroke:#000000;stroke-width:8;stroke-linejoin:round;stroke-miterlimit:10;" points="416.625,186.346 
		415.625,187.246 361.475,235.943 	"/>
	<polyline style="fill:none;stroke:#000000;stroke-width:8;stroke-linejoin:round;stroke-miterlimit:10;" points="407.285,177.945 
		406.285,178.844 361.475,219.141 	"/>
	
		<line style="fill:none;stroke:#000000;stroke-width:8;stroke-miterlimit:10;" x1="172.785" y1="176.053" x2="172.785" y2="130.833"/>
	
		<line style="fill:none;stroke:#000000;stroke-width:8;stroke-miterlimit:10;" x1="184.095" y1="176.053" x2="184.095" y2="130.833"/>
	
		<rect x="147.443" y="84.17" style="fill:none;stroke:#000000;stroke-width:8;stroke-linejoin:round;stroke-miterlimit:10;" width="62" height="46.667"/>
	
		<line style="fill:none;stroke:#000000;stroke-width:8;stroke-miterlimit:10;" x1="196.765" y1="83.504" x2="196.765" y2="129.503"/>
	<path style="fill:none;stroke:#000000;stroke-width:8;stroke-linecap:round;stroke-miterlimit:10;" d="M24.27,174.915
		l15.792,15.792c5.598,5.598,5.598,14.673,0,20.27l0,0c-5.598,5.598-14.673,5.598-20.27,0L4,195.185"/>
	
		<line style="fill:none;stroke:#000000;stroke-width:8;stroke-linecap:round;stroke-miterlimit:10;" x1="313.432" y1="216.347" x2="343.432" y2="216.347"/>
	
		<line style="fill:none;stroke:#000000;stroke-width:8;stroke-linecap:round;stroke-miterlimit:10;" x1="313.432" y1="227.68" x2="343.432" y2="227.68"/>
</g>
<g>
</g>
<g>
</g>
<g>
</g>
<g>
</g>
<g>
</g>
<g>
</g>
<g>
</g>
<g>
</g>
<g>
</g>
<g>
</g>
<g>
</g>
<g>
</g>
<g>
</g>
<g>
</g>
<g>
</g>
</svg>
