<?xml version="1.0" encoding="iso-8859-1"?>
<!-- Generator: Adobe Illustrator 18.0.0, SVG Export Plug-In . SVG Version: 6.00 Build 0)  -->
<!DOCTYPE svg PUBLIC "-//W3C//DTD SVG 1.1//EN" "http://www.w3.org/Graphics/SVG/1.1/DTD/svg11.dtd">
<svg version="1.1" id="Capa_1" xmlns="http://www.w3.org/2000/svg" xmlns:xlink="http://www.w3.org/1999/xlink" x="0px" y="0px"
	 viewBox="0 0 305.245 305.245" style="enable-background:new 0 0 305.245 305.245;" xml:space="preserve">
<g>
	<path style="fill:none;stroke:#000000;stroke-width:8;stroke-linecap:round;stroke-linejoin:round;stroke-miterlimit:10;" d="
		M230.559,36.309H74.676c-14.032,0-26.245,9.594-29.567,23.226L4.606,225.699c-2.134,8.755,1.48,17.914,9.032,22.829
		c1.436,0.935,2.739,1.767,3.734,2.373c40.648,24.78,87.427,37.974,135.244,37.974h0c49.175,0,97.251-13.953,138.69-40.112
		c0.035-0.022,0.071-0.045,0.107-0.068c7.679-4.869,11.377-14.119,9.224-22.953L260.126,59.536
		C256.803,45.903,244.59,36.309,230.559,36.309z"/>
	
		<line style="fill:none;stroke:#000000;stroke-width:8;stroke-linecap:round;stroke-linejoin:round;stroke-miterlimit:10;" x1="266.819" y1="87.015" x2="38.416" y2="87.015"/>
	
		<line style="fill:none;stroke:#000000;stroke-width:8;stroke-linecap:round;stroke-linejoin:round;stroke-miterlimit:10;" x1="262.018" y1="67.326" x2="43.216" y2="67.326"/>
	
		<polyline style="fill:none;stroke:#000000;stroke-width:8;stroke-linecap:round;stroke-linejoin:round;stroke-miterlimit:10;" points="
		199.512,36.309 199.512,16.37 105.723,16.37 105.723,36.309 	"/>
	<path style="fill:none;stroke:#000000;stroke-width:8;stroke-linecap:round;stroke-linejoin:round;stroke-miterlimit:10;" d="
		M200.942,193.947c-32.169,2.375-64.469,2.375-96.639,0c-8.21-0.605-13.86-7.563-12.04-14.532
		c4.711-18.396,9.165-36.837,13.362-55.317c1.324-5.743,6.639-9.661,12.509-9.313c22.971,1.377,46.005,1.377,68.977,0
		c5.872-0.349,11.186,3.57,12.509,9.313c4.197,18.48,8.651,36.921,13.362,55.317C214.801,186.38,209.151,193.341,200.942,193.947z"
		/>
	
		<line style="fill:none;stroke:#000000;stroke-width:8;stroke-linejoin:round;stroke-miterlimit:10;" x1="78.871" y1="88.492" x2="59.892" y2="221.672"/>
	
		<line style="fill:none;stroke:#000000;stroke-width:8;stroke-linejoin:round;stroke-miterlimit:10;" x1="245.358" y1="221.672" x2="226.378" y2="88.492"/>
	
		<ellipse style="fill:none;stroke:#000000;stroke-width:8;stroke-linecap:round;stroke-linejoin:round;stroke-miterlimit:10;" cx="152.623" cy="155.246" rx="22.155" ry="20.64"/>
	<path style="fill:none;stroke:#000000;stroke-width:8;stroke-linecap:round;stroke-linejoin:round;stroke-miterlimit:10;" d="
		M28.935,128.311c2.585-1.713,5.435-2.481,8.301-2.038c8.227,1.255,13.411,12.082,11.55,24.178
		c-1.846,12.097-10.029,20.885-18.27,19.614c-4.224-0.635-7.636-3.796-9.719-8.36"/>
	<path style="fill:none;stroke:#000000;stroke-width:8;stroke-linecap:round;stroke-linejoin:round;stroke-miterlimit:10;" d="
		M284.449,161.706c-2.083,4.564-5.494,7.725-9.719,8.36c-8.242,1.27-16.424-7.518-18.27-19.614
		c-1.861-12.097,3.323-22.923,11.55-24.178c2.865-0.443,5.716,0.325,8.301,2.038"/>
	
		<line style="fill:none;stroke:#000000;stroke-width:8;stroke-linecap:round;stroke-linejoin:round;stroke-miterlimit:10;" x1="6.395" y1="221.672" x2="297.363" y2="221.672"/>
	
		<line style="fill:none;stroke:#000000;stroke-width:8;stroke-linecap:round;stroke-linejoin:round;stroke-miterlimit:10;" x1="94.276" y1="16.37" x2="210.959" y2="16.37"/>
</g>
<g>
</g>
<g>
</g>
<g>
</g>
<g>
</g>
<g>
</g>
<g>
</g>
<g>
</g>
<g>
</g>
<g>
</g>
<g>
</g>
<g>
</g>
<g>
</g>
<g>
</g>
<g>
</g>
<g>
</g>
</svg>
