<?xml version="1.0" encoding="iso-8859-1"?>
<!-- Generator: Adobe Illustrator 18.0.0, SVG Export Plug-In . SVG Version: 6.00 Build 0)  -->
<!DOCTYPE svg PUBLIC "-//W3C//DTD SVG 1.1//EN" "http://www.w3.org/Graphics/SVG/1.1/DTD/svg11.dtd">
<svg version="1.1" id="Capa_1" xmlns="http://www.w3.org/2000/svg" xmlns:xlink="http://www.w3.org/1999/xlink" x="0px" y="0px"
	 viewBox="0 0 449.818 449.818" style="enable-background:new 0 0 449.818 449.818;" xml:space="preserve">
<g>
	
		<rect x="164.433" y="365.292" style="fill:none;stroke:#000000;stroke-width:8;stroke-linejoin:round;stroke-miterlimit:10;" width="120.953" height="53.806"/>
	
		<line style="fill:none;stroke:#000000;stroke-width:8;stroke-linejoin:round;stroke-miterlimit:10;" x1="224.909" y1="381.753" x2="224.909" y2="444.737"/>
	<polyline style="fill:none;stroke:#000000;stroke-width:8;stroke-linejoin:round;stroke-miterlimit:10;" points="200.896,418.653 
		224.909,381.531 203.12,365.069 	"/>
	<polyline style="fill:none;stroke:#000000;stroke-width:8;stroke-linejoin:round;stroke-miterlimit:10;" points="248.922,418.653 
		224.909,381.531 246.698,365.069 	"/>
	<path style="fill:none;stroke:#000000;stroke-width:8;stroke-linejoin:round;stroke-miterlimit:10;" d="M191.852,279.349
		c-3.295,5.652-5.185,12.224-5.185,19.241c0,12.562,6.057,23.71,15.408,30.683"/>
	<path style="fill:none;stroke:#000000;stroke-width:8;stroke-linejoin:round;stroke-miterlimit:10;" d="M257.967,279.349
		c3.295,5.652,5.185,12.224,5.185,19.241c0,12.562-6.057,23.71-15.408,30.683"/>
	<polyline style="fill:none;stroke:#000000;stroke-width:8;stroke-linejoin:round;stroke-miterlimit:10;" points="266.994,365.291 
		257.82,329.274 191.998,329.274 182.825,365.291 	"/>
	<path style="fill:none;stroke:#000000;stroke-width:8;stroke-linejoin:round;stroke-miterlimit:10;" d="M224.909,248.341
		L224.909,248.341c-10.638,0-20.373,5.98-25.182,15.47l-8.836,17.437h68.036l-8.836-17.437
		C245.282,254.321,235.547,248.341,224.909,248.341z"/>
	
		<line style="fill:none;stroke:#000000;stroke-width:8;stroke-linejoin:round;stroke-miterlimit:10;" x1="204.009" y1="262.294" x2="245.809" y2="262.294"/>
	
		<line style="fill:none;stroke:#000000;stroke-width:8;stroke-linejoin:round;stroke-miterlimit:10;" x1="224.909" y1="281.247" x2="224.909" y2="261.649"/>
	
		<line style="fill:none;stroke:#000000;stroke-width:8;stroke-linejoin:round;stroke-miterlimit:10;" x1="213.125" y1="263.1" x2="205.121" y2="281.247"/>
	
		<line style="fill:none;stroke:#000000;stroke-width:8;stroke-linejoin:round;stroke-miterlimit:10;" x1="236.693" y1="263.1" x2="244.697" y2="281.247"/>
	
		<line style="fill:none;stroke:#000000;stroke-width:8;stroke-linejoin:round;stroke-miterlimit:10;" x1="214.904" y1="329.273" x2="214.904" y2="281.247"/>
	
		<line style="fill:none;stroke:#000000;stroke-width:8;stroke-linejoin:round;stroke-miterlimit:10;" x1="234.914" y1="329.273" x2="234.914" y2="281.247"/>
	<path style="fill:none;stroke:#000000;stroke-width:8;stroke-linejoin:round;stroke-miterlimit:10;" d="M188.45,310.151h-6.452
		c-6.508,0-11.784,5.276-11.784,11.784v20.9c0,6.508,5.276,11.784,11.784,11.784h0"/>
	<polyline style="fill:none;stroke:#000000;stroke-width:8;stroke-linejoin:round;stroke-miterlimit:10;" points="114.629,443.403 
		141.754,382.198 164.433,367.515 	"/>
	
		<line style="fill:none;stroke:#000000;stroke-width:8;stroke-linejoin:round;stroke-miterlimit:10;" x1="164.077" y1="405.313" x2="141.754" y2="382.198"/>
	<polyline style="fill:none;stroke:#000000;stroke-width:8;stroke-linejoin:round;stroke-miterlimit:10;" points="163.944,419.098 
		143.978,419.098 121.235,426.213 	"/>
	<polyline style="fill:none;stroke:#000000;stroke-width:8;stroke-linejoin:round;stroke-miterlimit:10;" points="335.189,443.403 
		308.064,382.198 285.385,367.515 	"/>
	
		<line style="fill:none;stroke:#000000;stroke-width:8;stroke-linejoin:round;stroke-miterlimit:10;" x1="285.741" y1="405.313" x2="308.064" y2="382.198"/>
	<polyline style="fill:none;stroke:#000000;stroke-width:8;stroke-linejoin:round;stroke-miterlimit:10;" points="285.875,419.098 
		305.841,419.098 328.583,426.213 	"/>
	
		<line style="fill:none;stroke:#000000;stroke-width:8;stroke-linecap:round;stroke-linejoin:round;stroke-miterlimit:10;" x1="103.983" y1="445.818" x2="126.917" y2="445.818"/>
	
		<line style="fill:none;stroke:#000000;stroke-width:8;stroke-linecap:round;stroke-linejoin:round;stroke-miterlimit:10;" x1="322.901" y1="445.818" x2="345.835" y2="445.818"/>
	
		<line style="fill:none;stroke:#000000;stroke-width:8;stroke-linecap:round;stroke-linejoin:round;stroke-miterlimit:10;" x1="213.442" y1="445.818" x2="236.376" y2="445.818"/>
	<polygon style="fill:none;stroke:#000000;stroke-width:8;stroke-linejoin:round;stroke-miterlimit:10;" points="281.647,191.011 
		232.832,247.749 216.986,247.749 168.171,191.011 168.171,54.545 281.647,54.545 	"/>
	
		<line style="fill:none;stroke:#000000;stroke-width:8;stroke-linejoin:round;stroke-miterlimit:10;" x1="168.171" y1="191.011" x2="277.856" y2="191.011"/>
	<polyline style="fill:none;stroke:#000000;stroke-width:8;stroke-linejoin:round;stroke-miterlimit:10;" points="245.446,54.548 
		257.653,4 188.861,4 201.068,54.548 	"/>
	
		<line style="fill:none;stroke:#000000;stroke-width:8;stroke-linejoin:round;stroke-miterlimit:10;" x1="202.798" y1="229.68" x2="245.887" y2="229.68"/>
	
		<line style="fill:none;stroke:#000000;stroke-width:8;stroke-linejoin:round;stroke-miterlimit:10;" x1="168.744" y1="167.132" x2="279.941" y2="167.132"/>
	
		<line style="fill:none;stroke:#000000;stroke-width:8;stroke-linejoin:round;stroke-miterlimit:10;" x1="168.744" y1="153.927" x2="279.941" y2="153.927"/>
	
		<line style="fill:none;stroke:#000000;stroke-width:8;stroke-linejoin:round;stroke-miterlimit:10;" x1="168.744" y1="140.722" x2="279.941" y2="140.722"/>
	
		<line style="fill:none;stroke:#000000;stroke-width:8;stroke-linejoin:round;stroke-miterlimit:10;" x1="248.636" y1="41.34" x2="197.878" y2="41.34"/>
	
		<line style="fill:none;stroke:#000000;stroke-width:8;stroke-linejoin:round;stroke-miterlimit:10;" x1="251.826" y1="28.827" x2="194.688" y2="28.827"/>
	
		<line style="fill:none;stroke:#000000;stroke-width:8;stroke-linejoin:round;stroke-miterlimit:10;" x1="255.016" y1="16.325" x2="191.498" y2="16.325"/>
	<polyline style="fill:none;stroke:#000000;stroke-width:8;stroke-linejoin:round;stroke-miterlimit:10;" points="168.168,108.058 
		197.93,108.058 197.93,68.444 168.168,68.444 	"/>
	<polyline style="fill:none;stroke:#000000;stroke-width:8;stroke-linejoin:round;stroke-miterlimit:10;" points="281.647,68.444 
		251.885,68.444 251.885,108.058 281.647,108.058 	"/>
</g>
<g>
</g>
<g>
</g>
<g>
</g>
<g>
</g>
<g>
</g>
<g>
</g>
<g>
</g>
<g>
</g>
<g>
</g>
<g>
</g>
<g>
</g>
<g>
</g>
<g>
</g>
<g>
</g>
<g>
</g>
</svg>
