<?xml version="1.0" encoding="iso-8859-1"?>
<!-- Generator: Adobe Illustrator 18.0.0, SVG Export Plug-In . SVG Version: 6.00 Build 0)  -->
<!DOCTYPE svg PUBLIC "-//W3C//DTD SVG 1.1//EN" "http://www.w3.org/Graphics/SVG/1.1/DTD/svg11.dtd">
<svg version="1.1" id="Capa_1" xmlns="http://www.w3.org/2000/svg" xmlns:xlink="http://www.w3.org/1999/xlink" x="0px" y="0px"
	 viewBox="0 0 265.423 265.423" style="enable-background:new 0 0 265.423 265.423;" xml:space="preserve">
<g>
	<path style="fill:none;stroke:#000000;stroke-width:8;stroke-linejoin:round;stroke-miterlimit:10;" d="M175.861,141.886
		c-52.721,52.721-76.06,52.633-90.51,38.184c-14.449-14.449-14.537-37.789,38.184-90.51S261.421,4,261.421,4
		S228.581,89.165,175.861,141.886z"/>
	<path style="fill:none;stroke:#000000;stroke-width:8;stroke-linejoin:round;stroke-miterlimit:10;" d="M37.842,170.732
		c6.602-2.795,15.063-10.337,26.48-25.687C85.548,116.506,95.14,74.033,95.14,74.033s-37.918,21.406-59.143,49.945
		c-11.416,15.349-16.205,25.623-16.983,32.75L37.842,170.732z"/>
	<path style="fill:none;stroke:#000000;stroke-width:8;stroke-linejoin:round;stroke-miterlimit:10;" d="M94.688,227.578
		c2.795-6.602,10.337-15.064,25.687-26.48c28.539-21.226,71.012-30.818,71.012-30.818s-21.406,37.918-49.945,59.143
		c-15.349,11.416-25.623,16.205-32.75,16.983L94.688,227.578z"/>
	
		<line style="fill:none;stroke:#000000;stroke-width:8;stroke-linejoin:round;stroke-miterlimit:10;" x1="77.469" y1="156.433" x2="56.397" y2="151.682"/>
	
		<line style="fill:none;stroke:#000000;stroke-width:8;stroke-linejoin:round;stroke-miterlimit:10;" x1="100.061" y1="115.188" x2="80.729" y2="110.832"/>
	
		<line style="fill:none;stroke:#000000;stroke-width:8;stroke-linejoin:round;stroke-miterlimit:10;" x1="113.737" y1="209.021" x2="108.985" y2="187.963"/>
	
		<line style="fill:none;stroke:#000000;stroke-width:8;stroke-linejoin:round;stroke-miterlimit:10;" x1="154.586" y1="184.689" x2="150.231" y2="165.371"/>
	
		<circle style="fill:none;stroke:#000000;stroke-width:8;stroke-linejoin:round;stroke-miterlimit:10;" cx="172.264" cy="93.741" r="15.5"/>
	<polyline style="fill:none;stroke:#000000;stroke-width:8;stroke-linejoin:round;stroke-miterlimit:10;" points="101.638,188.183 
		86.237,203.583 61.842,179.188 77.237,163.794 	"/>
	<path style="fill:none;stroke:#000000;stroke-width:8;stroke-linejoin:round;stroke-miterlimit:10;" d="M183.578,43.424
		c9.504,15.712,22.712,28.921,38.424,38.424"/>
	<path style="fill:none;stroke:#000000;stroke-width:8;stroke-linejoin:round;stroke-miterlimit:10;" d="M4.002,261.423v-31.5
		c0-17.397,14.103-31.5,31.5-31.5h0c17.397,0,31.5,14.103,31.5,31.5v0c0,17.397-14.103,31.5-31.5,31.5H4.002z"/>
	<path style="fill:none;stroke:#000000;stroke-width:8;stroke-linejoin:round;stroke-miterlimit:10;" d="M30.215,235.21v-16.145
		c0-8.917,7.228-16.145,16.145-16.145h0c8.917,0,16.145,7.228,16.145,16.145v0c0,8.917-7.228,16.145-16.145,16.145H30.215z"/>
	<path style="fill:none;stroke:#000000;stroke-width:8;stroke-linecap:round;stroke-linejoin:round;stroke-miterlimit:10;" d="
		M230.901,42.907c-4.784,9.055-10.235,19.051-12.899,22.813"/>
	<path style="fill:none;stroke:#000000;stroke-width:8;stroke-linecap:round;stroke-linejoin:round;stroke-miterlimit:10;" d="
		M239.804,25.737c0,0-1.495,2.945-3.729,7.267"/>
</g>
<g>
</g>
<g>
</g>
<g>
</g>
<g>
</g>
<g>
</g>
<g>
</g>
<g>
</g>
<g>
</g>
<g>
</g>
<g>
</g>
<g>
</g>
<g>
</g>
<g>
</g>
<g>
</g>
<g>
</g>
</svg>
