<?xml version="1.0" encoding="iso-8859-1"?>
<!-- Generator: Adobe Illustrator 18.0.0, SVG Export Plug-In . SVG Version: 6.00 Build 0)  -->
<!DOCTYPE svg PUBLIC "-//W3C//DTD SVG 1.1//EN" "http://www.w3.org/Graphics/SVG/1.1/DTD/svg11.dtd">
<svg version="1.1" id="Capa_1" xmlns="http://www.w3.org/2000/svg" xmlns:xlink="http://www.w3.org/1999/xlink" x="0px" y="0px"
	 viewBox="0 0 354.108 354.108" style="enable-background:new 0 0 354.108 354.108;" xml:space="preserve">
<g>
	<path style="fill:none;stroke:#000000;stroke-width:8;stroke-linejoin:round;stroke-miterlimit:10;" d="M291.64,159.419
		c-14.094,19.853-49.627,33.734-112.596,33.734c-57.742,0-123.651-26.063-159.804-42.673c-11.516-5.289-11.516-21.66,0-26.949
		c36.153-16.619,102.062-42.673,159.804-42.673c62.969,0,98.501,13.873,112.596,33.734"/>
	<path style="fill:none;stroke:#000000;stroke-width:8;stroke-linejoin:round;stroke-miterlimit:10;" d="M226.679,189.903
		c-5.09,8.09-11.74,15.69-20.39,16.54c-19.18,1.9-52.73-2.81-84.4-6.73c-0.1-0.01-0.21-0.02-0.31-0.03
		c-5.22-0.6-10.28,0.32-14.72,2.41c-8.2,3.86-14.31,11.69-15.53,21.35c-1.91,15.02-4.39,33.02-6.43,47.52
		c-2.08,14.76-16.98,24.09-31.16,19.49c-12.1-3.92-26.35-9.62-38.69-17.44c-11.95-7.58-14.65-23.87-5.92-35.02
		c9.64-12.31,19.43-25.13,27.39-35.64c9.3-12.28,10.94-28.55,4.67-42.29c-0.09-0.2-0.18-0.41-0.28-0.61"/>
	<path style="fill:none;stroke:#000000;stroke-width:8;stroke-linejoin:round;stroke-miterlimit:10;" d="M128.638,85.731
		L45.324,62.82c-8.066-2.218-14.61,6.692-10.08,13.724l20.752,32.22"/>
	<polyline style="fill:none;stroke:#000000;stroke-width:8;stroke-linejoin:round;stroke-miterlimit:10;" points="306.7,162.324 
		291.64,173.77 291.64,100.242 306.7,111.687 	"/>
	<polygon style="fill:none;stroke:#000000;stroke-width:8;stroke-linejoin:round;stroke-miterlimit:10;" points="328.847,156.938 
		306.7,173.77 306.7,100.242 328.847,117.073 	"/>
	
		<circle style="fill:none;stroke:#000000;stroke-width:8;stroke-linecap:round;stroke-linejoin:round;stroke-miterlimit:10;" cx="339.478" cy="137.006" r="10.631"/>
	<path style="fill:none;stroke:#000000;stroke-width:8;stroke-linejoin:round;stroke-miterlimit:10;" d="M106.86,202.093
		c1.147,13.166,10.005,24.98,23.384,29.265l0.007,0.007l-0.007-0.007c-0.294-0.485-10.674-17.592-8.667-31.684"/>
	<path style="fill:none;stroke:#000000;stroke-width:8;stroke-linejoin:round;stroke-miterlimit:10;" d="M26.566,153.785
		c3.986-4.456,6.396-10.338,6.396-16.779c0-6.44-2.41-12.323-6.396-16.779"/>
	
		<line style="fill:none;stroke:#000000;stroke-width:8;stroke-linejoin:round;stroke-miterlimit:10;" x1="32.962" y1="130.006" x2="290.754" y2="130.006"/>
	
		<line style="fill:none;stroke:#000000;stroke-width:8;stroke-linejoin:round;stroke-miterlimit:10;" x1="32.962" y1="144.006" x2="290.754" y2="144.006"/>
	
		<circle style="fill:none;stroke:#000000;stroke-width:8;stroke-linejoin:round;stroke-miterlimit:10;" cx="145.027" cy="107.265" r="10.188"/>
	
		<circle style="fill:none;stroke:#000000;stroke-width:8;stroke-linejoin:round;stroke-miterlimit:10;" cx="189.764" cy="107.265" r="10.188"/>
	
		<circle style="fill:none;stroke:#000000;stroke-width:8;stroke-linejoin:round;stroke-miterlimit:10;" cx="234.501" cy="107.265" r="10.188"/>
	<path style="fill:none;stroke:#000000;stroke-width:8;stroke-linejoin:round;stroke-miterlimit:10;" d="M54.209,207.442
		l-20.287,20.835c-11.425,11.734-7.609,31.267,7.391,37.839l0,0c15.15,6.637,32.224-4.073,32.844-20.601l1.09-29.06
		C75.669,205.236,62.042,199.398,54.209,207.442z"/>
</g>
<g>
</g>
<g>
</g>
<g>
</g>
<g>
</g>
<g>
</g>
<g>
</g>
<g>
</g>
<g>
</g>
<g>
</g>
<g>
</g>
<g>
</g>
<g>
</g>
<g>
</g>
<g>
</g>
<g>
</g>
</svg>
