<?xml version="1.0" encoding="iso-8859-1"?>
<!-- Generator: Adobe Illustrator 18.0.0, SVG Export Plug-In . SVG Version: 6.00 Build 0)  -->
<!DOCTYPE svg PUBLIC "-//W3C//DTD SVG 1.1//EN" "http://www.w3.org/Graphics/SVG/1.1/DTD/svg11.dtd">
<svg version="1.1" id="Capa_1" xmlns="http://www.w3.org/2000/svg" xmlns:xlink="http://www.w3.org/1999/xlink" x="0px" y="0px"
	 viewBox="0 0 337.756 337.756" style="enable-background:new 0 0 337.756 337.756;" xml:space="preserve">
<g>
	
		<circle style="fill:none;stroke:#000000;stroke-width:8;stroke-linecap:round;stroke-linejoin:round;stroke-miterlimit:10;" cx="201.671" cy="168.878" r="132.085"/>
	
		<circle style="fill:none;stroke:#000000;stroke-width:8;stroke-linecap:round;stroke-linejoin:round;stroke-miterlimit:10;" cx="23.633" cy="131.752" r="19.633"/>
	
		<ellipse transform="matrix(0.7465 -0.6654 0.6654 0.7465 -92.1217 185.9488)" style="fill:none;stroke:#000000;stroke-width:8;stroke-linecap:round;stroke-linejoin:round;stroke-miterlimit:10;" cx="197.968" cy="213.87" rx="30.922" ry="17.65"/>
	<ellipse transform="matrix(0.7465 -0.6654 0.6654 0.7465 -92.1217 185.9488)" cx="197.968" cy="213.87" rx="15.453" ry="7.252"/>
	<path style="fill:none;stroke:#000000;stroke-width:8;stroke-linecap:round;stroke-linejoin:round;stroke-miterlimit:10;" d="
		M73.97,202.692c30.847-18.511,61.601-42.399,90.361-71.159s52.648-59.514,71.159-90.361"/>
	<path style="fill:none;stroke:#000000;stroke-width:8;stroke-linecap:round;stroke-linejoin:round;stroke-miterlimit:10;" d="
		M84.732,230.35c34.398-19.252,68.972-45.277,101.055-77.361s58.109-66.658,77.361-101.055"/>
	<path style="fill:none;stroke:#000000;stroke-width:8;stroke-linecap:round;stroke-linejoin:round;stroke-miterlimit:10;" d="
		M154.956,119.868c24.034-24.192,45.71-50.786,64.042-79.557"/>
	<path style="fill:none;stroke:#000000;stroke-width:8;stroke-linecap:round;stroke-linejoin:round;stroke-miterlimit:10;" d="
		M221.093,193.36c0.858-0.825,1.7-1.666,2.55-2.516c33.548-33.548,60.482-69.822,79.961-105.776"/>
	<path style="fill:none;stroke:#000000;stroke-width:8;stroke-linecap:round;stroke-linejoin:round;stroke-miterlimit:10;" d="
		M117.867,270.805c18.924-10.257,37.948-22.584,56.62-36.846"/>
	<path style="fill:none;stroke:#000000;stroke-width:8;stroke-linecap:round;stroke-linejoin:round;stroke-miterlimit:10;" d="
		M147.805,289.502c33.581-19.092,67.255-44.638,98.556-75.939s56.847-64.975,75.939-98.556"/>
	<path style="fill:none;stroke:#000000;stroke-width:8;stroke-linecap:round;stroke-linejoin:round;stroke-miterlimit:10;" d="
		M279.446,201.491c17.615-20.007,33.654-41.427,47.545-64.188"/>
	<path style="fill:none;stroke:#000000;stroke-width:8;stroke-linecap:round;stroke-linejoin:round;stroke-miterlimit:10;" d="
		M170.154,294.159c12.175-7.437,23.969-15.494,35.371-24.069"/>
</g>
<g>
</g>
<g>
</g>
<g>
</g>
<g>
</g>
<g>
</g>
<g>
</g>
<g>
</g>
<g>
</g>
<g>
</g>
<g>
</g>
<g>
</g>
<g>
</g>
<g>
</g>
<g>
</g>
<g>
</g>
</svg>
