<?xml version="1.0" encoding="iso-8859-1"?>
<!-- Generator: Adobe Illustrator 18.0.0, SVG Export Plug-In . SVG Version: 6.00 Build 0)  -->
<!DOCTYPE svg PUBLIC "-//W3C//DTD SVG 1.1//EN" "http://www.w3.org/Graphics/SVG/1.1/DTD/svg11.dtd">
<svg version="1.1" id="Capa_1" xmlns="http://www.w3.org/2000/svg" xmlns:xlink="http://www.w3.org/1999/xlink" x="0px" y="0px"
	 viewBox="0 0 272.17 272.17" style="enable-background:new 0 0 272.17 272.17;" xml:space="preserve">
<g>
	
		<circle style="fill:none;stroke:#000000;stroke-width:8;stroke-linecap:round;stroke-linejoin:round;stroke-miterlimit:10;" cx="136.085" cy="136.085" r="132.085"/>
	<path style="fill:none;stroke:#000000;stroke-width:8;stroke-linecap:round;stroke-linejoin:round;stroke-miterlimit:10;" d="
		M191.803,18.293c0.19,11.632-11.642,21.257-26.426,21.498c-14.784,0.241-26.923-8.993-27.112-20.625"/>
	<path style="fill:none;stroke:#000000;stroke-width:8;stroke-linecap:round;stroke-linejoin:round;stroke-miterlimit:10;" d="
		M56.847,50.904c4.62-2.061,8.818-2.185,11.113,0.11c3.873,3.873,0.859,13.165-6.731,20.755s-16.883,10.604-20.755,6.731
		c-1.936-1.936-2.151-5.228-0.933-8.983"/>
	<path style="fill:none;stroke:#000000;stroke-width:8;stroke-linecap:round;stroke-linejoin:round;stroke-miterlimit:10;" d="
		M60.922,180.333c-1.974-10.558,2.614-21.704,12.338-27.607"/>
	<path style="fill:none;stroke:#000000;stroke-width:8;stroke-linecap:round;stroke-linejoin:round;stroke-miterlimit:10;" d="
		M95.529,150.256c5.738,1.928,10.852,5.817,14.239,11.397c7.616,12.546,3.62,28.892-8.927,36.508
		c-9.41,5.712-20.957,4.892-29.355-1.168"/>
	<path style="fill:none;stroke:#000000;stroke-width:8;stroke-linecap:round;stroke-linejoin:round;stroke-miterlimit:10;" d="
		M227.21,111.586c-0.797,5.283-4.44,9.676-9.572,10.819c-6.842,1.524-13.741-3.307-15.408-10.791
		c-1.667-7.484,2.528-14.786,9.371-16.31c3.421-0.762,6.856,0.065,9.645,2.017"/>
	<path style="fill:none;stroke:#000000;stroke-width:8;stroke-linecap:round;stroke-linejoin:round;stroke-miterlimit:10;" d="
		M29.075,172.914c3.637-0.969,7.682,2.365,9.035,7.445c1.353,5.08-0.498,9.984-4.135,10.953"/>
	
		<ellipse transform="matrix(0.7071 -0.7071 0.7071 0.7071 -92.9701 221.4418)" style="fill:none;stroke:#000000;stroke-width:8;stroke-linecap:round;stroke-linejoin:round;stroke-miterlimit:10;" cx="220.819" cy="222.946" rx="17.056" ry="10.313"/>
	<path style="fill:none;stroke:#000000;stroke-width:8;stroke-linecap:round;stroke-linejoin:round;stroke-miterlimit:10;" d="
		M180.15,149.181c-12.237,12.237-32.078,12.237-44.315,0s-12.237-32.078,0-44.315s32.078-12.237,44.315,0"/>
	<path style="fill:none;stroke:#000000;stroke-width:8;stroke-linecap:round;stroke-linejoin:round;stroke-miterlimit:10;" d="
		M189.328,127.023c0,1.865-0.165,3.73-0.496,5.57"/>
	<path style="fill:none;stroke:#000000;stroke-width:8;stroke-linecap:round;stroke-linejoin:round;stroke-miterlimit:10;" d="
		M120.396,252.796c6.9-5.402,16.872-4.187,22.274,2.712"/>
</g>
<g>
</g>
<g>
</g>
<g>
</g>
<g>
</g>
<g>
</g>
<g>
</g>
<g>
</g>
<g>
</g>
<g>
</g>
<g>
</g>
<g>
</g>
<g>
</g>
<g>
</g>
<g>
</g>
<g>
</g>
</svg>
